<svg width="41" height="40" viewBox="0 0 41 40" fill="none" xmlns="http://www.w3.org/2000/svg">
<path d="M0.5 20C0.5 8.95431 9.45431 0 20.5 0C31.5457 0 40.5 8.95431 40.5 20C40.5 31.0457 31.5457 40 20.5 40C9.45431 40 0.5 31.0457 0.5 20Z" fill="black"/>
<path d="M27.5669 11.25H30.4612L24.4399 17.6738C23.9327 18.2097 23.322 18.6375 22.6449 18.9309C21.9676 19.2244 21.238 19.3776 20.4999 19.3812C19.7619 19.3776 19.0323 19.2244 18.3552 18.9309C17.6779 18.6375 17.0673 18.2097 16.56 17.6738L10.5287 11.25H13.4331L18.0024 16.1706C19.3406 17.5899 21.6593 17.5899 22.9975 16.1706L27.5669 11.25ZM13.3937 28.7399H10.5L16.5594 22.3356C17.0676 21.7994 17.6791 21.3717 18.3571 21.0781C19.0352 20.7847 19.7655 20.6316 20.5043 20.6281C21.2431 20.6317 21.9736 20.7848 22.6516 21.0784C23.3297 21.372 23.9412 21.7998 24.4494 22.3362L30.5 28.7499H27.6055L23.0074 23.8486C21.6687 22.43 19.3506 22.43 18.0125 23.8486L13.3937 28.7399Z" fill="white"/>
</svg>
