<svg width="41" height="40" viewBox="0 0 41 40" fill="none" xmlns="http://www.w3.org/2000/svg">
<path d="M20.4999 33.3333L3.83337 16.8916L10.1917 6.66663H30.8084L37.1667 16.8916L20.4999 33.3333ZM22.1667 18.3333V16.2999C25.1665 16.4499 27.9665 17.0331 28.8334 17.7915C27.825 18.675 24.2167 19.3166 20.4999 19.3166C16.7833 19.3166 13.175 18.675 12.1667 17.7915C13.025 17.0331 15.8334 16.4582 18.8334 16.2916V18.3333H22.1667ZM12.1667 17.7833V19.0083C13.025 19.7666 15.825 20.3416 18.8334 20.5083V25H22.1667V20.5C25.1665 20.35 27.9749 19.7666 28.8334 19.0083V16.5665C27.9749 15.8082 25.1665 15.2249 22.1667 15.0666V13.3333H27.1667V10.8333H13.8334V13.3333H18.8334V15.0666C15.825 15.2249 13.025 15.8082 12.1667 16.5665V17.7833Z" fill="#009393"/>
</svg>
