<svg width="41" height="40" viewBox="0 0 41 40" fill="none" xmlns="http://www.w3.org/2000/svg">
<path d="M0.5 20C0.5 8.95431 9.45431 0 20.5 0C31.5457 0 40.5 8.95431 40.5 20C40.5 31.0457 31.5457 40 20.5 40C9.45431 40 0.5 31.0457 0.5 20Z" fill="#0C4A6E"/>
<path d="M21.9892 21.523L21.0169 24.1732C20.9872 24.2482 20.9872 24.3317 21.0169 24.4066L22.6837 28.9737L24.6227 27.8624L22.3003 21.523C22.2883 21.4916 22.2669 21.4645 22.2391 21.4455C22.2114 21.4264 22.1785 21.4162 22.1448 21.4162C22.1111 21.4162 22.0781 21.4264 22.0504 21.4455C22.0226 21.4645 22.0012 21.4916 21.9892 21.523ZM23.9338 17.0561C23.9217 17.0246 23.9003 16.9976 23.8726 16.9785C23.8449 16.9594 23.8119 16.9492 23.7782 16.9492C23.7445 16.9492 23.7116 16.9594 23.6838 16.9785C23.6561 16.9976 23.6347 17.0246 23.6227 17.0561L22.6504 19.7062C22.6207 19.7812 22.6207 19.8647 22.6504 19.9396L25.3894 27.418L27.323 26.3067L23.9338 17.0505V17.0561Z" fill="white"/>
<path d="M20.4999 11.1168C20.5499 11.1168 20.5944 11.1279 20.6389 11.1556L28.1395 15.5171C28.1815 15.5413 28.2163 15.5761 28.2407 15.6181C28.2651 15.66 28.278 15.7075 28.2783 15.756V24.24C28.278 24.2885 28.2651 24.336 28.2407 24.3779C28.2163 24.4199 28.1815 24.4547 28.1395 24.4789L20.6389 28.8571C20.5965 28.881 20.5487 28.8934 20.4999 28.8934C20.4513 28.8934 20.4035 28.881 20.3611 28.8571L12.8604 24.4845C12.8185 24.4602 12.7836 24.4255 12.7592 24.3835C12.7348 24.3416 12.7218 24.294 12.7216 24.2455V15.756C12.7216 15.656 12.7771 15.5671 12.8604 15.5171L20.3611 11.1556C20.4024 11.1285 20.4505 11.1131 20.4999 11.1112V11.1168ZM20.4999 10C20.2388 10 19.9721 10.0722 19.7388 10.2056L12.3715 14.4448C12.1408 14.5774 11.949 14.7683 11.8154 14.9985C11.6817 15.2286 11.611 15.4899 11.6104 15.756V24.24C11.6104 24.7789 11.8993 25.2845 12.3715 25.5567L19.7388 29.7959C19.9702 29.9296 20.2327 30 20.4999 30C20.7672 30 21.0297 29.9296 21.2612 29.7959L28.6283 25.5567C28.8606 25.4246 29.0537 25.233 29.1875 25.0016C29.3212 24.7702 29.391 24.5073 29.3896 24.24V15.756C29.3896 15.2171 29.1006 14.7115 28.6283 14.4448L21.2612 10.2056C21.0278 10.0722 20.761 10 20.4999 10Z" fill="#9DCCED"/>
<path d="M15.6274 27.4291L16.3053 25.579L17.6665 26.7069L16.3942 27.8737L15.6274 27.4291Z" fill="#213147"/>
<path d="M19.8835 15.0005H18.0111C17.942 15.0015 17.875 15.024 17.8193 15.0648C17.7636 15.1056 17.7219 15.1628 17.7 15.2283L13.6997 26.3014L15.6276 27.4292L20.0391 15.2338C20.078 15.1227 20.0002 15.0005 19.8779 15.0005H19.8835ZM23.1504 15.0005H21.2836C21.2152 15.0011 21.1487 15.0228 21.0931 15.0626C21.0374 15.1023 20.9953 15.1582 20.9725 15.2227L16.3944 27.8571L18.3278 28.9849L23.306 15.2283C23.316 15.203 23.3196 15.1756 23.3166 15.1485C23.3135 15.1215 23.3039 15.0956 23.2886 15.0732C23.2732 15.0507 23.2526 15.0323 23.2286 15.0196C23.2045 15.007 23.1777 15.0004 23.1504 15.0005Z" fill="white"/>
</svg>
