<svg width="41" height="40" viewBox="0 0 41 40" fill="none" xmlns="http://www.w3.org/2000/svg">
<path d="M0.5 20C0.5 8.95431 9.45431 0 20.5 0C31.5457 0 40.5 8.95431 40.5 20C40.5 31.0457 31.5457 40 20.5 40C9.45431 40 0.5 31.0457 0.5 20Z" fill="black"/>
<path fill-rule="evenodd" clip-rule="evenodd" d="M12.0773 10.2064C12.1533 10.1227 12.2504 10.0609 12.3585 10.0277C12.4666 9.99452 12.5817 9.99107 12.6916 10.0178L25.9175 13.2559C25.9969 13.2743 26.0717 13.3092 26.1369 13.3583L28.828 15.321C28.9588 15.4174 29.0471 15.5605 29.0746 15.7205C29.1021 15.8806 29.0667 16.045 28.9757 16.1795L19.7177 29.7257C19.6526 29.8217 19.5621 29.8976 19.4564 29.9451C19.3506 29.9925 19.2338 30.0098 19.1188 29.9947C19.0038 29.9798 18.8953 29.9331 18.8054 29.86C18.7154 29.787 18.6474 29.6903 18.6091 29.5809L11.9515 10.8368C11.9142 10.7303 11.9061 10.6158 11.9282 10.5051C11.9504 10.3945 12.0019 10.2918 12.0773 10.2079M14.2594 13.5893L18.8811 26.6017L19.6417 19.8593L14.2594 13.5893ZM20.879 20.0758L20.1068 26.9366L26.6444 17.37L20.879 20.0758ZM27.2338 15.7086L23.0202 17.686L25.8444 14.6965L27.2338 15.7086ZM24.572 14.2168L14.2902 11.7012L20.3188 18.7214L24.572 14.2168Z" fill="#B91C1C"/>
</svg>
