<svg width="41" height="40" viewBox="0 0 41 40" fill="none" xmlns="http://www.w3.org/2000/svg">
<path d="M0.5 20C0.5 8.95431 9.45431 0 20.5 0C31.5457 0 40.5 8.95431 40.5 20C40.5 31.0457 31.5457 40 20.5 40C9.45431 40 0.5 31.0457 0.5 20Z" fill="#0A0A0A"/>
<path d="M13.64 20.9427C13.4414 19.3798 13.7425 17.7941 14.5 16.4127C15.0916 15.3306 15.9554 14.4217 17.0059 13.7757C18.0389 13.1416 19.2244 12.7991 20.4365 12.7845C21.6482 12.7725 22.8404 13.0893 23.8865 13.701L25.4706 12.8592C24.2207 11.9083 22.7255 11.3339 21.1606 11.2033C19.6006 11.0772 18.0371 11.4021 16.6565 12.1392C15.2535 12.891 14.0863 14.017 13.2847 15.3921C12.351 16.9878 11.9248 18.8297 12.0629 20.6733C12.0861 20.988 12.0192 21.3029 11.87 21.581C11.7212 21.8574 11.4976 22.081 11.2271 22.2251L10.5 22.6115V24.4145L30.5 13.7857V11.9839L13.64 20.9427ZM30.5 15.5892L14.7118 23.9726L10.5 26.2121V28.0133L27.3641 19.0515C27.4035 19.3668 27.4229 19.6838 27.4229 20.0016C27.4236 21.2568 27.1077 22.4918 26.5047 23.5927C25.9124 24.6761 25.0474 25.5859 23.9952 26.2321C22.9607 26.8664 21.7735 27.2083 20.56 27.2215C19.3518 27.2333 18.1618 26.9151 17.1076 26.2986L17.0229 26.3456L15.5288 27.1398C16.7782 28.0906 18.2731 28.6652 19.8376 28.7962C21.3977 28.9225 22.961 28.5979 24.3418 27.8609C25.7447 27.1099 26.9119 25.9847 27.7141 24.6103C28.6494 23.0131 29.076 21.1689 28.9371 19.3233C28.914 19.0088 28.981 18.6942 29.1299 18.4163C29.2758 18.1429 29.4994 17.9188 29.7723 17.7722L30.5 17.3857V15.5892Z" fill="white"/>
</svg>
