<svg width="41" height="40" viewBox="0 0 41 40" fill="none" xmlns="http://www.w3.org/2000/svg">
<path d="M0.5 20C0.5 8.95431 9.45431 0 20.5 0C31.5457 0 40.5 8.95431 40.5 20C40.5 31.0457 31.5457 40 20.5 40C9.45431 40 0.5 31.0457 0.5 20Z" fill="#FACC15"/>
<path d="M15.0447 13.0611L20.5002 10L25.9558 13.0611L23.9558 14.1945L20.5002 12.2611L17.0502 14.1945L15.0447 13.0611ZM25.9558 16.9278L23.9558 15.7944L20.5002 17.7278L17.0502 15.7944L15.0447 16.9278V19.1889L18.4891 21.1222V24.9833L20.5002 26.1167L22.5059 24.9833V21.1222L25.9558 19.1889V16.9278ZM25.9558 23.0556V20.7889L23.9558 21.9223V24.1834L25.9558 23.0556ZM27.3836 23.8556L23.9336 25.7834V28.05L29.3892 24.9833V18.8612L27.3836 19.989V23.8556ZM25.3781 14.9945L27.378 16.1278V18.3889L29.3892 17.2611V14.9945L27.3836 13.8611L25.3781 15V14.9945ZM18.4891 26.6055V28.8666L20.5002 30L22.5059 28.8666V26.6111L20.5002 27.7389L18.4947 26.6055H18.4891ZM15.0447 23.05L17.0447 24.1834V21.9223L15.0447 20.7889V23.0556V23.05ZM18.4891 14.9945L20.5002 16.1278L22.5059 14.9945L20.5002 13.8611L18.4947 15L18.4891 14.9945ZM13.6169 16.1278L15.6224 14.9945L13.6224 13.8611L11.6113 15V17.2667L13.6169 18.3945V16.1333V16.1278ZM13.6169 19.989L11.6113 18.8612V24.9833L17.0669 28.05V25.7778L13.6224 23.85V19.9834L13.6169 19.989Z" fill="white"/>
</svg>
