<svg width="41" height="40" viewBox="0 0 41 40" fill="none" xmlns="http://www.w3.org/2000/svg">
<path d="M0.5 20C0.5 8.95431 9.45431 0 20.5 0C31.5457 0 40.5 8.95431 40.5 20C40.5 31.0457 31.5457 40 20.5 40C9.45431 40 0.5 31.0457 0.5 20Z" fill="#00EC97"/>
<path d="M26.5284 11.0217L22.3499 17.2216C22.0642 17.6501 22.6214 18.1501 23.0214 17.8001L26.6642 14.2288C26.7714 14.1359 26.9284 14.2002 26.9284 14.3573V25.5359C26.9284 25.6859 26.7284 25.75 26.6427 25.6429L14.6714 10.7574C14.476 10.5168 14.2285 10.3237 13.9476 10.1925C13.6668 10.0614 13.3599 9.99564 13.05 10.0002C11.7643 10.0002 10.5 10.6502 10.5 12.1359V27.8572C10.5027 28.3203 10.6559 28.7702 10.9365 29.1387C11.2172 29.5072 11.61 29.7745 12.0558 29.9003C12.5016 30.026 12.9762 30.0035 13.4081 29.8358C13.8399 29.6683 14.2056 29.365 14.45 28.9715L18.6214 22.7716C18.9071 22.3429 18.3571 21.8429 17.9571 22.1929L14.3357 25.8359C14.2285 25.9287 14.0714 25.8644 14.0714 25.7072V14.5573C14.0714 14.4002 14.2714 14.3431 14.3571 14.4502L26.307 29.2428C26.707 29.7358 27.307 30 27.9283 30C29.2213 30 30.4998 29.3572 30.4998 27.8644V12.1431C30.4992 11.6762 30.346 11.2223 30.0638 10.8504C29.7815 10.4785 29.3853 10.209 28.9358 10.0828C28.4863 9.95669 28.0078 9.98084 27.5734 10.1516C27.1387 10.3224 26.7719 10.6304 26.5284 11.0288V11.0217Z" fill="black"/>
</svg>
