<svg width="41" height="40" viewBox="0 0 41 40" fill="none" xmlns="http://www.w3.org/2000/svg">
<path fill-rule="evenodd" clip-rule="evenodd" d="M20.4999 36.6667C29.7394 36.6667 37.1667 29.2394 37.1667 19.9999C37.1667 10.7604 29.7394 3.33337 20.4999 3.33337C11.2604 3.33337 3.83337 10.7604 3.83337 19.9999C3.83337 29.2394 11.2604 36.6667 20.4999 36.6667ZM25.0839 22.6344C25.0839 20.2075 23.6255 19.374 20.7089 19.0304C18.6257 18.7492 18.2092 18.197 18.2092 17.2179C18.2092 16.2491 18.9069 15.6242 20.2924 15.6242C21.5424 15.6242 22.2402 16.0408 22.584 17.0825C22.657 17.2909 22.8654 17.4262 23.0737 17.4262H24.1779C24.459 17.4262 24.6674 17.2179 24.6674 16.9469V16.874C24.3862 15.3428 23.136 13.8846 21.5424 13.7491V12.2179C21.5424 11.9367 21.334 11.7283 20.9904 11.6658H20.0735C19.7924 11.6658 19.532 11.8741 19.4592 12.2179V13.7491C17.3757 14.0304 15.9903 15.6242 15.9903 17.3637C15.9903 19.6554 17.3757 20.5512 20.2924 20.9054C22.2402 21.249 22.8654 21.6659 22.8654 22.7802C22.8654 23.8844 21.886 24.6554 20.5735 24.6554C18.761 24.6554 18.1362 23.8844 17.9279 22.843C17.8652 22.572 17.6569 22.4262 17.4485 22.4262H16.2611C15.9903 22.4262 15.782 22.6344 15.782 22.9159V22.9889C16.0528 24.7179 17.1674 25.9054 19.4592 26.2492V27.7909C19.4592 28.072 19.6675 28.2594 20.0112 28.3324H21.011C21.282 28.3324 21.4695 28.145 21.5424 27.7909V26.2492C23.6255 25.9054 25.0839 24.5095 25.0839 22.6344ZM13.4869 27.8234C14.4941 28.7467 15.6741 29.4614 16.9589 29.9259C17.1674 30.0717 17.3757 30.3427 17.3757 30.551V31.53C17.3757 31.6655 17.3757 31.7385 17.3027 31.801C17.2404 32.0822 16.9589 32.2175 16.6777 32.0822C14.1499 31.2777 11.9435 29.69 10.3778 27.5487C8.81206 25.4074 7.96814 22.8235 7.96814 20.1709C7.96814 17.518 8.81206 14.9341 10.3778 12.7928C11.9435 10.6514 14.1499 9.06372 16.6777 8.25934C16.7506 8.19682 16.8859 8.19682 16.9589 8.19682C17.2404 8.25934 17.3757 8.46766 17.3757 8.74892V9.71767C17.3757 10.0718 17.2404 10.2802 16.9589 10.4156C14.1152 11.4572 11.8236 13.676 10.7819 16.5926C10.3056 17.8732 10.0877 19.2355 10.1408 20.6007C10.1939 21.966 10.5169 23.3072 11.0912 24.5467C11.6655 25.7865 12.4798 26.9002 13.4869 27.8234ZM23.6985 8.54057C23.761 8.25934 24.0422 8.12391 24.3234 8.25934C26.2329 8.87994 27.9664 9.94764 29.3794 11.3736C30.7929 12.7995 31.845 14.5425 32.4485 16.4572C34.5317 23.051 30.9172 30.0717 24.3234 32.155C24.2505 32.2175 24.1152 32.2175 24.0422 32.2175C23.761 32.155 23.6255 31.9469 23.6255 31.6655V30.6969C23.6255 30.3427 23.761 30.1344 24.0422 29.9987C26.8859 28.9572 29.1777 26.7384 30.2194 23.8217C30.6955 22.5414 30.9135 21.179 30.8604 19.8137C30.8074 18.4485 30.4844 17.1074 29.91 15.8675C29.3357 14.6279 28.5215 13.5143 27.5142 12.591C26.5072 11.6677 25.3272 10.9531 24.0422 10.4885C23.8339 10.3427 23.6255 10.0718 23.6255 9.79059V8.82184C23.6255 8.67601 23.6255 8.61349 23.6985 8.54057Z" fill="#2775CA"/>
</svg>
