<svg width="41" height="40" viewBox="0 0 41 40" fill="none" xmlns="http://www.w3.org/2000/svg">
<path d="M0.5 20C0.5 8.95431 9.45431 0 20.5 0C31.5457 0 40.5 8.95431 40.5 20C40.5 31.0457 31.5457 40 20.5 40C9.45431 40 0.5 31.0457 0.5 20Z" fill="#A3E635"/>
<path d="M22.5893 12.9737C22.3968 12.5828 22.0986 12.2536 21.7287 12.0234C21.3588 11.7931 20.9316 11.6711 20.4959 11.6711C20.0602 11.6711 19.6332 11.7931 19.2631 12.0234C18.8932 12.2536 18.595 12.5828 18.4025 12.9737L12.0824 24.954C11.9035 25.3104 11.819 25.7066 11.8368 26.105C11.8546 26.5032 11.9741 26.8904 12.1841 27.2294C12.394 27.5684 12.6873 27.8479 13.036 28.0413C13.3846 28.2346 13.777 28.3354 14.1758 28.3342H26.8161C27.2148 28.3354 27.6071 28.2346 27.9559 28.0413C28.3045 27.8479 28.5977 27.5684 28.8077 27.2294C29.0178 26.8904 29.1372 26.5032 29.1551 26.105C29.1728 25.7066 29.0884 25.3104 28.9095 24.954L22.5893 12.9737ZM17.2092 12.3737C17.5123 11.7609 17.9807 11.245 18.5614 10.8843C19.1422 10.5237 19.8122 10.3325 20.4959 10.3325C21.1796 10.3325 21.8496 10.5237 22.4304 10.8843C23.0111 11.245 23.4795 11.7609 23.7827 12.3737L30.1095 24.354C30.3912 24.9144 30.5243 25.5375 30.4963 26.1641C30.4685 26.7906 30.2803 27.3994 29.9499 27.9325C29.6195 28.4656 29.1579 28.9049 28.6093 29.2087C28.0606 29.5125 27.4432 29.6704 26.8161 29.6675H14.1758C13.55 29.6667 12.9348 29.5065 12.3882 29.2017C11.8416 28.8971 11.3818 28.458 11.0521 27.9261C10.7225 27.3943 10.5339 26.7871 10.5042 26.1621C10.4744 25.5371 10.6046 24.9148 10.8823 24.354L17.2092 12.3804V12.3737Z" fill="white"/>
</svg>
