<svg width="41" height="40" viewBox="0 0 41 40" fill="none" xmlns="http://www.w3.org/2000/svg">
<path d="M20.5 0.5C31.2696 0.5 40 9.23045 40 20C40 30.7696 31.2696 39.5 20.5 39.5C9.73045 39.5 1 30.7696 1 20C1 9.23045 9.73045 0.5 20.5 0.5Z" fill="#F5F5F5"/>
<path d="M20.5 0.5C31.2696 0.5 40 9.23045 40 20C40 30.7696 31.2696 39.5 20.5 39.5C9.73045 39.5 1 30.7696 1 20C1 9.23045 9.73045 0.5 20.5 0.5Z" stroke="#A3A3A3"/>
<path d="M20.5276 9.20007L20.3828 9.69216V23.9714L20.5276 24.1159L27.1558 20.1979L20.5276 9.20007Z" fill="#343434"/>
<path d="M20.5277 9.20007L13.8994 20.1979L20.5277 24.1159V17.1852V9.20007Z" fill="#8C8C8C"/>
<path d="M20.5274 25.3709L20.4458 25.4704V30.5569L20.5274 30.7953L27.1596 21.455L20.5274 25.3709Z" fill="#3C3C3B"/>
<path d="M20.5277 30.7953V25.3709L13.8994 21.455L20.5277 30.7953Z" fill="#8C8C8C"/>
<path d="M20.5278 24.1159L27.156 20.198L20.5278 17.1853V24.1159Z" fill="#141414"/>
<path d="M13.8994 20.198L20.5276 24.1159V17.1853L13.8994 20.198Z" fill="#393939"/>
</svg>
