<svg width="41" height="40" viewBox="0 0 41 40" fill="none" xmlns="http://www.w3.org/2000/svg">
<path d="M0.5 20C0.5 8.95431 9.45431 0 20.5 0C31.5457 0 40.5 8.95431 40.5 20C40.5 31.0457 31.5457 40 20.5 40C9.45431 40 0.5 31.0457 0.5 20Z" fill="#FDE68A"/>
<g opacity="0.8">
<path d="M17.3104 10.5137L17.0616 10.3381C17.0469 10.3274 17.0293 10.3212 17.0112 10.3204C16.993 10.3196 16.975 10.3242 16.9594 10.3335C16.9438 10.3429 16.9313 10.3566 16.9234 10.3731C16.9156 10.3895 16.9127 10.4078 16.9153 10.4259L16.9543 10.6698L16.9299 11.6453C16.9295 11.671 16.919 11.6956 16.9006 11.7136L16.8762 11.738C16.8545 11.7593 16.8393 11.7864 16.8323 11.816C16.7592 12.1184 16.686 12.4306 16.6226 12.7428C16.604 12.8237 16.5635 12.8979 16.5055 12.9574L16.2958 13.1818C16.0324 13.4647 16.0665 13.5135 16.408 13.3281C16.6665 13.1818 16.925 13.011 17.1982 12.8062C17.286 12.7379 17.4421 12.7184 17.6518 12.7428C17.6908 12.7477 17.725 12.7623 17.7493 12.7916C17.8372 12.8842 17.9298 12.9525 18.0323 13.011C18.0664 13.0257 18.0859 13.0598 18.0908 13.0989C18.1152 13.2647 18.0908 13.4403 17.9738 13.5671C17.7576 13.8121 17.6395 14.1282 17.642 14.4549C17.642 14.5036 17.6225 14.5378 17.5835 14.5622C17.3348 14.7085 17.3201 14.9865 17.1153 15.1816C17.0177 15.2694 16.9201 15.3475 16.8128 15.4158L16.7933 14.7622C16.7927 14.7419 16.788 14.7219 16.7795 14.7035C16.771 14.685 16.7589 14.6685 16.7439 14.6548C16.7289 14.6412 16.7113 14.6307 16.6921 14.624C16.6729 14.6173 16.6526 14.6145 16.6324 14.6158C16.5543 14.6158 16.4763 14.6646 16.408 14.7426C16.2373 14.9524 16.0178 15.1133 15.7544 15.2158C15.5495 15.2645 15.4129 15.4255 15.33 15.7035C15.291 15.8011 15.2325 15.8987 15.1495 15.9865C15.1739 15.5426 14.9739 15.3426 14.5496 15.3865C14.4569 15.3963 14.3106 15.484 14.1106 15.6548C14.0851 15.6779 14.068 15.7087 14.0618 15.7426C14.0033 16.0157 13.8521 16.2108 13.5936 16.3279C13.5106 16.3474 13.4716 16.3084 13.4765 16.2255C13.4765 16.2108 13.4765 16.2011 13.4862 16.1864C13.8082 15.5767 13.813 14.85 14.374 14.3622C14.524 14.2226 14.6974 14.1103 14.8861 14.0305C15.8568 13.6891 16.3641 13.0501 16.4129 12.0989L16.4421 11.1429C16.4486 10.7973 16.5028 10.4542 16.6031 10.1234C16.6166 10.0799 16.6466 10.0433 16.6867 10.0214C16.7268 9.99959 16.7737 9.9942 16.8177 10.0064L17.086 10.0796C17.1201 10.0893 17.1445 10.1088 17.1592 10.143L17.3055 10.5137H17.3104Z" fill="white"/>
<path d="M17.3104 10.5136L17.4908 10.7234C17.764 11.0989 17.9883 11.5038 18.1737 11.933C18.2322 12.0745 18.3737 12.2257 18.6078 12.3964C18.7395 12.4988 18.6078 12.5525 18.203 12.5427C17.9154 12.3042 17.674 12.0149 17.4908 11.6891C17.4237 11.578 17.3836 11.4527 17.3738 11.3233C17.3588 11.1129 17.2647 10.9159 17.1104 10.7721C17.1018 10.7638 17.0911 10.7581 17.0795 10.7556C17.0678 10.7531 17.0557 10.7539 17.0445 10.758C17.0333 10.7621 17.0235 10.7692 17.0161 10.7786C17.0088 10.788 17.0043 10.7993 17.0031 10.8112L16.9982 10.9282C16.964 10.8599 16.9494 10.7721 16.9494 10.6746L16.9201 10.4258C16.9184 10.4086 16.9215 10.3912 16.9292 10.3756C16.9369 10.36 16.9487 10.3469 16.9635 10.3378C16.9782 10.3286 16.9952 10.3238 17.0126 10.3239C17.0299 10.3239 17.0469 10.3288 17.0616 10.338L17.3055 10.5136H17.3104Z" fill="#B87C29"/>
<path d="M24.9928 10.7137C24.8904 10.7234 24.8368 10.7917 24.8464 10.9088C24.8464 11.0941 24.9441 11.2209 24.9441 11.3965C24.9441 11.5087 24.9392 11.616 24.9294 11.7282C24.91 11.9867 25.1343 12.2257 25.2026 12.4696C25.3001 12.8013 25.3197 13.0989 25.2709 13.3525C25.222 13.6013 25.1879 13.8598 25.1635 14.1329C25.16 14.194 25.1438 14.2537 25.1162 14.3083C25.0885 14.3628 25.0498 14.4111 25.0026 14.45C24.9885 14.4614 24.9788 14.4774 24.9753 14.4952C24.9718 14.5131 24.9745 14.5315 24.983 14.5475L25.0124 14.5768C25.1343 14.65 25.2173 14.7524 25.2562 14.8792C25.2593 14.8915 25.2662 14.9024 25.276 14.9104C25.2858 14.9184 25.2978 14.9231 25.3105 14.9236C25.3231 14.9242 25.3356 14.9206 25.346 14.9135C25.3564 14.9064 25.3643 14.896 25.3684 14.8841C25.4221 14.7768 25.4465 14.6695 25.4416 14.5622C25.4904 14.6109 25.5245 14.6597 25.5293 14.689C25.627 14.9573 25.744 15.2207 25.8708 15.4694C26.0073 15.7475 26.0903 15.9816 26.1294 16.1767C26.2122 16.5962 26.2659 17.0157 26.2903 17.4303C26.3001 17.6303 26.3586 17.9327 26.4366 18.1132C26.6464 18.6399 26.7927 19.1717 26.8756 19.718V20.8106C26.8707 20.8447 26.8805 20.8789 26.9049 20.9081C27.0269 21.069 27.0561 21.2641 27.0024 21.4934C26.9781 21.6007 27.0024 21.6885 27.0756 21.7519C27.1097 21.7812 27.1244 21.8153 27.1244 21.8592C27.1146 22.0592 27.0463 22.2299 26.9245 22.3714C26.8268 22.4738 26.7634 22.5908 26.7196 22.7128C26.6025 23.0688 26.3635 23.4006 25.9879 23.4933C25.9293 23.5078 25.8786 23.5446 25.8464 23.5957C25.6953 23.8494 25.6513 24.0737 25.3391 24.1908C25.3239 24.1973 25.3071 24.1995 25.2907 24.1968C25.2743 24.1942 25.2589 24.1871 25.2465 24.1761C25.1586 24.1127 25.0611 24.1273 24.9538 24.2103C25.0172 23.9664 25.1001 23.7225 25.2075 23.4933C25.2611 23.3761 25.3343 23.2689 25.4269 23.1713C25.5928 22.986 25.6415 22.7519 25.5733 22.4591C25.5696 22.4398 25.5698 22.4199 25.5741 22.4005C25.5782 22.3813 25.5862 22.3631 25.5976 22.347C25.7636 22.108 25.8562 21.8592 26.0464 21.6251C26.2171 21.4105 26.3001 21.1666 26.2903 20.8836C26.2903 20.8755 26.2879 20.8676 26.2836 20.8608C26.2794 20.8538 26.2732 20.8482 26.2659 20.8447H26.2367C26.2291 20.8478 26.2223 20.8528 26.2171 20.8593C25.9245 21.1764 25.5293 21.3665 25.2903 21.7372C24.983 22.225 24.6123 22.6348 24.1783 22.9811C24.1051 23.0396 24.0758 23.1177 24.0807 23.2152C24.11 23.4444 24.0807 23.6981 24.388 23.703C24.4367 23.7079 24.4563 23.7323 24.4563 23.7762C24.4563 23.8737 24.427 23.9615 24.3733 24.0347C24.2274 24.2429 24.0859 24.4544 23.949 24.6688C23.9489 24.6848 23.9549 24.7002 23.9658 24.712C23.9767 24.7237 23.9916 24.731 24.0075 24.7322L24.0856 24.7371C23.9977 24.7858 23.9198 24.8492 23.8125 24.859C23.5197 24.8883 23.3295 24.8443 23.2417 24.7371C23.4076 24.5274 23.5588 24.3615 23.6904 24.2346C23.8368 24.1078 23.8856 23.942 23.8661 23.7566C23.8655 23.7464 23.8628 23.7364 23.8583 23.7271C23.8538 23.7179 23.8475 23.7096 23.8398 23.7028C23.8321 23.6961 23.8232 23.6908 23.8134 23.6875C23.8037 23.6842 23.7934 23.6829 23.7832 23.6834C23.71 23.6932 23.6466 23.7128 23.5783 23.742C23.5665 23.7481 23.5533 23.7507 23.5401 23.7494C23.5269 23.7481 23.5144 23.7431 23.5041 23.7348C23.4938 23.7265 23.486 23.7154 23.4819 23.7028C23.4777 23.6903 23.4774 23.6767 23.4807 23.664C23.5052 23.5664 23.5101 23.4591 23.5003 23.3567C23.4954 23.3274 23.5003 23.3031 23.5148 23.2786L23.7832 22.8251C23.7858 22.8212 23.7878 22.8169 23.7887 22.8123C23.7897 22.8078 23.7897 22.8031 23.7888 22.7985C23.7879 22.794 23.7861 22.7895 23.7834 22.7858C23.7808 22.7819 23.7774 22.7787 23.7734 22.7762C23.7673 22.7711 23.7595 22.7683 23.7515 22.7683C23.7434 22.7683 23.7356 22.7711 23.7295 22.7762C23.549 22.9567 23.3539 23.0688 23.1441 23.1079C23.1003 23.1177 23.0759 23.0982 23.0613 23.0592L23.0515 23.0201L23.0564 23.0152C23.1832 22.9664 23.2856 22.903 23.3588 22.8202C23.4234 22.7421 23.458 22.6434 23.4563 22.5421C23.4563 22.2446 23.8856 21.8738 24.0856 21.6738C24.1154 21.6445 24.1377 21.6082 24.1505 21.5682C24.1632 21.5284 24.1661 21.4859 24.1588 21.4446C24.1236 21.267 24.0959 21.088 24.0758 20.9081C24.0709 20.8447 24.0953 20.8008 24.149 20.7764C24.1638 20.7679 24.1809 20.7645 24.1977 20.7666C24.2124 20.7666 24.2271 20.7764 24.2416 20.7861L24.2807 20.8251C24.3148 20.8544 24.3441 20.8495 24.3637 20.8106L24.5392 20.5178C24.5488 20.5 24.5522 20.4794 24.5489 20.4593C24.5002 20.1179 24.5978 19.835 24.8319 19.6252C24.91 19.5277 24.9538 19.4203 24.9587 19.2935C24.9605 19.2757 24.9568 19.2577 24.9481 19.242C24.9393 19.2263 24.926 19.2136 24.91 19.2058L24.7636 19.1081C24.7466 19.0986 24.733 19.0842 24.7243 19.0668C24.7156 19.0495 24.7123 19.03 24.7148 19.0106C24.7343 18.8644 24.7879 18.7375 24.8758 18.6205C24.8953 18.596 24.8953 18.5716 24.8709 18.5522C24.7587 18.4643 24.6757 18.2449 24.7734 18.1132C24.7977 18.0742 24.8172 18.0302 24.8221 17.9863C24.8253 17.9734 24.8253 17.96 24.8219 17.9472C24.8185 17.9344 24.8117 17.9227 24.8026 17.9132C24.6563 17.7766 24.627 17.6303 24.7197 17.4693C24.7343 17.4351 24.7343 17.4059 24.7099 17.3815L24.4709 17.1327C24.4615 17.1232 24.4545 17.1116 24.4503 17.099C24.4461 17.0863 24.4448 17.0728 24.4465 17.0596C24.4496 17.0244 24.4455 16.9891 24.4346 16.9556C24.4237 16.9221 24.4062 16.8911 24.3831 16.8644C24.3786 16.8584 24.3726 16.8535 24.3659 16.8501C24.3591 16.8467 24.3517 16.8449 24.3441 16.8449C24.3355 16.846 24.3275 16.8492 24.3206 16.8543C24.3138 16.8595 24.3085 16.8663 24.305 16.8742C24.2709 16.962 24.2271 17.04 24.1734 17.1181L24.1441 17.1278C24.1198 17.1278 24.11 17.1132 24.1149 17.0888L24.1636 16.8449C24.1734 16.8059 24.1588 16.7815 24.1149 16.7815L23.7538 16.7669C23.7452 16.7666 23.7365 16.7686 23.7289 16.7728C23.7213 16.7769 23.7149 16.7831 23.7104 16.7905C23.7059 16.798 23.7035 16.8065 23.7034 16.8152C23.7034 16.824 23.7056 16.8325 23.71 16.8401L23.8417 17.0352C23.8459 17.0416 23.8485 17.0489 23.8493 17.0565C23.8502 17.0642 23.8492 17.0719 23.8466 17.0791C23.8436 17.0863 23.839 17.0928 23.8331 17.0979C23.8271 17.103 23.8201 17.1066 23.8125 17.1083C23.7692 17.1167 23.7244 17.1098 23.6856 17.0888L23.3637 16.9279C23.3301 16.9124 23.2932 16.9057 23.2564 16.9083L23.0125 16.923C22.9589 16.923 22.9247 16.9035 22.9149 16.8547L22.9002 16.8157C22.8957 16.7967 22.8841 16.7802 22.8678 16.7693C22.8515 16.7585 22.8318 16.7541 22.8125 16.7571C22.4913 16.8213 22.1618 16.8328 21.837 16.7913C21.8095 16.7882 21.7817 16.7936 21.7573 16.8066C21.7329 16.8197 21.7131 16.8399 21.7004 16.8644C21.502 17.2499 21.2245 17.589 20.8857 17.8595C20.7785 17.9424 20.6565 17.9814 20.5346 18.0253C20.4971 18.0375 20.4634 18.0594 20.4371 18.0887C20.237 18.3132 20.0566 18.2594 19.7835 18.2545C19.4907 18.2498 19.2079 18.2351 18.925 18.2204C18.8672 18.179 18.8002 18.1522 18.7299 18.1424C18.7108 18.1393 18.6933 18.1299 18.6801 18.1158C18.6667 18.1017 18.6585 18.0836 18.6567 18.0644C18.632 17.7869 18.5454 17.5185 18.403 17.279C18.3952 17.2629 18.3825 17.2496 18.3668 17.2409C18.3511 17.2321 18.3332 17.2284 18.3153 17.2303C18.2981 17.2318 18.2817 17.2381 18.2679 17.2484C18.2542 17.2588 18.2435 17.2728 18.2372 17.2888L18.0665 17.7376C18.0602 17.7543 18.0499 17.7692 18.0364 17.7809C18.0229 17.7926 18.0067 17.8008 17.9893 17.8047C17.9718 17.8086 17.9537 17.808 17.9365 17.8031C17.9193 17.7982 17.9036 17.7891 17.8909 17.7766C17.8744 17.7593 17.864 17.737 17.8616 17.7132L17.8177 17.4303C17.8111 17.3853 17.7996 17.3411 17.7835 17.2986L17.686 17.0303C17.6806 17.0159 17.6806 17.0001 17.686 16.9858C17.6914 16.9714 17.7018 16.9595 17.7153 16.9522C17.7245 16.9483 17.7346 16.9467 17.7445 16.9474H17.808C17.8422 16.9474 17.8616 16.9327 17.8763 16.8986C17.9348 16.7132 18.0177 16.5328 18.1104 16.362C18.1443 16.3024 18.1619 16.2349 18.161 16.1663C18.1602 16.0977 18.141 16.0305 18.1055 15.9718C18.0859 15.9377 18.0567 15.9328 18.0274 15.9621C17.7982 16.1572 17.608 16.3669 17.4519 16.5669C17.4031 16.6401 17.369 16.6303 17.3543 16.5425C17.3541 16.5191 17.3454 16.4966 17.3299 16.4791C17.3056 16.4596 17.2812 16.4547 17.247 16.4694C16.9495 16.6157 16.7202 16.7864 16.5642 16.9913C16.4991 17.0837 16.4015 17.1481 16.291 17.1717C16.252 17.1766 16.2422 17.162 16.2471 17.123C16.3473 16.8631 16.4749 16.6145 16.6276 16.3815C16.6763 16.3133 16.6568 16.245 16.5788 16.1767C16.5544 16.1474 16.53 16.1474 16.5007 16.1767L16.1349 16.5181C16.134 16.4825 16.1462 16.4479 16.1691 16.4206C16.3154 16.284 16.4276 16.0938 16.5105 15.8548C16.5837 15.8596 16.6276 15.8352 16.6422 15.7816C16.6763 15.6353 16.7397 15.5328 16.8129 15.4158C16.9202 15.3475 17.0226 15.2694 17.1153 15.1816C17.3202 14.9865 17.3348 14.7085 17.5836 14.5622C17.6023 14.5514 17.6176 14.5357 17.628 14.5168C17.6383 14.4978 17.6432 14.4764 17.6421 14.4549C17.6421 14.1134 17.7543 13.8208 17.9738 13.5671C18.0859 13.4354 18.1153 13.2647 18.0908 13.0989C18.089 13.0805 18.0828 13.063 18.0725 13.0476C18.0624 13.0323 18.0485 13.0198 18.0323 13.0111C17.9299 12.9525 17.8373 12.8842 17.7543 12.7916C17.7285 12.7644 17.694 12.7472 17.6568 12.7428C17.4373 12.7184 17.286 12.7428 17.1983 12.8062C16.9251 13.0111 16.6617 13.1867 16.4081 13.3281C16.0666 13.5135 16.0325 13.4647 16.2959 13.1818L16.5056 12.9574C16.5642 12.894 16.6032 12.8208 16.6227 12.7428L16.8324 11.816C16.8394 11.7864 16.8546 11.7593 16.8763 11.738L16.9007 11.7136C16.9191 11.6956 16.9296 11.671 16.93 11.6453L16.9544 10.6698C16.9495 10.7722 16.9641 10.86 16.9983 10.9283C17.0373 11.0258 17.0958 11.099 17.1641 11.138C17.1828 11.1488 17.1982 11.1645 17.2085 11.1834C17.2188 11.2024 17.2237 11.2238 17.2226 11.2453C17.2212 11.2669 17.2134 11.2876 17.2005 11.3049C17.1875 11.3222 17.1698 11.3354 17.1495 11.3429C16.9349 11.4307 16.9544 11.699 17.0861 11.8453C17.2031 11.9819 17.2812 12.1379 17.3056 12.3087C17.3104 12.3672 17.3446 12.4062 17.3982 12.4404C17.6714 12.5867 17.9348 12.6208 18.2031 12.5477C18.603 12.5477 18.7396 12.4989 18.6079 12.4013C19.1444 12.4355 19.6566 12.5087 20.1444 12.6208C20.2907 12.6501 20.4419 12.6696 20.5931 12.6696C20.8761 12.6696 21.1345 12.7477 21.4224 12.772C21.7052 12.7964 21.9881 12.8696 22.2515 12.733C22.3979 12.655 22.5199 12.5477 22.6174 12.416C22.8125 12.416 22.9638 12.3672 23.0759 12.2696C23.1734 12.1867 23.2515 12.0892 23.3198 11.9819C23.3393 11.9575 23.3686 11.9331 23.3929 11.9233C23.6271 11.816 23.7929 11.6404 23.8953 11.3917C23.9587 11.2307 23.9246 11.0502 23.9295 10.8795C23.9299 10.8433 23.9439 10.8085 23.9685 10.7819C24.1977 10.5234 24.7489 10.582 24.9928 10.7137Z" fill="#C89539"/>
<path d="M24.9923 10.7135C25.1874 10.8208 25.3337 11.0159 25.4167 11.2988C25.6494 11.9855 25.7195 12.7169 25.6215 13.4353L25.441 14.562C25.4459 14.6693 25.4216 14.7766 25.3679 14.884C25.3629 14.8942 25.355 14.9028 25.3451 14.9086C25.3353 14.9144 25.324 14.9173 25.3127 14.9167C25.3012 14.9162 25.2902 14.9124 25.2809 14.9057C25.2717 14.899 25.2646 14.8897 25.2605 14.8791C25.2187 14.7505 25.1299 14.6425 25.0119 14.5767C24.9952 14.5674 24.9826 14.5523 24.9762 14.5343C24.97 14.5164 24.9704 14.4967 24.9777 14.4791C24.9833 14.4675 24.9916 14.4574 25.0021 14.4498C25.0996 14.3718 25.1484 14.2645 25.163 14.1328C25.1874 13.8596 25.2215 13.6011 25.2703 13.3523C25.3191 13.0987 25.2996 12.8012 25.202 12.4744C25.1337 12.2305 24.9094 11.9866 24.9289 11.7281L24.9436 11.4013C24.9436 11.2208 24.8459 11.094 24.8459 10.9086C24.8362 10.7915 24.8898 10.7281 24.9923 10.7135ZM18.2074 12.5475C17.9339 12.6199 17.6429 12.5813 17.3977 12.4402C17.3717 12.4282 17.3491 12.4099 17.3321 12.3868C17.315 12.3638 17.3041 12.3369 17.3001 12.3085C17.2758 12.1378 17.2026 11.9817 17.0855 11.8451C16.9587 11.6988 16.9392 11.4305 17.1489 11.3427C17.1692 11.3353 17.1869 11.3221 17.1999 11.3048C17.2129 11.2875 17.2206 11.2668 17.2221 11.2452C17.2232 11.2236 17.2183 11.2022 17.2079 11.1833C17.1976 11.1643 17.1823 11.1486 17.1636 11.1379C17.085 11.09 17.0262 11.0156 16.9977 10.9281L17.0026 10.8111C17.0038 10.7992 17.0083 10.7879 17.0157 10.7785C17.023 10.7691 17.0328 10.762 17.044 10.7579C17.0552 10.7538 17.0674 10.753 17.079 10.7555C17.0907 10.758 17.1014 10.7637 17.1099 10.772C17.2709 10.9281 17.3587 11.1135 17.3733 11.3232C17.3831 11.45 17.4221 11.572 17.4904 11.6891C17.6806 12.0305 17.9196 12.3134 18.2025 12.5475H18.2074Z" fill="#85511C"/>
<path d="M22.9685 12.8353C22.9869 12.8211 23.0089 12.8126 23.032 12.8109C23.1539 12.7963 23.1979 12.845 23.1686 12.9572C23.1602 12.9847 23.143 13.0087 23.1198 13.0255C22.8418 13.2304 22.6954 13.5133 22.6808 13.8694C22.6612 14.1376 22.8515 14.2742 22.8466 14.5327L22.832 14.5766C22.8125 14.5961 22.793 14.6059 22.7686 14.6059C22.6906 14.601 22.6418 14.5571 22.6223 14.4888C22.5833 14.3425 22.5247 14.2059 22.4369 14.084C22.4201 14.0607 22.3961 14.0436 22.3686 14.0352C22.3232 14.0229 22.2817 13.9996 22.2476 13.9672C22.2136 13.9348 22.1881 13.8945 22.1736 13.8498C22.1622 13.8145 22.142 13.7826 22.1149 13.7572L21.8321 13.5133C21.8024 13.4906 21.7787 13.4609 21.7634 13.4269C21.7481 13.3928 21.7415 13.3554 21.7443 13.3182C21.7466 13.3018 21.7548 13.2868 21.7675 13.2761C21.78 13.2653 21.796 13.2595 21.8125 13.2596C21.8272 13.2596 21.837 13.2596 21.8467 13.2694C21.9784 13.3523 22.1149 13.3865 22.2564 13.3767C22.2906 13.3767 22.3198 13.3621 22.3492 13.3377L22.9685 12.8353Z" fill="#B87C29"/>
<path d="M24.6122 13.8649C24.3977 14.3048 24.065 14.6763 23.6513 14.938C23.6338 14.947 23.6134 14.949 23.5944 14.9435C23.5754 14.9381 23.5591 14.9256 23.5489 14.9087L23.4855 14.8014C23.4724 14.7803 23.4534 14.7635 23.4308 14.7531C23.4083 14.7427 23.3833 14.7391 23.3587 14.7429L23.027 14.7867C23.0126 14.7876 22.9981 14.7841 22.9857 14.7767C22.9732 14.7693 22.9632 14.7584 22.9569 14.7454C22.9507 14.7323 22.9484 14.7177 22.9504 14.7033C22.9525 14.689 22.9587 14.6756 22.9684 14.6648C23.1587 14.4843 23.3782 14.2697 23.4562 14.0161C23.5051 13.8649 23.5977 13.7381 23.7294 13.6405C23.7384 13.6343 23.7453 13.6255 23.7492 13.6153C23.7531 13.605 23.7537 13.5939 23.7511 13.5832C23.7484 13.5726 23.7426 13.5631 23.7344 13.5559C23.7261 13.5487 23.7158 13.5442 23.705 13.5429L23.5196 13.5332C23.4983 13.531 23.4785 13.5216 23.4634 13.5065C23.4483 13.4914 23.4388 13.4715 23.4368 13.4503C23.4368 13.3966 23.4562 13.3527 23.5051 13.3137C23.583 13.2503 23.6562 13.1869 23.7196 13.1137C23.7488 13.0776 23.7879 13.0507 23.8319 13.036C23.876 13.0213 23.9233 13.0195 23.9684 13.0308C24.1635 13.0649 24.3683 13.0796 24.583 13.06C24.6171 13.0583 24.6509 13.0679 24.6791 13.0873C24.7074 13.1067 24.7284 13.1348 24.7391 13.1674C24.7733 13.2747 24.7829 13.3868 24.7635 13.4893C24.7439 13.5966 24.6903 13.7234 24.6122 13.8649Z" fill="#85511C"/>
<path d="M17.8761 14.8742C17.9833 14.5425 18.1394 14.1767 18.3492 13.7718C18.3687 13.7328 18.3979 13.723 18.4369 13.7425C18.5003 13.7669 18.5248 13.8157 18.5199 13.884C18.4918 14.1742 18.3912 14.4526 18.2272 14.6937C18.0565 14.9571 18.0663 15.2302 17.9882 15.5229C17.9835 15.5363 17.975 15.5481 17.9637 15.5567C17.9526 15.5654 17.939 15.5706 17.9248 15.5717C17.8809 15.5766 17.8516 15.5668 17.837 15.5375C17.7974 15.4645 17.7805 15.3813 17.7882 15.2985C17.8078 15.1571 17.837 15.0156 17.8761 14.8742Z" fill="#B87C29"/>
<path d="M19.6714 16.0696L19.2032 16.3769C19.0617 16.4354 18.9446 16.4403 18.8373 16.3866C18.652 16.2891 18.6373 16.0403 18.6032 15.855C18.5888 15.7834 18.594 15.7093 18.6179 15.6403C18.6569 15.5233 18.6861 15.4013 18.7007 15.2794C18.7349 14.9721 19.0178 14.7575 19.2861 14.616C19.5348 14.4941 19.7739 14.5331 20.0031 14.7428C20.3202 15.0355 20.1885 15.455 20.1055 15.8159C20.1019 15.8321 20.0933 15.8468 20.0812 15.8581C20.069 15.8694 20.0537 15.8768 20.0372 15.8793C19.8861 15.9086 19.7641 15.972 19.6763 16.0696H19.6714Z" fill="#E1B051"/>
<path d="M16.8126 15.416C16.735 15.5271 16.6772 15.6509 16.6419 15.7818C16.6273 15.8355 16.5834 15.8599 16.5102 15.855C16.4126 15.4404 16.159 15.2306 15.7542 15.2209C16.0176 15.1136 16.237 14.9526 16.4078 14.7429C16.4761 14.6599 16.5541 14.6209 16.6321 14.616C16.6524 14.6147 16.6727 14.6175 16.6919 14.6242C16.711 14.6309 16.7287 14.6414 16.7437 14.655C16.7587 14.6687 16.7708 14.6852 16.7793 14.7037C16.7878 14.7221 16.7925 14.7421 16.7931 14.7624L16.8126 15.416ZM24.8218 15.8111C25.0169 15.7964 25.1389 15.6745 25.1828 15.4404C25.1844 15.434 25.1874 15.428 25.1916 15.423C25.1958 15.4179 25.2011 15.4138 25.2072 15.4111C25.2125 15.4088 25.2183 15.4076 25.2242 15.4076C25.23 15.4076 25.2358 15.4088 25.2413 15.4111L25.2803 15.4257C25.3033 15.436 25.3223 15.4534 25.3346 15.4754C25.3469 15.4974 25.3518 15.5227 25.3486 15.5477C25.29 15.9672 25.2657 16.3769 25.2706 16.7671C25.2706 16.8598 25.2364 16.8744 25.1632 16.8159C25.0998 16.7525 25.051 16.6208 25.0267 16.4208C25.0256 16.402 25.0209 16.3837 25.0124 16.3669C25.004 16.3501 24.9923 16.3353 24.9779 16.3232C24.8072 16.1915 24.6267 16.1379 24.5877 15.894C24.5243 15.5135 24.6024 15.177 24.8267 14.8892C24.8336 14.8793 24.8441 14.8723 24.8559 14.8697C24.8657 14.8697 24.8755 14.8697 24.8852 14.8794V14.8989L24.7877 15.1819C24.7779 15.2258 24.7877 15.2599 24.8218 15.2892C24.8999 15.3477 24.9291 15.4209 24.9097 15.5038C24.906 15.5234 24.8985 15.5422 24.8877 15.5589C24.8768 15.5756 24.8627 15.5901 24.8462 15.6013C24.8059 15.6271 24.7724 15.6623 24.7486 15.7038C24.7403 15.7212 24.7392 15.7413 24.7455 15.7596C24.7519 15.7779 24.7653 15.7929 24.7828 15.8013C24.7925 15.8111 24.8072 15.8111 24.8218 15.8111Z" fill="#B87C29"/>
<path d="M15.7542 15.2207C16.159 15.2305 16.4078 15.4402 16.5102 15.8548C16.4273 16.0938 16.3151 16.284 16.1688 16.4255L15.7737 16.5328C15.481 16.2401 15.442 15.9182 15.642 15.5573C15.6518 15.5426 15.6469 15.5329 15.6322 15.5231C15.6225 15.5134 15.6079 15.5182 15.5981 15.528C15.5444 15.6158 15.4713 15.6841 15.3932 15.7475C15.3445 15.7426 15.325 15.728 15.3298 15.6987C15.4079 15.4255 15.5493 15.2597 15.7542 15.2158V15.2207Z" fill="#0B0802"/>
<path d="M15.1493 15.9866C15.1493 16.0159 15.1445 16.0354 15.1249 16.0403C15.042 16.1232 14.9786 16.1769 14.9347 16.1866C14.8372 16.2256 14.7884 16.2939 14.7884 16.3964C14.7835 16.5524 14.764 16.7037 14.7299 16.8451C14.6616 17.1134 14.7542 17.2744 14.9981 17.3329C15.0481 17.348 15.1016 17.3467 15.1508 17.3291C15.1999 17.3116 15.2422 17.2787 15.2713 17.2353C15.3932 17.0695 15.5298 16.9134 15.681 16.7622L15.7639 16.7427C15.8615 16.7427 15.8615 16.8012 15.7688 16.928C15.7353 16.9751 15.696 17.0177 15.6517 17.0549L15.3005 17.3378C15.2274 17.3963 15.164 17.4646 15.1152 17.5426L14.9689 17.7768L14.5494 17.928L14.5591 17.8938C14.5591 17.8743 14.5738 17.8646 14.5982 17.8694C14.6128 17.8694 14.6274 17.8597 14.642 17.8353C14.6446 17.8318 14.6464 17.8279 14.6472 17.8236C14.6481 17.8194 14.648 17.8151 14.6469 17.8109C14.5494 17.4695 14.5299 17.1085 14.5738 16.7378L14.6664 16.3964C14.7006 16.2695 14.7201 16.133 14.7201 15.9964C14.7201 15.8793 14.6908 15.772 14.6274 15.6745C14.6182 15.6584 14.6046 15.6452 14.5882 15.6366C14.5718 15.6279 14.5532 15.6242 14.5347 15.6257C14.3738 15.6354 14.2665 15.7037 14.2177 15.8354C14.1787 15.9574 14.1153 16.0744 14.0323 16.1769C13.9543 16.2744 13.886 16.3964 13.8324 16.5427C13.7348 16.7915 13.6226 17.0158 13.4909 17.2207C13.4456 17.2743 13.3967 17.3249 13.3446 17.3719C13.2958 17.4256 13.2714 17.4987 13.2763 17.5865C13.2763 17.6207 13.2617 17.6499 13.2421 17.6792C13.1999 17.7351 13.1791 17.8044 13.1836 17.8743C13.1836 17.9133 13.1982 17.9231 13.2324 17.9036C13.2568 17.8938 13.2812 17.8938 13.3104 17.9036C13.4948 18.0168 13.6933 18.1053 13.9006 18.167C13.9098 18.1748 13.9172 18.1845 13.9223 18.1954C13.9273 18.2064 13.9299 18.2183 13.9299 18.2304L13.925 18.2645C13.8014 18.538 13.751 18.8388 13.7787 19.1377C13.8128 19.4791 13.8909 19.762 14.0079 19.9864C14.0275 20.0254 14.0567 20.0498 14.1055 20.0693C14.1397 20.079 14.1592 20.0693 14.164 20.0351L14.1836 19.9278L14.4372 20.3375C14.1884 20.7376 14.3982 21.0887 14.5591 21.4546C14.5704 21.4816 14.5745 21.5109 14.571 21.5401C14.5676 21.5691 14.5568 21.5967 14.5396 21.6204C14.3933 21.8253 14.2031 21.9813 13.9738 22.0935C13.7982 22.1813 13.6324 22.0886 13.5153 21.957L13.447 21.9081C13.4322 21.8996 13.4154 21.8952 13.3982 21.8952C13.3811 21.8952 13.3643 21.8996 13.3495 21.9081C13.2519 21.957 13.1885 21.9375 13.1544 21.8351C13.0275 21.435 12.9105 21.0107 12.8032 20.5668C12.6175 19.7719 12.6736 18.9395 12.9641 18.1768C13.0373 17.967 13.0958 17.7524 13.1348 17.528C13.1836 17.2792 13.2568 17.0158 13.3641 16.7427C13.3836 16.6939 13.4129 16.6451 13.4421 16.6012C13.462 16.576 13.4739 16.5454 13.4763 16.5134C13.4763 16.4403 13.5202 16.3769 13.5934 16.3281C13.8519 16.211 14.0031 16.0159 14.0616 15.7427C14.0677 15.7089 14.0849 15.678 14.1104 15.655C14.3104 15.4842 14.4567 15.3964 14.5494 15.3867C14.9737 15.3379 15.1737 15.5428 15.1493 15.9866Z" fill="#EFE2AD"/>
<path d="M15.7687 16.5329C15.3297 16.4744 15.2028 16.2159 15.3882 15.7476C15.4711 15.6842 15.5443 15.6159 15.5979 15.5281C15.6077 15.5184 15.6175 15.5135 15.6321 15.5233C15.6467 15.533 15.6516 15.5428 15.6418 15.5574C15.4419 15.9183 15.4858 16.2403 15.7735 16.5329H15.7687ZM15.8223 15.5964C15.831 15.5941 15.8402 15.5943 15.8488 15.5969C15.8574 15.5994 15.8651 15.6044 15.8711 15.6111C15.8761 15.6171 15.8796 15.6242 15.8813 15.6318C15.883 15.6395 15.8829 15.6474 15.8809 15.655C15.8755 15.6778 15.8647 15.6991 15.8495 15.7169C15.8342 15.7347 15.8148 15.7486 15.793 15.7574C15.7345 15.7867 15.7101 15.7671 15.7248 15.7086C15.7394 15.6452 15.7735 15.6111 15.8223 15.5964Z" fill="#FCF9F5"/>
<path d="M14.5491 17.9277C14.5089 17.954 14.4795 17.9938 14.4662 18.04C14.3943 18.1048 14.3433 18.1897 14.3198 18.2839C14.3296 18.1473 14.2418 18.1521 14.0711 18.2935C13.8467 18.4691 13.7735 18.8691 13.7784 19.1375C13.7459 18.8269 13.7981 18.5133 13.9296 18.2301C13.9297 18.2181 13.9271 18.2061 13.922 18.1952C13.9169 18.1843 13.9096 18.1746 13.9004 18.1667C13.6932 18.1067 13.4948 18.0197 13.3102 17.9082C13.2985 17.9009 13.2849 17.897 13.2711 17.897C13.2573 17.897 13.2438 17.9009 13.2321 17.9082C13.198 17.9229 13.1833 17.9131 13.1833 17.8741C13.1785 17.796 13.198 17.7277 13.2419 17.679C13.2539 17.6659 13.263 17.6504 13.2689 17.6337C13.2748 17.6169 13.2772 17.5991 13.276 17.5814C13.276 17.4985 13.2955 17.4253 13.3492 17.3717C13.4224 17.2936 13.4711 17.2449 13.4858 17.2205C13.6223 17.0156 13.7345 16.7912 13.8321 16.5376C13.8857 16.3961 13.954 16.2791 14.0321 16.1766C14.115 16.0742 14.1784 15.9571 14.2174 15.8352C14.2662 15.7035 14.3735 15.6352 14.5345 15.6255C14.5537 15.6229 14.5733 15.6262 14.5907 15.6349C14.6081 15.6436 14.6225 15.6573 14.632 15.6742C14.6906 15.7718 14.7247 15.8791 14.7198 15.9962C14.7198 16.1327 14.7003 16.2693 14.6662 16.401L14.5735 16.7425C14.5256 17.1047 14.5505 17.4728 14.6467 17.8253L14.6418 17.8351C14.6271 17.8594 14.6125 17.8692 14.593 17.8692C14.5735 17.8643 14.5589 17.8692 14.5589 17.8936L14.5491 17.9277Z" fill="#FAF2CD"/>
<path d="M15.3299 15.7034C15.3299 15.7278 15.3445 15.7424 15.3933 15.7473C15.203 16.2155 15.3299 16.4789 15.7737 16.5277L16.164 16.4253C16.1439 16.4519 16.1336 16.4846 16.1347 16.5179C16.0322 16.6301 15.9103 16.7082 15.764 16.7423L15.6811 16.7618C15.3152 16.7472 15.1445 16.3619 15.125 16.0399C15.1445 16.0399 15.1543 16.0155 15.1494 15.9863C15.2323 15.8936 15.2909 15.8009 15.3299 15.7034Z" fill="#5B4F40"/>
<path d="M16.1443 15.7326C16.1101 15.7814 16.1101 15.8399 16.1443 15.8643C16.1784 15.8887 16.2369 15.8692 16.2662 15.8253C16.3003 15.7765 16.3003 15.718 16.2662 15.6936C16.2321 15.6692 16.1735 15.6887 16.1443 15.7326Z" fill="#FCF9F5"/>
<path d="M18.9249 18.2201C18.8517 18.2056 18.8176 18.2348 18.8176 18.3031C18.8274 18.5274 18.8078 18.7323 18.7591 18.903C18.7346 19.0007 18.7201 19.1031 18.7152 19.2055C18.7152 19.4299 18.6371 19.5811 18.7395 19.8347L18.7493 20.3517C18.7493 20.3908 18.764 20.4298 18.7884 20.4591C18.9591 20.6737 19.1298 20.8737 19.2956 21.059C19.4956 21.2834 19.5103 21.5077 19.3347 21.7273C19.1883 21.9077 19.0713 22.0687 18.8323 22.1223C18.4909 22.1955 18.1787 22.3174 17.9104 22.4979C17.7153 22.6296 17.4811 22.6784 17.2567 22.7516C17.1007 22.8052 17.0958 22.8637 17.2519 22.9272L17.7494 23.1369C18.2128 23.3417 18.6616 23.3564 19.1542 23.2638C19.4712 23.2052 19.6078 22.854 19.7736 22.6199C19.9346 22.376 20.2468 22.3809 20.4614 22.1906C20.6321 22.0443 20.8321 21.898 21.0613 21.7614C21.0928 21.7446 21.1172 21.7168 21.1296 21.6834C21.1979 21.5126 21.2467 21.337 21.4125 21.2346C21.8076 20.9907 22.193 20.8054 22.554 20.6785C22.8954 20.5615 23.1831 20.3664 23.5148 20.2201C23.5324 20.2129 23.5521 20.2123 23.5701 20.2187C23.5881 20.225 23.6031 20.2376 23.6124 20.2542C23.6368 20.2932 23.6368 20.3274 23.6124 20.3664C23.4417 20.6444 23.3003 20.9566 23.0417 21.1663L22.2905 21.8005C22.1247 21.9371 22.1345 22.2102 22.1052 22.4102C22.0807 22.6052 21.9637 22.7711 21.7638 22.9174C21.5686 23.054 21.3735 23.1857 21.1589 23.3076C21.037 23.3759 21.0272 23.454 21.1394 23.5466C21.1638 23.5662 21.1979 23.5807 21.2369 23.5807C21.276 23.5807 21.315 23.5954 21.3443 23.6198L21.6418 23.8784C21.6489 23.8843 21.6547 23.8917 21.6587 23.9002C21.6626 23.9086 21.6646 23.9177 21.6646 23.9271C21.6646 23.9364 21.6626 23.9456 21.6587 23.954C21.6547 23.9625 21.6489 23.97 21.6418 23.9759C21.633 23.9815 21.623 23.9849 21.6125 23.9857C21.2418 24.0588 20.8516 24.1319 20.715 24.5417C20.7098 24.5563 20.7077 24.5721 20.7088 24.5876C20.71 24.6031 20.7144 24.6184 20.7217 24.6321C20.7291 24.6459 20.7392 24.658 20.7515 24.6675C20.7638 24.6772 20.7779 24.6842 20.7931 24.688C20.8614 24.7075 20.9296 24.6978 20.9881 24.6637C21.2613 24.5173 21.5931 24.3954 21.8955 24.5173C22.0807 24.5905 22.2661 24.6246 22.4515 24.6246C22.627 24.6246 22.793 24.688 22.9392 24.8099C22.9734 24.8344 23.0124 24.8441 23.0515 24.8393C23.1344 24.8246 23.1978 24.7905 23.2465 24.7369C23.3295 24.8441 23.5197 24.8831 23.8124 24.8587C23.9197 24.849 23.9977 24.7905 24.0856 24.7369L24.9537 24.21C25.0611 24.1223 25.1586 24.1125 25.2465 24.1759C25.2757 24.1953 25.305 24.2002 25.3391 24.1906C25.6513 24.0685 25.6952 23.8491 25.8464 23.5954C25.8805 23.5466 25.9293 23.5077 25.9927 23.493C26.3634 23.4003 26.6024 23.0686 26.7243 22.7126C26.7634 22.5906 26.8316 22.4736 26.9195 22.3711C27.0463 22.2297 27.1146 22.0589 27.1244 21.859C27.1255 21.8385 27.1216 21.818 27.1132 21.7993C27.1047 21.7806 27.0918 21.7643 27.0756 21.7517C27.0024 21.6834 26.978 21.6004 27.0024 21.4932C27.0561 21.2638 27.0268 21.0688 26.9048 20.9078C26.8827 20.8801 26.8707 20.8457 26.8707 20.8103L26.8805 19.7177C26.9682 20.0396 27.0755 20.3517 27.1976 20.6444C27.3487 21.0199 27.4413 21.3078 27.4804 21.5126C27.5926 22.1467 27.6073 22.7858 27.5145 23.4247C27.4511 23.2589 27.3828 23.2979 27.3048 23.5418C27.2268 23.7954 27.2512 24.0003 27.1097 24.2393C27.0024 24.4343 26.9682 24.6441 26.9488 24.8587C26.9146 25.1758 26.8854 25.4831 26.8658 25.7855C26.8561 25.9416 26.7683 26.0587 26.6171 26.1415C26.5864 26.1571 26.5623 26.1831 26.5488 26.2147C26.4902 26.3416 26.4707 26.4488 26.3634 26.5513C26.1683 26.7416 25.7294 27.1464 25.6611 27.4098C25.622 27.5561 25.5 27.6342 25.3684 27.6927C25.461 27.5805 25.5147 27.4586 25.544 27.322C25.5879 27.1123 25.6171 26.9806 25.6415 26.9317C25.7049 26.7708 25.7879 26.6196 25.8659 26.483C26.1537 26.005 26.0512 25.4636 25.9829 24.9417C25.9785 24.9105 25.9635 24.8819 25.9404 24.8606C25.9173 24.8393 25.8876 24.8265 25.8562 24.8246C25.5976 24.8051 25.3781 24.8393 25.1831 24.9221C24.8123 25.088 24.5002 25.1953 24.1587 25.5075C23.9148 25.727 23.7685 26.044 23.5148 26.2196C23.2124 26.4196 22.7978 26.6293 22.2759 26.8391C21.7296 27.0538 21.1784 27.2586 20.6272 27.4586C20.4712 27.5122 20.3199 27.5854 20.1736 27.6683C19.6565 27.961 19.4029 28.5219 18.8029 28.6682C18.6225 28.7121 18.4469 28.7902 18.2811 28.9121C18.0567 29.0634 17.7738 29.1073 17.5104 29.156C17.2177 29.2097 16.9446 29.3365 16.6324 29.4048C16.3592 29.3073 16.0715 29.1999 15.769 29.1024C15.4777 29.0051 15.1967 28.8792 14.9301 28.7268C14.5886 28.5316 14.2862 28.3463 14.0131 28.1658C13.6338 27.9124 13.2823 27.6197 12.9644 27.2928C12.6424 26.961 12.6424 26.5416 12.8473 26.1513C12.9985 25.7221 13.0912 25.3368 13.1058 24.9904C13.1302 24.5758 13.1595 24.1661 13.1936 23.7661C13.2034 23.6443 13.257 23.4394 13.3497 23.1467C13.4619 22.7907 13.4765 22.4151 13.3985 22.0248C13.3887 21.9858 13.4033 21.9614 13.4375 21.9516C13.4619 21.9418 13.4863 21.9467 13.5155 21.9516C13.6375 22.0882 13.7984 22.1808 13.974 22.098C14.2033 21.9809 14.3935 21.8248 14.5399 21.62C14.557 21.5963 14.5679 21.5686 14.5713 21.5396C14.5747 21.5105 14.5706 21.4811 14.5594 21.4541C14.3984 21.0882 14.1887 20.7371 14.4374 20.3371C14.4374 20.4102 14.4228 20.4834 14.4033 20.5664C14.3927 20.6021 14.3898 20.6398 14.3948 20.6768C14.3999 20.7138 14.4127 20.7493 14.4325 20.7809L14.4667 20.8639C14.5008 21.0346 14.6033 21.1663 14.7691 21.2542C14.9886 21.381 15.2227 21.4785 15.4715 21.5517C15.6764 21.6151 15.8812 21.537 16.0812 21.3127C16.2275 21.3176 16.4812 21.3712 16.8373 21.4785C17.0324 21.537 17.1982 21.4883 17.3397 21.3419C17.4372 21.3029 17.6616 21.2638 17.9982 21.2248C18.1445 21.2053 18.4371 21.1078 18.8664 20.9322C18.8825 20.9242 18.8948 20.9101 18.9006 20.8932C18.9062 20.8773 18.9062 20.8602 18.9006 20.8444V20.8151C18.8974 20.8062 18.8914 20.7985 18.8835 20.7931C18.8755 20.7879 18.8661 20.7854 18.8566 20.7858H18.842C18.5152 20.8981 18.1738 20.9566 17.808 20.9663C17.6713 20.9663 17.5445 21.0248 17.4177 21.0639C17.1885 21.142 16.7495 20.9322 16.5495 20.8249C16.5419 20.7631 16.5521 20.7005 16.5789 20.6444C16.6056 20.5881 16.6479 20.5408 16.7007 20.5078C16.7299 20.4883 16.7495 20.4591 16.7641 20.4298C16.7934 20.3566 16.8519 20.3225 16.9348 20.3225C17.0324 20.3469 17.1933 20.3274 17.4128 20.2737C17.5494 20.2444 17.6226 20.181 17.6274 20.0933C17.6275 20.0713 17.6217 20.0497 17.6105 20.0309C17.5993 20.012 17.5833 19.9964 17.564 19.986C17.5151 19.9576 17.476 19.915 17.4519 19.8639C17.4421 19.8445 17.4519 19.8249 17.4762 19.8152L17.5055 19.8103C17.5201 19.8054 17.5299 19.8103 17.5348 19.8201C17.5592 19.8786 17.5982 19.9177 17.6518 19.9273C17.686 19.9371 17.7201 19.9273 17.7591 19.8981C17.8714 19.8103 17.925 19.6787 17.9201 19.4981C17.9884 19.3763 18.1055 19.2786 18.2664 19.1957C18.3006 19.1762 18.3152 19.1469 18.3055 19.1128C18.2713 18.9177 18.1883 18.747 18.0713 18.6006C17.9445 18.4544 17.7397 18.4006 17.5835 18.2739C17.3836 18.1129 17.1104 18.1422 16.8812 18.2154C16.8748 18.217 16.8688 18.2199 16.8637 18.2241C16.8587 18.2283 16.8546 18.2337 16.8519 18.2397V18.2543C16.8519 18.2739 16.8421 18.2884 16.8177 18.2884C16.7645 18.2942 16.7139 18.3145 16.6714 18.347C16.5201 18.1857 16.3419 18.052 16.1446 17.952C15.8032 17.7422 15.3642 17.7666 14.974 17.7764L15.1203 17.5422C15.1691 17.4642 15.2276 17.3959 15.3008 17.3374L15.652 17.0545C15.7007 17.0106 15.7398 16.9715 15.769 16.9276C15.8617 16.8008 15.8568 16.7423 15.7642 16.7423C15.9105 16.7081 16.0324 16.6301 16.1349 16.5179L16.5007 16.1765C16.53 16.1472 16.5543 16.1472 16.5836 16.1765C16.6568 16.2448 16.6714 16.313 16.6324 16.3813C16.4781 16.6142 16.3489 16.8627 16.2471 17.1227C16.2373 17.1618 16.2471 17.1764 16.291 17.1715C16.4015 17.1479 16.499 17.0835 16.5641 16.991C16.7202 16.7862 16.9494 16.6155 17.247 16.4691C17.2762 16.4545 17.3055 16.4594 17.325 16.4789C17.3441 16.4949 17.3563 16.5176 17.3592 16.5423C17.3689 16.6301 17.4031 16.6399 17.4567 16.5667C17.6031 16.3667 17.7982 16.1618 18.0274 15.9618C18.0615 15.9326 18.0859 15.9375 18.1055 15.9716C18.1787 16.1082 18.1787 16.2399 18.1055 16.3618C18.0176 16.5325 17.9348 16.713 17.8763 16.8984C17.8616 16.9325 17.8421 16.9472 17.808 16.9472H17.7445C17.7301 16.9481 17.7164 16.9539 17.7058 16.9637C17.6952 16.9734 17.6882 16.9865 17.686 17.0008V17.0301L17.7835 17.2983C17.8031 17.3422 17.8128 17.3861 17.8176 17.43L17.8616 17.7129C17.864 17.7305 17.8706 17.7472 17.881 17.7616C17.8914 17.7759 17.9052 17.7874 17.9211 17.7952C17.937 17.8029 17.9547 17.8066 17.9723 17.8058C17.9901 17.8051 18.0073 17.8 18.0225 17.791C18.0445 17.7793 18.0618 17.7603 18.0713 17.7373L18.2372 17.2886C18.2439 17.2727 18.2549 17.259 18.269 17.249C18.2831 17.239 18.2998 17.2332 18.3171 17.2322C18.3342 17.2312 18.3514 17.235 18.3667 17.2433C18.3818 17.2515 18.3945 17.2638 18.403 17.2788C18.5493 17.5276 18.6322 17.791 18.6567 18.0592C18.6575 18.0794 18.6652 18.0986 18.6785 18.1136C18.6918 18.1287 18.7099 18.1388 18.7299 18.1422C18.8078 18.1567 18.8761 18.1812 18.9249 18.2201Z" fill="#E0C06E"/>
<path d="M21.0367 16.8303C20.9726 16.86 20.9023 16.8734 20.8319 16.8694C20.8138 16.8685 20.7957 16.8716 20.7788 16.8783C20.762 16.885 20.7468 16.8953 20.7343 16.9084C20.6221 17.0157 20.5344 17.1523 20.3831 17.2206C20.188 17.3084 19.9929 17.3181 19.7978 17.2645C19.6076 16.9913 19.588 16.7279 19.7246 16.4694C19.7276 16.4606 19.733 16.4529 19.7403 16.4471C19.7474 16.4413 19.7562 16.4376 19.7654 16.4366C19.7746 16.4356 19.784 16.4372 19.7923 16.4413C19.8006 16.4454 19.8075 16.4517 19.8124 16.4596C19.8564 16.5133 19.91 16.5426 19.9734 16.5474C20.0417 16.5474 20.0612 16.5182 20.0368 16.4548C19.8368 16.006 19.3637 16.5133 19.2807 16.6987C19.1832 16.923 19.2612 17.1279 19.5149 17.3035L19.5344 17.3425C19.5442 17.3669 19.5393 17.3913 19.5197 17.4157C19.5051 17.4268 19.4886 17.4351 19.471 17.4401C19.2759 17.3864 18.9881 17.3523 18.8808 17.1767C18.8174 17.0742 18.7734 16.9669 18.7491 16.8596C18.7445 16.8422 18.7448 16.8239 18.75 16.8067C18.7551 16.7895 18.7649 16.774 18.7783 16.7621L19.2027 16.3718L19.6759 16.0694C20.0222 15.9719 20.3099 16.0158 20.5295 16.1914C20.6904 16.3182 20.8562 16.4889 21.0173 16.7084C21.0367 16.7279 21.0465 16.7474 21.0465 16.7621L21.0416 16.8255L21.0367 16.8303Z" fill="#0B0802"/>
<path d="M15.1252 16.0402C15.1398 16.3621 15.3203 16.7474 15.6812 16.7621C15.5349 16.9084 15.3935 17.0694 15.2715 17.2352C15.2424 17.2786 15.2002 17.3114 15.151 17.329C15.1018 17.3466 15.0483 17.3479 14.9983 17.3328C14.7545 17.2742 14.6618 17.1133 14.7301 16.845C14.7642 16.6987 14.7789 16.5523 14.7886 16.3962C14.7886 16.2987 14.8374 16.2255 14.9349 16.1914C14.9788 16.1719 15.0422 16.1231 15.1252 16.045V16.0402Z" fill="#E1B051"/>
<path d="M19.7933 17.2645C19.7591 17.3084 19.6665 17.3181 19.5153 17.3035C19.2616 17.1279 19.1836 16.9231 19.2811 16.6987C19.3641 16.5133 19.8372 16.006 20.0372 16.4548C20.0616 16.5182 20.0421 16.5523 19.9738 16.5475C19.9422 16.5453 19.9115 16.5363 19.8837 16.5212C19.8559 16.506 19.8317 16.485 19.8128 16.4597C19.8079 16.4518 19.801 16.4454 19.7927 16.4413C19.7844 16.4372 19.7751 16.4356 19.7658 16.4366C19.7566 16.4377 19.7479 16.4413 19.7407 16.4471C19.7334 16.4529 19.7281 16.4606 19.725 16.4694C19.5884 16.728 19.608 16.9913 19.7933 17.2645Z" fill="#FCF9F5"/>
<path d="M24.8321 19.6254C24.6199 19.5863 24.404 19.5701 24.1883 19.5767C23.9735 19.5812 23.7587 19.5763 23.5445 19.562C23.1112 19.5327 22.677 19.6046 22.2762 19.7717C21.7543 19.9913 21.2714 20.2205 20.8275 20.4595C20.7824 20.4854 20.7327 20.5019 20.6812 20.5082C20.6207 20.5127 20.5601 20.5009 20.5057 20.4741C20.2129 20.3473 19.9447 20.3278 19.691 20.4058C19.6705 20.4121 19.649 20.4134 19.6278 20.4101C19.6066 20.4067 19.5866 20.3986 19.5691 20.3863C19.4715 20.3229 19.4082 20.24 19.3642 20.1375C19.3478 20.0975 19.3191 20.0637 19.2824 20.0408C19.2456 20.018 19.2025 20.0076 19.1594 20.0108C18.9788 20.0254 18.8374 19.9619 18.7398 19.8302C18.6374 19.5816 18.7155 19.4303 18.7155 19.206C18.7155 19.1083 18.7349 19.0059 18.7643 18.9035C18.8081 18.728 18.8277 18.5279 18.8179 18.3036C18.8179 18.2353 18.8521 18.206 18.9252 18.2206C19.2082 18.2353 19.4959 18.25 19.7837 18.2547C20.0569 18.2596 20.2373 18.3133 20.4421 18.0889C20.4666 18.0597 20.4959 18.0402 20.5349 18.0255C20.6568 17.9768 20.7788 17.9426 20.886 17.8596C21.2247 17.5891 21.5023 17.25 21.7007 16.8646C21.7136 16.8391 21.7343 16.8184 21.7596 16.8053C21.785 16.7921 21.8138 16.7873 21.842 16.7914C22.1787 16.8304 22.5006 16.8207 22.8128 16.7573C22.8321 16.7543 22.8518 16.7586 22.8681 16.7694C22.8843 16.7803 22.896 16.7968 22.9005 16.8158L22.9103 16.8548C22.925 16.9036 22.9591 16.928 23.0078 16.9231L23.2566 16.9085C23.2957 16.9085 23.3298 16.9085 23.364 16.928L23.6858 17.089C23.7249 17.1085 23.7688 17.1133 23.8127 17.1085C23.8203 17.1067 23.8274 17.1031 23.8333 17.098C23.8392 17.0929 23.8439 17.0865 23.8469 17.0792C23.8503 17.0724 23.8521 17.0649 23.8521 17.0572C23.8521 17.0496 23.8503 17.0421 23.8469 17.0353L23.7103 16.8402C23.7059 16.8327 23.7037 16.8241 23.7037 16.8154C23.7038 16.8067 23.7062 16.7982 23.7106 16.7907C23.7152 16.7832 23.7216 16.7771 23.7292 16.7729C23.7368 16.7688 23.7455 16.7667 23.7541 16.767L24.1151 16.7817C24.1591 16.7817 24.1736 16.8061 24.1638 16.8451L24.1151 17.089C24.1151 17.1133 24.12 17.128 24.1444 17.128C24.1542 17.128 24.1687 17.128 24.1736 17.1133C24.2273 17.0402 24.2712 16.9621 24.3102 16.8743C24.3132 16.8671 24.3177 16.8606 24.3237 16.8555C24.3297 16.8504 24.3367 16.8469 24.3443 16.8451C24.352 16.8451 24.3594 16.8468 24.3662 16.8502C24.3729 16.8536 24.3788 16.8585 24.3834 16.8646C24.4322 16.9231 24.4517 16.9865 24.4468 17.0597C24.4468 17.089 24.4517 17.1085 24.4711 17.1329L24.7101 17.3767C24.7346 17.406 24.7346 17.4353 24.7199 17.4694C24.6273 17.6304 24.6565 17.7767 24.8029 17.9084C24.8224 17.9328 24.8321 17.9572 24.8273 17.9864C24.8186 18.0306 24.8003 18.0723 24.7736 18.1085C24.676 18.2451 24.759 18.4645 24.8712 18.5524C24.8955 18.5718 24.8955 18.5962 24.8761 18.6206C24.7882 18.7376 24.7297 18.8645 24.715 19.0108C24.7125 19.0301 24.7158 19.0497 24.7246 19.067C24.7332 19.0844 24.7469 19.0988 24.7639 19.1083L24.9102 19.206C24.9444 19.2254 24.9589 19.2547 24.9589 19.2937C24.954 19.4205 24.9102 19.5278 24.8321 19.6254Z" fill="#FAF2CD"/>
<path d="M21.0368 16.8303C21.0368 16.8791 21.0174 16.923 20.9783 16.9669C20.7831 17.1766 20.5588 17.4303 20.2857 17.5181C19.9637 17.6156 19.754 17.4937 19.4711 17.44C19.4887 17.435 19.5052 17.4268 19.5198 17.4156C19.5394 17.3913 19.5443 17.3669 19.5345 17.3425L19.515 17.3034C19.6662 17.323 19.7588 17.3035 19.793 17.2644C19.9978 17.323 20.193 17.3083 20.3783 17.2205C20.5345 17.1522 20.6222 17.0157 20.7393 16.9084C20.7518 16.8953 20.767 16.885 20.7838 16.8783C20.8007 16.8715 20.8188 16.8685 20.8369 16.8693C20.91 16.8693 20.9783 16.8596 21.0417 16.8254L21.0368 16.8303ZM14.9738 17.7766C15.3641 17.7668 15.8031 17.7424 16.1445 17.9522C16.0713 17.9912 16.0323 18.0156 16.0225 18.0302C15.9689 18.1766 15.8616 18.2253 15.7152 18.1766C15.3636 18.0671 14.9917 18.0388 14.6275 18.0936C14.5836 18.1034 14.53 18.0838 14.4666 18.04C14.4812 17.9959 14.5105 17.958 14.5495 17.9327L14.9738 17.7766Z" fill="#5B4F40"/>
<path d="M16.1447 17.9521C16.3544 18.0595 16.53 18.1912 16.6715 18.3424L16.7105 18.4302C16.6617 18.6643 16.5008 19.0789 16.2715 19.1911C16.2287 19.2114 16.1942 19.2459 16.1739 19.2887C16.1581 19.3296 16.1289 19.364 16.091 19.3862C15.9301 19.479 15.7691 19.5814 15.6033 19.6984C15.4472 19.8155 15.213 19.8642 15.0374 19.7618C14.7789 19.6155 14.5692 19.4009 14.3985 19.118L14.4033 19.0936C14.3936 19.0302 14.4033 18.9863 14.418 18.9619C14.4424 18.9327 14.4716 18.9278 14.5106 18.9472C14.5692 18.9814 14.6228 18.9863 14.6765 18.9668C14.8228 18.918 14.8179 18.8741 14.6667 18.8448C14.5475 18.8141 14.4371 18.7556 14.3448 18.6741C14.3058 18.5571 14.296 18.4302 14.3204 18.2839C14.3439 18.1898 14.3948 18.1049 14.4668 18.04C14.5302 18.0838 14.5838 18.1034 14.6277 18.0936C14.9923 18.0404 15.3642 18.0704 15.7154 18.1815C15.8618 18.2302 15.9691 18.1766 16.0227 18.0351C16.0325 18.0156 16.0715 17.9863 16.1447 17.9521Z" fill="#0B0802"/>
<path d="M17.9198 19.4983C17.9345 19.4544 17.9052 19.4153 17.8223 19.3764C17.7881 19.3568 17.7736 19.3276 17.7881 19.2934C17.8174 19.1861 17.7881 19.0935 17.7003 19.0105C17.554 18.8739 17.4223 18.7277 17.3004 18.5715C17.2028 18.4496 17.0662 18.391 16.9102 18.3764C16.8614 18.3667 16.8419 18.3959 16.8516 18.4593C16.8224 18.4691 16.7785 18.4593 16.7102 18.4301L16.6711 18.3423C16.7147 18.3133 16.7652 18.2964 16.8175 18.2935C16.8419 18.2935 16.8565 18.274 16.8516 18.2544V18.2399C16.8544 18.2338 16.8584 18.2285 16.8635 18.2243C16.8685 18.2201 16.8745 18.2171 16.8809 18.2155C17.1101 18.1423 17.3833 18.1179 17.5833 18.274C17.7394 18.4008 17.9443 18.4496 18.0711 18.6008C18.1881 18.7471 18.2661 18.913 18.3052 19.1129C18.315 19.152 18.3052 19.1763 18.2661 19.1959C18.1052 19.2788 17.9881 19.3764 17.9247 19.4983H17.9198Z" fill="#EFE2AD"/>
<path d="M14.3204 18.2841C14.296 18.4303 14.3057 18.5572 14.3447 18.6742L14.4033 19.0938L14.3984 19.1181C14.0716 19.3718 13.9984 19.645 14.1838 19.9279L14.1643 20.0351C14.1643 20.0692 14.1399 20.0839 14.1106 20.0692C14.067 20.0559 14.0303 20.0262 14.0082 19.9864C13.8795 19.7205 13.8033 19.4323 13.7838 19.1377C13.774 18.8693 13.8472 18.4695 14.0716 18.289C14.2423 18.1524 14.3301 18.1476 14.3204 18.289V18.2841ZM17.9201 19.4986C17.925 19.6791 17.8714 19.8109 17.7591 19.8986C17.7201 19.9279 17.686 19.9376 17.6518 19.9279C17.603 19.9181 17.5591 19.8791 17.5348 19.8206C17.5299 19.8059 17.5201 19.8059 17.5055 19.8108L17.4762 19.8157C17.447 19.8253 17.4421 19.8449 17.4518 19.8644C17.4762 19.9132 17.5152 19.9571 17.564 19.9864C17.5833 19.9969 17.5993 20.0125 17.6105 20.0313C17.6216 20.0501 17.6275 20.0718 17.6274 20.0938C17.6274 20.1816 17.5494 20.2401 17.4128 20.2791C17.1933 20.3279 17.0324 20.3473 16.9348 20.3278C16.8773 20.3133 16.8237 20.2867 16.7774 20.2496C16.7311 20.2126 16.6933 20.166 16.6665 20.1133C16.6484 20.0841 16.6415 20.0495 16.647 20.0157C16.6714 19.8937 16.6763 19.7766 16.6665 19.6644C16.6519 19.5229 16.7251 19.4059 16.8129 19.3084C16.8379 19.2821 16.8519 19.2472 16.8519 19.2109V18.4597C16.8421 18.3963 16.8665 18.3621 16.9153 18.3719C17.0665 18.3914 17.208 18.45 17.3055 18.5719C17.4226 18.728 17.5591 18.8743 17.7006 19.0109C17.7884 19.0939 17.8176 19.1865 17.7884 19.2938C17.7786 19.3329 17.7884 19.3572 17.8225 19.3768C17.9055 19.4157 17.9348 19.4547 17.9201 19.4986Z" fill="#FCF9F5"/>
<path d="M16.71 18.4302C16.7783 18.4594 16.8222 18.4692 16.8515 18.4594V19.2155C16.8515 19.2496 16.8369 19.2838 16.8125 19.3082C16.7247 19.4058 16.6515 19.5228 16.6661 19.6643C16.6759 19.7765 16.6662 19.8935 16.6466 20.0106C16.6418 20.0496 16.6466 20.0789 16.6613 20.1081C16.7295 20.2301 16.8222 20.3032 16.9344 20.3228C16.8515 20.3228 16.793 20.3569 16.7637 20.4301C16.7504 20.4615 16.7284 20.4886 16.7003 20.5081C16.6475 20.5411 16.6052 20.5884 16.5785 20.6446C16.5517 20.7007 16.5415 20.7633 16.5491 20.8251C16.2055 20.6963 15.8625 20.5662 15.5199 20.435C15.2283 20.3207 14.9043 20.3207 14.6126 20.435C14.5395 20.5959 14.5492 20.7374 14.6517 20.8593C14.7248 20.9472 14.8272 21.0398 14.9492 21.069C15.115 21.1081 15.4174 21.1568 15.5345 21.2788C15.5589 21.3032 15.5833 21.3178 15.6223 21.3178L16.0808 21.313C15.8857 21.5373 15.676 21.6154 15.4711 21.552C15.2223 21.4788 14.9882 21.3763 14.7687 21.2592C14.6922 21.22 14.6253 21.1641 14.573 21.0958C14.5207 21.0274 14.4843 20.9483 14.4663 20.8642C14.4601 20.8347 14.4486 20.8066 14.4322 20.7812C14.4123 20.7496 14.3995 20.7141 14.3944 20.6771C14.3894 20.6401 14.3923 20.6024 14.4029 20.5667C14.4224 20.4837 14.437 20.4105 14.437 20.3373L14.1834 19.9276C13.998 19.6448 14.0712 19.3716 14.398 19.1179C14.5687 19.4009 14.7785 19.6155 15.0321 19.7618C15.2126 19.8593 15.4467 19.8106 15.6077 19.6984C15.7686 19.5814 15.9296 19.479 16.0906 19.3862C16.1302 19.3648 16.1612 19.3303 16.1784 19.2887C16.1979 19.2447 16.2271 19.2106 16.2759 19.1911C16.5003 19.0789 16.6661 18.6643 16.7149 18.4302H16.71ZM14.3444 18.6741C14.4614 18.7716 14.5687 18.8204 14.6663 18.8448C14.8126 18.874 14.8175 18.918 14.676 18.9668C14.6224 18.9863 14.5687 18.9814 14.5102 18.9472C14.4712 18.9278 14.4419 18.9327 14.4175 18.9619C14.398 18.9863 14.3931 19.0302 14.4029 19.0936L14.3444 18.6741Z" fill="#968C78"/>
<path d="M15.7734 19.1718C15.91 19.2303 16.0319 19.2497 16.0465 19.2205C16.0612 19.1815 15.9587 19.1132 15.8222 19.0547C15.6856 19.0011 15.5636 18.9815 15.549 19.0156C15.5393 19.0498 15.6368 19.1181 15.7734 19.1766V19.1718Z" fill="#5B4F40"/>
<path d="M17.3351 19.3279C17.3351 19.3571 17.3205 19.3767 17.2912 19.3913C17.2668 19.4059 17.2473 19.3962 17.2424 19.3669C17.2424 19.3473 17.2424 19.3279 17.2522 19.3084C17.301 19.2108 17.3302 19.2205 17.3351 19.3279Z" fill="#968C78"/>
<path d="M24.8317 19.6253C24.5976 19.8351 24.5048 20.1131 24.5488 20.4595C24.5488 20.4789 24.5488 20.4985 24.539 20.518L24.3635 20.8107C24.3439 20.8496 24.3146 20.8594 24.2805 20.8252L24.2415 20.7862C24.2278 20.7746 24.2106 20.7678 24.1928 20.7667C24.183 20.7667 24.1634 20.7667 24.1488 20.7765C24.0951 20.8009 24.0707 20.8448 24.0756 20.9082C24.0951 21.0838 24.1245 21.2593 24.1586 21.4447C24.1659 21.486 24.163 21.5285 24.1503 21.5683C24.1376 21.6083 24.1152 21.6446 24.0854 21.674C23.8902 21.8691 23.461 22.2447 23.4513 22.5422C23.4513 22.6592 23.4171 22.752 23.3586 22.8203C23.2854 22.9031 23.183 22.9665 23.0562 23.0154V23.0202L23.0611 23.0593C23.0757 23.0983 23.1001 23.1178 23.144 23.108C23.3537 23.069 23.5488 22.9617 23.7293 22.7812C23.7355 22.776 23.7432 22.7733 23.7513 22.7733C23.7594 22.7733 23.7671 22.776 23.7732 22.7812C23.7798 22.7861 23.7845 22.7933 23.7863 22.8014C23.7881 22.8095 23.7869 22.8179 23.783 22.8252L23.5147 23.2787C23.4995 23.3018 23.4927 23.3294 23.4952 23.3568C23.5099 23.4592 23.505 23.5617 23.4805 23.6641C23.4785 23.6738 23.4785 23.6839 23.4805 23.6936C23.4827 23.7032 23.487 23.7123 23.493 23.7203C23.4991 23.7282 23.5067 23.7347 23.5156 23.7393C23.5243 23.7439 23.534 23.7465 23.544 23.7471L23.5782 23.7422C23.6464 23.7129 23.7098 23.6933 23.783 23.6836C23.8025 23.6836 23.8219 23.6884 23.8366 23.7031C23.8513 23.7177 23.861 23.7324 23.8659 23.7518C23.8902 23.947 23.8317 24.108 23.6903 24.2396C23.5283 24.3939 23.3782 24.5601 23.2415 24.7372C23.1909 24.7929 23.1213 24.8276 23.0464 24.8348C23.0287 24.8382 23.0102 24.8378 22.9926 24.8336C22.975 24.8294 22.9583 24.8215 22.944 24.8103C22.8079 24.6938 22.6354 24.6282 22.4562 24.625C22.2611 24.625 22.0806 24.5909 21.8953 24.5177C21.5929 24.3958 21.2612 24.5177 20.9929 24.6641C20.9336 24.6975 20.8635 24.7063 20.7978 24.6884C20.7827 24.6844 20.7683 24.6775 20.7559 24.6679C20.7435 24.6584 20.7331 24.6464 20.7253 24.6328C20.7176 24.6191 20.7127 24.6041 20.7109 24.5885C20.7092 24.5729 20.7105 24.5572 20.7148 24.542C20.8514 24.1323 21.2417 24.0544 21.6124 23.9861C21.6234 23.9833 21.6335 23.9778 21.6417 23.9699C21.6499 23.9619 21.6559 23.952 21.6588 23.941C21.6618 23.9301 21.6618 23.9185 21.6588 23.9075C21.6557 23.8965 21.6498 23.8866 21.6416 23.8787L21.349 23.6202C21.3179 23.5933 21.2778 23.5794 21.2368 23.5811C21.2014 23.5812 21.1669 23.5692 21.1393 23.547C21.027 23.4543 21.0417 23.3763 21.1587 23.3032C21.3734 23.1861 21.5733 23.0593 21.7636 22.9178C21.9636 22.7715 22.0806 22.6056 22.1051 22.4106C22.1343 22.2106 22.1245 21.9374 22.2904 21.796L23.0415 21.1667C23.3001 20.9569 23.4416 20.6447 23.6123 20.3668C23.6231 20.3501 23.6289 20.3306 23.6289 20.3107C23.6289 20.2908 23.6231 20.2712 23.6123 20.2546C23.603 20.238 23.5879 20.2253 23.57 20.2191C23.552 20.2127 23.5323 20.2133 23.5147 20.2204C23.183 20.3668 22.8953 20.5619 22.5538 20.6789C22.1879 20.8058 21.8075 20.9911 21.4124 21.235C21.2466 21.3325 21.1978 21.513 21.1295 21.6837C21.1171 21.7172 21.0927 21.745 21.0612 21.7618C20.832 21.8984 20.632 22.0399 20.4613 22.191C20.2466 22.3861 19.9344 22.3813 19.7735 22.6203C19.6077 22.8544 19.4711 23.2055 19.154 23.2641C18.6841 23.3699 18.1927 23.3255 17.7492 23.1372L17.2517 22.9276C17.0956 22.8641 17.1005 22.8056 17.2517 22.752C17.481 22.6788 17.7102 22.63 17.9103 22.4983C18.1913 22.3165 18.504 22.1891 18.8322 22.1227C19.0712 22.074 19.1931 21.9033 19.3345 21.7277C19.5101 21.5081 19.4955 21.2887 19.2955 21.0594C19.1195 20.8653 18.9504 20.6652 18.7882 20.4595C18.7639 20.4302 18.7492 20.3912 18.7492 20.3521L18.7394 19.8351C18.8369 19.9668 18.9784 20.0301 19.1589 20.0107C19.202 20.0075 19.2452 20.018 19.2819 20.0407C19.3187 20.0636 19.3474 20.0974 19.3638 20.1375C19.4126 20.2399 19.476 20.3229 19.5686 20.3863C19.5862 20.3986 19.6062 20.4066 19.6274 20.4101C19.6485 20.4134 19.67 20.412 19.6905 20.4057C19.9612 20.3263 20.2516 20.3506 20.5052 20.474C20.5601 20.4992 20.6206 20.5093 20.6807 20.5034C20.7319 20.4985 20.7817 20.4836 20.8271 20.4595C21.2709 20.2204 21.7538 19.9912 22.2709 19.7766C22.6713 19.6078 23.1054 19.5343 23.5391 19.5619C23.755 19.5748 23.9715 19.5781 24.1879 19.5717C24.4073 19.5717 24.6219 19.5815 24.8317 19.6204V19.6253Z" fill="#E7CF90"/>
<path d="M17.1345 20.0105L17.1101 19.9764C17.0906 19.9422 17.1004 19.9275 17.1394 19.9179C17.1638 19.913 17.1881 19.9179 17.2028 19.9324C17.2082 19.9365 17.2128 19.9416 17.2161 19.9474C17.2195 19.9534 17.2216 19.9598 17.2223 19.9666C17.2223 19.9958 17.2125 20.0154 17.1881 20.0252C17.1784 20.03 17.1638 20.03 17.154 20.0252C17.1462 20.0222 17.1395 20.0171 17.1345 20.0105Z" fill="#968C78"/>
<path d="M16.1008 20.2058C16.0889 20.2032 16.0785 20.1962 16.0715 20.1863C16.0652 20.1779 16.0618 20.1676 16.0618 20.1571C16.0618 20.1132 16.0715 20.079 16.1105 20.0596C16.1447 20.04 16.1691 20.0449 16.1886 20.079C16.2032 20.1034 16.2081 20.1278 16.213 20.1522C16.213 20.2009 16.1886 20.2205 16.1447 20.2107L16.1008 20.2058Z" fill="#5B4F40"/>
<path d="M16.5495 20.8302C16.7495 20.9326 17.1885 21.1424 17.4177 21.0643C17.5445 21.0252 17.6714 20.9667 17.808 20.9667C18.1648 20.9613 18.5185 20.9004 18.8567 20.7862C18.8653 20.7867 18.8736 20.7898 18.8806 20.795C18.8875 20.8002 18.8927 20.8073 18.8957 20.8155L18.9054 20.84V20.8887C18.902 20.8975 18.8967 20.9056 18.89 20.9123C18.8833 20.9191 18.8752 20.9243 18.8665 20.9277C18.4371 21.1082 18.1494 21.2058 17.9982 21.2204C17.6567 21.2692 17.4421 21.3033 17.3397 21.3423C17.1933 21.2692 17.0324 21.196 16.8665 21.1277C16.7075 21.063 16.5425 21.0141 16.3739 20.9814C15.7701 20.8586 15.1802 20.6756 14.613 20.4351C14.9047 20.3209 15.2287 20.3209 15.5203 20.4351C15.8612 20.5665 16.2027 20.6966 16.5446 20.8253L16.5495 20.8302Z" fill="#0B0802"/>
<path d="M14.6122 20.4349C15.1878 20.6787 15.7731 20.8641 16.3682 20.986C16.5633 21.025 16.7292 21.0689 16.8658 21.1323C17.0316 21.2006 17.1877 21.2689 17.3389 21.3421C17.1926 21.4884 17.0267 21.5372 16.8365 21.4787C16.5911 21.3964 16.3377 21.3408 16.0804 21.3128L15.6219 21.3177C15.6054 21.3175 15.5891 21.3139 15.574 21.3071C15.5589 21.3004 15.5454 21.2908 15.5341 21.2787C15.4171 21.1567 15.1147 21.108 14.9488 21.0689C14.8303 21.0315 14.7263 20.9582 14.6513 20.8592C14.5537 20.7373 14.5391 20.5958 14.6122 20.4349Z" fill="#5B4F40"/>
<path d="M24.9536 24.2101L24.0854 24.7369H24.0073C23.9964 24.7361 23.9858 24.7325 23.9766 24.7264C23.9675 24.7202 23.9601 24.7118 23.9552 24.702C23.9502 24.6922 23.9479 24.6812 23.9486 24.6702C23.9492 24.6592 23.9526 24.6486 23.9585 24.6393L24.3731 24.0345C24.422 23.9613 24.4512 23.8736 24.4561 23.776C24.4561 23.7321 24.4317 23.7077 24.3878 23.7077C24.0756 23.6979 24.1098 23.4442 24.0854 23.2199C24.0756 23.1175 24.1049 23.0394 24.1781 22.9809C24.617 22.6346 24.9828 22.22 25.2901 21.7419C25.5291 21.3664 25.9243 21.1762 26.2169 20.8591C26.2229 20.8524 26.2307 20.8475 26.2392 20.8449C26.2479 20.8424 26.257 20.8421 26.2657 20.8445C26.273 20.8481 26.2792 20.8536 26.2834 20.8606C26.2877 20.8674 26.2901 20.8754 26.2901 20.8835C26.2999 21.1664 26.2169 21.4103 26.0462 21.6249C25.856 21.8542 25.7634 22.1126 25.5974 22.3469C25.586 22.3629 25.578 22.3811 25.5739 22.4004C25.5696 22.4197 25.5694 22.4396 25.5731 22.459C25.6413 22.7517 25.5926 22.9858 25.4267 23.1711C25.3341 23.2687 25.2609 23.376 25.2073 23.4931C25.0999 23.7272 25.0122 23.9613 24.9536 24.2101Z" fill="#B87C29"/>
<path d="M14.3249 23.0737C14.2371 23.0982 14.242 23.1712 14.3347 23.3078C14.3786 23.3566 14.4274 23.4151 14.481 23.4591C14.9346 23.8395 15.1736 24.2297 15.7834 24.4639C15.8224 24.4834 15.8565 24.5126 15.8712 24.5517C15.9199 24.6492 15.9541 24.7419 15.9834 24.8346C16.0614 25.054 16.2028 25.254 16.4223 25.4296C16.4359 25.4404 16.4517 25.4482 16.4685 25.4524C16.4853 25.4566 16.5028 25.4572 16.5199 25.4541C16.5377 25.4506 16.5544 25.4431 16.5688 25.4321C16.5832 25.4211 16.5948 25.4069 16.6028 25.3906C16.6098 25.3758 16.6198 25.3625 16.6321 25.3517C16.6443 25.3414 16.66 25.3362 16.676 25.337C16.6906 25.337 16.7052 25.3419 16.715 25.3517C16.9979 25.6052 17.1052 26.2296 17.1979 26.6198C17.2047 26.6429 17.2202 26.6623 17.2412 26.6742C17.2621 26.686 17.2868 26.6893 17.3101 26.6833C17.3247 26.6833 17.3394 26.6735 17.3491 26.6588C17.6076 26.3905 17.7735 26.0735 17.8369 25.6979C17.8418 25.659 17.8662 25.6443 17.9052 25.6492H17.9393C17.9444 25.6487 17.9495 25.65 17.9538 25.6526C17.9582 25.6552 17.9617 25.6591 17.9637 25.6637V25.6735L17.949 25.8345C17.949 25.8784 17.9637 25.8931 18.0076 25.8882C18.0369 25.8882 18.0563 25.8735 18.071 25.8442L18.3002 25.3419C18.3587 25.2199 18.4612 25.1223 18.6075 25.0444C18.9003 24.898 19.2124 24.7614 19.466 24.5615C19.6846 24.3876 19.9217 24.2387 20.1733 24.1176C20.1796 24.1076 20.1822 24.0956 20.1803 24.084C20.1785 24.0724 20.1726 24.0617 20.1636 24.0542C20.1538 24.0493 20.1342 24.0542 20.105 24.0639C20.3099 23.9761 20.4611 23.9029 20.5489 23.8493C20.7928 23.703 20.8757 23.7664 20.8074 24.0395C20.7594 24.2147 20.6941 24.3846 20.6123 24.5468C20.5489 24.6688 20.466 24.7663 20.3489 24.8248C20.0074 25.0199 19.7831 25.3321 19.4319 25.4979C19.2396 25.5858 19.0672 25.712 18.9255 25.8688C18.7837 26.0257 18.6755 26.2099 18.6075 26.4101C18.4905 26.7808 18.2661 27.093 18.0563 27.41C17.8122 27.7521 17.473 28.015 17.0808 28.166C16.9638 28.1953 16.8565 28.2441 16.7589 28.3075C16.744 28.3173 16.7262 28.3216 16.7084 28.3198C16.6907 28.3181 16.674 28.3102 16.6613 28.2977C16.6034 28.1693 16.5656 28.0328 16.5492 27.8929C16.4935 27.4055 16.3618 26.9299 16.1589 26.4832C16.0877 26.3186 15.985 26.1694 15.8565 26.0442C15.3669 25.5697 14.8871 25.0851 14.4176 24.5907C14.2079 24.3712 14.1054 24.1176 13.9737 23.859C13.8207 23.5148 13.765 23.1353 13.8128 22.7615C13.8217 22.7505 13.8335 22.742 13.8469 22.7371C13.8567 22.7323 13.8713 22.7274 13.8859 22.7323C13.9006 22.7323 13.9152 22.7371 13.925 22.7469L14.3249 23.0737Z" fill="#E1B051"/>
<path d="M14.3252 23.0737L14.7739 23.4054C14.8812 23.4834 14.9837 23.5713 15.0763 23.6688C15.3885 23.9859 15.9543 24.1272 16.4079 24.2395C16.6616 24.3029 16.9933 24.3321 17.4079 24.3224C18.3317 24.2972 19.2525 24.2076 20.1638 24.0542C20.1695 24.0591 20.1742 24.0652 20.1772 24.0722C20.1801 24.0792 20.1814 24.0868 20.1809 24.0943C20.1805 24.102 20.1782 24.1093 20.1744 24.1159C20.1706 24.1225 20.1653 24.128 20.159 24.1321C19.9151 24.2492 19.6858 24.3907 19.4663 24.5614C19.2126 24.7614 18.9005 24.898 18.6078 25.0443C18.4614 25.1223 18.359 25.2198 18.3005 25.337C18.2273 25.5126 18.1493 25.6784 18.0713 25.8442C18.0666 25.8577 18.0581 25.8694 18.0468 25.878C18.0355 25.8867 18.022 25.8919 18.0079 25.893C17.9639 25.893 17.9493 25.8784 17.9493 25.8344L17.9639 25.6735C17.9639 25.6703 17.9633 25.6671 17.9621 25.6642C17.9609 25.6612 17.9591 25.6585 17.9568 25.6563C17.9545 25.654 17.9519 25.6522 17.9489 25.651C17.946 25.6497 17.9428 25.6491 17.9396 25.6491H17.9054C17.8664 25.6443 17.8421 25.6589 17.8372 25.6979C17.7774 26.0608 17.607 26.3964 17.3494 26.6588C17.3383 26.6705 17.3243 26.679 17.3089 26.6833C17.2934 26.6876 17.277 26.6876 17.2615 26.6833C17.2463 26.6793 17.2323 26.6713 17.2211 26.6601C17.21 26.649 17.202 26.6351 17.1981 26.6197C17.1006 26.2296 17.003 25.6052 16.7152 25.3516C16.7043 25.3424 16.6905 25.3373 16.6762 25.337C16.6567 25.337 16.6421 25.337 16.6323 25.3516C16.62 25.3625 16.6101 25.3758 16.6031 25.3906C16.5951 25.4068 16.5834 25.4211 16.5691 25.4321C16.5547 25.443 16.5379 25.4505 16.5201 25.4541C16.5031 25.4571 16.4856 25.4566 16.4687 25.4524C16.4519 25.4482 16.4362 25.4404 16.4226 25.4296C16.2224 25.2773 16.0701 25.0708 15.9836 24.8346C15.9543 24.7371 15.9153 24.6443 15.8714 24.5516C15.8633 24.532 15.8514 24.514 15.8363 24.499C15.8212 24.4838 15.8033 24.472 15.7836 24.4639C15.1739 24.2297 14.9349 23.8395 14.4813 23.459C14.4276 23.4102 14.3788 23.3615 14.3349 23.3078C14.2374 23.1761 14.2374 23.0981 14.3252 23.0737Z" fill="#B87C29"/>
<path d="M27.5144 23.4248C27.5436 23.6394 27.5827 23.854 27.6266 24.0637C27.6949 24.3661 27.6754 24.6345 27.69 24.9418C27.6998 25.2588 27.8071 25.6247 27.8168 25.9807C27.8168 26.2197 27.8168 26.4538 27.8022 26.6879C27.7876 27.127 26.934 27.8099 26.4852 28.1902C26.1048 28.5171 25.7438 28.6635 25.4122 28.6293C25.2268 28.5073 24.9683 28.5073 24.6366 28.6293C24.539 28.6635 24.5293 28.6439 24.6025 28.5707C24.7438 28.4245 24.8463 28.2391 24.9195 28.0195C24.9307 27.9816 24.9528 27.9477 24.9829 27.922C25.1 27.8244 25.2268 27.7513 25.3731 27.6928C25.4999 27.6343 25.6219 27.5562 25.661 27.4098C25.7292 27.1465 26.1682 26.7416 26.3633 26.5513C26.4706 26.4489 26.4901 26.3417 26.5487 26.2099C26.563 26.1801 26.587 26.1561 26.617 26.1416C26.773 26.0587 26.8608 25.9416 26.8657 25.7856C26.8876 25.4761 26.9153 25.1672 26.9486 24.8588C26.9681 24.6442 27.0022 24.4296 27.1145 24.2393C27.251 24.0003 27.2267 23.7955 27.3095 23.5419C27.3827 23.298 27.4559 23.2589 27.5144 23.4248Z" fill="#C89539"/>
<path d="M25.368 27.6931C25.2217 27.7516 25.0998 27.8296 24.9827 27.9223C24.9526 27.948 24.9305 27.9819 24.9193 28.0198C24.8568 28.2253 24.7484 28.4137 24.6023 28.571C24.5291 28.6442 24.5437 28.6686 24.6412 28.6296C24.9681 28.5076 25.2266 28.5076 25.412 28.6296C25.4156 28.6835 25.4084 28.7376 25.3908 28.7887C25.3733 28.8398 25.3456 28.8868 25.3095 28.9271C25.2607 28.9905 25.173 29.0441 25.0558 29.0832C24.6218 29.2246 24.2315 29.3856 23.8804 29.571C23.6121 29.7076 23.3292 29.727 23.0414 29.8002C22.9536 29.8247 22.8512 29.8002 22.778 29.8685C22.7644 29.8813 22.7483 29.8911 22.7305 29.8971C22.7129 29.903 22.6941 29.9049 22.6756 29.9026C22.466 29.8774 22.2539 29.884 22.0463 29.9222C21.8561 29.9612 21.6707 29.9807 21.4854 29.9807C20.227 29.9954 18.905 30.0392 17.6369 29.9124C17.4633 29.8939 17.2964 29.8355 17.1491 29.7417L16.6272 29.4052C16.9442 29.3369 17.2223 29.2101 17.5052 29.1564C17.7735 29.1076 18.0563 29.0637 18.2808 28.9125C18.4466 28.7906 18.6222 28.7125 18.8026 28.6686C19.4026 28.5223 19.6562 27.9564 20.1684 27.6687C20.3147 27.5857 20.4709 27.5126 20.6269 27.4589C21.1781 27.2639 21.7293 27.0541 22.2756 26.8395C22.7975 26.6297 23.2121 26.4199 23.5145 26.22C23.7633 26.0493 23.9194 25.7322 24.1584 25.503C24.4999 25.1957 24.812 25.0883 25.1828 24.9225C25.3778 24.8397 25.5973 24.8055 25.8558 24.825C25.8869 24.8277 25.9162 24.8408 25.9392 24.862C25.9621 24.8831 25.9774 24.9112 25.9826 24.9421C26.0509 25.4639 26.1534 26.0053 25.8656 26.4833C25.7827 26.6199 25.7046 26.7761 25.6363 26.9321C25.6168 26.9809 25.5876 27.1126 25.5437 27.3224C25.5171 27.4587 25.4567 27.5862 25.368 27.6931Z" fill="#E7CF90"/>
</g>
</svg>
