<svg width="41" height="40" viewBox="0 0 41 40" fill="none" xmlns="http://www.w3.org/2000/svg">
<path d="M20.5 40C31.5457 40 40.5 31.0457 40.5 20C40.5 8.9543 31.5457 0 20.5 0C9.4543 0 0.5 8.9543 0.5 20C0.5 31.0457 9.4543 40 20.5 40Z" fill="#F7931A"/>
<path d="M21.486 7.40149L20.6188 10.881C21.1985 11.0133 21.7823 11.1467 22.3503 11.2882L23.2116 7.83215L25.3718 8.37024L24.487 11.92C27.215 12.8597 29.2101 14.2685 28.8181 16.8888C28.5343 18.8068 27.4709 19.7351 26.0593 20.0607C27.9977 21.0699 28.9843 22.6178 28.0446 25.3009C26.8785 28.6332 24.1078 28.9142 20.4235 28.2169L19.53 31.8009L17.3688 31.2618L18.2516 27.7267C17.6918 27.5876 17.1193 27.4403 16.53 27.2804L15.6442 30.8322L13.486 30.2931L14.3796 26.7032C13.8751 26.574 13.3625 26.4368 12.8395 26.3058L10.028 25.6046L11.1003 23.132C11.1003 23.132 12.6897 23.554 12.6716 23.5236C13.2826 23.6746 13.5536 23.2766 13.6608 23.0109L15.0739 17.3458C15.1533 17.3649 15.2304 17.3846 15.3024 17.4025C15.2163 17.368 15.1381 17.3456 15.0778 17.3302L16.0856 13.2872C16.1121 12.8282 15.9539 12.2489 15.0788 12.0304C15.1126 12.0076 13.5095 11.6398 13.5095 11.6398L14.0847 9.33215L17.0641 10.0763L17.0622 10.087C17.51 10.1984 17.9712 10.3042 18.4411 10.4113L19.3268 6.8634L21.486 7.40149ZM17.2321 24.6798C18.697 25.0436 23.2139 26.4936 23.8815 23.8107C24.5788 21.0131 19.8837 20.2895 18.4186 19.924L17.2321 24.6798ZM18.9606 17.7462C20.1806 18.0503 23.9403 19.2902 24.5495 16.8497C25.1837 14.304 21.2555 13.7367 20.0358 13.4327L18.9606 17.7462Z" fill="white"/>
</svg>
