<svg width="314" height="225" viewBox="0 0 314 225" fill="none" xmlns="http://www.w3.org/2000/svg">
<path d="M279.575 112.259C279.575 112.259 181.839 115.465 165.214 174.792" stroke="#E5E5E5" stroke-width="2" stroke-linecap="round"/>
<path d="M32.3821 111.253C32.3821 111.253 130.047 116.159 145.637 175.766" stroke="#E5E5E5" stroke-width="2" stroke-linecap="round"/>
<path d="M76.0564 78.201C76.0564 78.201 143.055 89.7018 156.555 172.704" stroke="#E5E5E5" stroke-width="2" stroke-linecap="round"/>
<path d="M156.555 51.7012C156.555 51.7012 156.554 89.2012 156.553 172.704" stroke="#E5E5E5" stroke-width="2" stroke-linecap="round"/>
<path d="M231.786 77.3739C231.786 77.3739 164.787 88.8747 151.287 171.877" stroke="#E5E5E5" stroke-width="2" stroke-linecap="round"/>
<path d="M280.794 88.0537H301.229C307.266 88.0538 312.159 92.9472 312.159 98.9834V119.24C312.159 125.277 307.266 130.17 301.229 130.17H280.794C274.758 130.17 269.864 125.277 269.864 119.24V98.9834C269.864 92.9472 274.758 88.0538 280.794 88.0537Z" fill="white" stroke="#E5E5E5" stroke-width="0.705149"/>
<path d="M284.152 110.055C283.953 108.492 284.254 106.906 285.012 105.525C285.603 104.443 286.467 103.534 287.518 102.888C288.551 102.254 289.736 101.911 290.948 101.896C292.16 101.884 293.352 102.201 294.398 102.813L295.982 101.971C294.732 101.02 293.237 100.446 291.672 100.315C290.112 100.189 288.549 100.514 287.168 101.251C285.765 102.003 284.598 103.129 283.796 104.504C282.863 106.1 282.437 107.942 282.575 109.785C282.598 110.1 282.531 110.415 282.382 110.693C282.233 110.969 282.009 111.193 281.739 111.337L281.012 111.723V113.526L301.012 102.898V101.096L284.152 110.055ZM301.012 104.701L285.223 113.085L281.012 115.324V117.125L297.876 108.163C297.915 108.479 297.935 108.796 297.935 109.114C297.935 110.369 297.619 111.604 297.016 112.705C296.424 113.788 295.559 114.698 294.507 115.344C293.472 115.978 292.285 116.32 291.072 116.333C289.864 116.345 288.673 116.027 287.619 115.411L287.535 115.458L286.041 116.252C287.29 117.203 288.785 117.777 290.349 117.908C291.909 118.034 293.473 117.71 294.854 116.973C296.256 116.222 297.424 115.097 298.226 113.722C299.161 112.125 299.588 110.281 299.449 108.435C299.426 108.121 299.493 107.806 299.642 107.528C299.788 107.255 300.011 107.031 300.284 106.884L301.012 106.498V104.701Z" fill="#A3A3A3"/>
<path d="M134.794 1.05371H178.229C184.266 1.0538 189.159 5.94716 189.159 11.9834V55.4189C189.159 61.4552 184.266 66.3485 178.229 66.3486H134.794C128.758 66.3485 123.864 61.4552 123.864 55.4189V11.9834C123.864 5.94716 128.758 1.0538 134.794 1.05371Z" fill="black" stroke="#E5E5E5" stroke-width="0.705149"/>
<path d="M168.981 25.733C168.763 25.9335 168.479 26.0462 168.182 26.0494H140.139C139.144 26.0494 138.641 24.9112 139.33 24.2452L143.936 19.8048C144.15 19.5981 144.435 19.4804 144.732 19.4756H172.886C173.891 19.4756 174.384 20.624 173.684 21.2926L168.981 25.733Z" fill="url(#paint0_linear_375_8253)"/>
<path d="M168.981 47.6199C168.762 47.8166 168.477 47.9256 168.182 47.9262H140.139C139.144 47.9262 138.641 46.7981 139.33 46.1321L143.936 41.679C144.151 41.4748 144.436 41.3612 144.732 41.3624H172.886C173.891 41.3624 174.384 42.5006 173.684 43.1667L168.981 47.6199Z" fill="url(#paint1_linear_375_8253)"/>
<path d="M168.981 30.7313C168.762 30.5346 168.477 30.4256 168.182 30.425H140.139C139.144 30.425 138.641 31.5531 139.33 32.2191L143.936 36.6722C144.154 36.872 144.437 36.9849 144.732 36.9888H172.886C173.891 36.9888 174.384 35.8506 173.684 35.1845L168.981 30.7313Z" fill="url(#paint2_linear_375_8253)"/>
<path d="M63.7939 53.0537H84.2295C90.2657 53.0538 95.1591 57.9472 95.1592 63.9834V84.2402C95.1592 90.2766 90.2658 95.1698 84.2295 95.1699H63.7939C57.7576 95.1698 52.8643 90.2766 52.8643 84.2402V63.9834C52.8643 57.9472 57.7577 53.0538 63.7939 53.0537Z" fill="white" stroke="#E5E5E5" stroke-width="0.705149"/>
<path d="M76.027 76.1729L74.7115 79.7584C74.6714 79.8599 74.6714 79.9728 74.7115 80.0742L76.9666 86.253L79.5898 84.7495L76.4479 76.1729C76.4316 76.1304 76.4027 76.0938 76.3651 76.0681C76.3276 76.0422 76.2831 76.0284 76.2375 76.0284C76.1919 76.0284 76.1472 76.0422 76.1098 76.0681C76.0721 76.0938 76.0432 76.1304 76.027 76.1729ZM78.6578 70.1295C78.6415 70.087 78.6125 70.0504 78.575 70.0246C78.5375 69.9988 78.4929 69.985 78.4473 69.985C78.4017 69.985 78.3572 69.9988 78.3196 70.0246C78.2821 70.0504 78.2532 70.087 78.2369 70.1295L76.9215 73.715C76.8813 73.8164 76.8813 73.9294 76.9215 74.0307L80.6271 84.1483L83.2431 82.6448L78.6578 70.122V70.1295Z" fill="#A3A3A3"/>
<path d="M74.0121 62.0941C74.0797 62.0941 74.1399 62.1092 74.2001 62.1467L84.3477 68.0474C84.4045 68.0802 84.4516 68.1273 84.4846 68.184C84.5177 68.2407 84.5351 68.305 84.5355 68.3706V79.8486C84.5351 79.9142 84.5177 79.9785 84.4846 80.0352C84.4516 80.092 84.4045 80.1391 84.3477 80.1718L74.2001 86.0951C74.1428 86.1275 74.0781 86.1442 74.0121 86.1442C73.9463 86.1442 73.8817 86.1275 73.8243 86.0951L63.6766 80.1794C63.6198 80.1465 63.5726 80.0996 63.5396 80.0428C63.5067 79.9861 63.4891 79.9217 63.4887 79.8561V68.3706C63.4887 68.2353 63.5639 68.115 63.6766 68.0474L73.8243 62.1467C73.8802 62.11 73.9452 62.0892 74.0121 62.0866V62.0941ZM74.0121 60.5833C73.6588 60.5833 73.298 60.681 72.9824 60.8614L63.0151 66.5967C62.703 66.776 62.4435 67.0343 62.2627 67.3457C62.0819 67.6571 61.9863 68.0106 61.9854 68.3706V79.8486C61.9854 80.5777 62.3762 81.2617 63.0151 81.63L72.9824 87.3652C73.2954 87.5461 73.6506 87.6414 74.0121 87.6414C74.3737 87.6414 74.7288 87.5461 75.042 87.3652L85.009 81.63C85.3233 81.4513 85.5846 81.1921 85.7656 80.879C85.9465 80.5659 86.0409 80.2103 86.039 79.8486V68.3706C86.039 67.6415 85.648 66.9575 85.009 66.5967L75.042 60.8614C74.7263 60.681 74.3653 60.5833 74.0121 60.5833Z" fill="#A3A3A3"/>
<path d="M67.4201 84.1632L68.3372 81.6602L70.1787 83.1861L68.4574 84.7647L67.4201 84.1632Z" fill="#213147"/>
<path d="M73.1782 67.3484H70.645C70.5515 67.3498 70.4609 67.3802 70.3855 67.4354C70.3101 67.4906 70.2537 67.5679 70.2241 67.6566L64.8121 82.6374L67.4204 84.1632L73.3887 67.6641C73.4413 67.5137 73.336 67.3484 73.1706 67.3484H73.1782ZM77.598 67.3484H75.0724C74.9798 67.3493 74.8899 67.3786 74.8146 67.4324C74.7393 67.4862 74.6823 67.5618 74.6515 67.6491L68.4577 84.7421L71.0735 86.2679L77.8085 67.6566C77.822 67.6223 77.8269 67.5853 77.8228 67.5487C77.8186 67.5121 77.8056 67.4771 77.7849 67.4467C77.7641 67.4163 77.7362 67.3915 77.7038 67.3743C77.6712 67.3572 77.6349 67.3483 77.598 67.3484Z" fill="#A3A3A3"/>
<path d="M229.794 53.0537H250.229C256.266 53.0538 261.159 57.9472 261.159 63.9834V84.2402C261.159 90.2766 256.266 95.1698 250.229 95.1699H229.794C223.758 95.1698 218.864 90.2766 218.864 84.2402V63.9834C218.864 57.9472 223.758 53.0538 229.794 53.0537Z" fill="white" stroke="#E5E5E5" stroke-width="0.705149"/>
<path d="M246.04 65.1336L241.862 71.3336C241.576 71.7621 242.133 72.262 242.533 71.9121L246.176 68.3407C246.283 68.2478 246.44 68.3121 246.44 68.4693V79.6478C246.44 79.7978 246.24 79.8619 246.154 79.7548L234.183 64.8693C233.988 64.6287 233.74 64.4356 233.459 64.3045C233.179 64.1733 232.872 64.1076 232.562 64.1122C231.276 64.1122 230.012 64.7622 230.012 66.2479V81.9691C230.014 82.4322 230.168 82.8821 230.448 83.2506C230.729 83.6191 231.122 83.8864 231.568 84.0122C232.013 84.1379 232.488 84.1154 232.92 83.9477C233.352 83.7802 233.717 83.4769 233.962 83.0834L238.133 76.8835C238.419 76.4548 237.869 75.9548 237.469 76.3048L233.847 79.9478C233.74 80.0406 233.583 79.9763 233.583 79.8191V68.6693C233.583 68.5121 233.783 68.455 233.869 68.5621L245.819 83.3547C246.219 83.8477 246.819 84.1119 247.44 84.1119C248.733 84.1119 250.012 83.4691 250.012 81.9763V66.255C250.011 65.7881 249.858 65.3342 249.576 64.9623C249.293 64.5904 248.897 64.3209 248.448 64.1948C247.998 64.0686 247.52 64.0928 247.085 64.2635C246.65 64.4343 246.284 64.7423 246.04 65.1407V65.1336Z" fill="#A3A3A3"/>
<path d="M20.7939 87.0537H41.2295C47.2657 87.0538 52.1591 91.9472 52.1592 97.9834V118.24C52.1592 124.277 47.2658 129.17 41.2295 129.17H20.7939C14.7576 129.17 9.86426 124.277 9.86426 118.24V97.9834C9.86435 91.9472 14.7577 87.0538 20.7939 87.0537Z" fill="white" stroke="#E5E5E5" stroke-width="0.705149"/>
<path d="M31.2131 112.773H37.209V116.357H33.6253V118.917H30.5511V116.357H26.97V113.104L32.9368 105.606H26.97V102.023H30.5511V99.4628H33.6253V102.023H37.209V105.275L31.2131 112.773Z" fill="#A3A3A3"/>
<path d="M127.124 122.459H177.754C185.16 122.46 191.164 128.463 191.164 135.87C191.164 143.276 185.16 149.281 177.754 149.281H127.124C119.718 149.281 113.714 143.276 113.714 135.87C113.714 128.463 119.718 122.46 127.124 122.459Z" fill="#171717"/>
<path d="M127.124 122.459H177.754C185.16 122.46 191.164 128.463 191.164 135.87C191.164 143.276 185.16 149.281 177.754 149.281H127.124C119.718 149.281 113.714 143.276 113.714 135.87C113.714 128.463 119.718 122.46 127.124 122.459Z" stroke="#737373" stroke-width="0.694487"/>
<path d="M139.064 139.525C138.358 139.525 137.807 139.367 137.411 139.049C137.016 138.725 136.818 138.268 136.818 137.678C136.818 137.38 136.86 137.114 136.945 136.881C137.035 136.647 137.181 136.427 137.382 136.22C137.583 136.006 137.855 135.785 138.199 135.559C138.05 135.371 137.923 135.196 137.82 135.033C137.716 134.865 137.635 134.696 137.577 134.528C137.525 134.353 137.499 134.165 137.499 133.964C137.499 133.452 137.658 133.05 137.975 132.758C138.299 132.46 138.747 132.311 139.317 132.311C139.699 132.311 140.023 132.376 140.289 132.506C140.555 132.629 140.756 132.807 140.892 133.04C141.028 133.267 141.096 133.536 141.096 133.847C141.096 134.23 140.98 134.567 140.746 134.858C140.519 135.15 140.15 135.458 139.638 135.782L141.048 137.571C141.261 137.279 141.368 136.839 141.368 136.249L142.409 136.346C142.396 136.729 142.325 137.098 142.195 137.454C142.072 137.811 141.91 138.106 141.709 138.339L142.574 139.37H141.349L141.028 138.981C140.834 139.143 140.568 139.273 140.231 139.37C139.9 139.474 139.511 139.525 139.064 139.525ZM139.171 138.582C139.463 138.582 139.706 138.55 139.9 138.485C140.095 138.42 140.244 138.336 140.348 138.232L138.782 136.278C138.471 136.492 138.247 136.703 138.111 136.91C137.975 137.111 137.907 137.348 137.907 137.62C137.907 137.911 138.008 138.145 138.209 138.32C138.416 138.495 138.737 138.582 139.171 138.582ZM139.093 135.102C139.314 134.965 139.492 134.839 139.628 134.722C139.764 134.599 139.861 134.473 139.92 134.343C139.978 134.214 140.007 134.074 140.007 133.925C140.007 133.718 139.946 133.559 139.823 133.449C139.706 133.332 139.541 133.274 139.327 133.274C139.093 133.274 138.909 133.335 138.772 133.458C138.643 133.582 138.578 133.757 138.578 133.983C138.578 134.1 138.594 134.217 138.627 134.333C138.659 134.444 138.711 134.56 138.782 134.683C138.86 134.807 138.964 134.946 139.093 135.102ZM145.963 139.37V132.467H147.402L149.453 138.135L151.505 132.467H152.944V139.37H151.894V134.314L150.037 139.36H148.87L147.013 134.314V139.37H145.963ZM156.54 139.487C156.048 139.487 155.617 139.376 155.247 139.156C154.878 138.936 154.592 138.621 154.392 138.213C154.191 137.804 154.09 137.328 154.09 136.784C154.09 136.233 154.191 135.756 154.392 135.354C154.592 134.952 154.878 134.641 155.247 134.421C155.617 134.194 156.048 134.081 156.54 134.081C157.033 134.081 157.464 134.194 157.833 134.421C158.203 134.641 158.488 134.952 158.689 135.354C158.89 135.756 158.99 136.233 158.99 136.784C158.99 137.328 158.89 137.804 158.689 138.213C158.488 138.621 158.203 138.936 157.833 139.156C157.464 139.376 157.033 139.487 156.54 139.487ZM156.54 138.592C156.981 138.592 157.321 138.433 157.561 138.116C157.801 137.792 157.921 137.348 157.921 136.784C157.921 136.22 157.801 135.779 157.561 135.461C157.321 135.137 156.981 134.975 156.54 134.975C156.106 134.975 155.766 135.137 155.519 135.461C155.28 135.779 155.16 136.22 155.16 136.784C155.16 137.348 155.28 137.792 155.519 138.116C155.766 138.433 156.106 138.592 156.54 138.592ZM160.032 139.37V134.197H160.975L161.014 135.568L160.926 135.539C160.998 135.072 161.14 134.732 161.354 134.518C161.575 134.304 161.87 134.197 162.239 134.197H162.735V135.121H162.239C161.98 135.121 161.763 135.163 161.588 135.247C161.413 135.332 161.28 135.461 161.189 135.636C161.105 135.811 161.063 136.038 161.063 136.317V139.37H160.032ZM165.598 139.487C165.093 139.487 164.655 139.376 164.286 139.156C163.923 138.936 163.641 138.621 163.44 138.213C163.246 137.804 163.148 137.328 163.148 136.784C163.148 136.239 163.246 135.766 163.44 135.364C163.641 134.956 163.923 134.641 164.286 134.421C164.649 134.194 165.077 134.081 165.569 134.081C166.036 134.081 166.448 134.191 166.804 134.411C167.161 134.625 167.436 134.936 167.631 135.345C167.831 135.753 167.932 136.246 167.932 136.822V137.085H164.218C164.244 137.591 164.377 137.97 164.616 138.223C164.863 138.475 165.193 138.602 165.608 138.602C165.913 138.602 166.166 138.53 166.367 138.388C166.568 138.245 166.707 138.054 166.785 137.814L167.854 137.882C167.718 138.362 167.449 138.751 167.047 139.049C166.652 139.341 166.169 139.487 165.598 139.487ZM164.218 136.307H166.843C166.811 135.847 166.678 135.507 166.444 135.286C166.217 135.066 165.926 134.956 165.569 134.956C165.2 134.956 164.895 135.072 164.655 135.306C164.422 135.533 164.276 135.866 164.218 136.307Z" fill="#F8FAFC"/>
<path d="M139.377 183.931C139.377 182.794 140.291 181.872 141.419 181.872H152.312C153.44 181.872 154.355 182.794 154.355 183.931C154.355 185.068 153.44 185.989 152.312 185.989H141.419C140.291 185.989 139.377 185.068 139.377 183.931Z" fill="#171717"/>
<path fill-rule="evenodd" clip-rule="evenodd" d="M185.422 185.031C185.246 185.02 185.055 185.02 184.856 185.021L184.807 185.021H177.021C170.603 185.021 165.112 189.926 165.112 196.322C165.112 202.719 170.603 207.624 177.021 207.624H184.807L184.856 207.624C185.055 207.624 185.246 207.624 185.422 207.613C188.029 207.454 190.334 205.473 190.528 202.706C190.541 202.525 190.541 202.329 190.541 202.148L190.541 202.099V190.546L190.541 190.497C190.541 190.315 190.541 190.12 190.528 189.938C190.334 187.172 188.029 185.191 185.422 185.031ZM176.33 199.336C177.983 199.336 179.322 197.987 179.322 196.322C179.322 194.658 177.983 193.308 176.33 193.308C174.678 193.308 173.339 194.658 173.339 196.322C173.339 197.987 174.678 199.336 176.33 199.336Z" fill="#171717"/>
<path opacity="0.71" d="M185.284 185.025C185.284 181.689 185.162 178.111 183.03 175.546C182.824 175.298 182.605 175.058 182.372 174.824C180.257 172.71 177.576 171.771 174.263 171.326C171.045 170.893 166.932 170.893 161.739 170.893H155.77C150.577 170.893 146.464 170.893 143.246 171.326C139.933 171.771 137.252 172.71 135.137 174.824C133.023 176.939 132.085 179.62 131.639 182.933C131.206 186.151 131.207 190.264 131.207 195.457V195.775C131.207 200.968 131.206 205.081 131.639 208.299C132.085 211.612 133.023 214.293 135.137 216.408C137.252 218.522 139.933 219.461 143.246 219.906C146.464 220.339 150.577 220.339 155.77 220.339H161.739C166.932 220.339 171.045 220.339 174.263 219.906C177.576 219.461 180.257 218.522 182.372 216.408C182.95 215.83 183.44 215.209 183.857 214.542C185.13 212.51 185.284 210.018 185.284 207.62C185.148 207.624 185.004 207.624 184.856 207.624L177.021 207.624C170.603 207.624 165.112 202.719 165.112 196.322C165.112 189.926 170.603 185.021 177.021 185.021L184.856 185.021C185.004 185.021 185.148 185.021 185.284 185.025Z" fill="#171717"/>
<path d="M154.097 164.033L148.159 168.047L143.262 171.324C146.478 170.893 150.586 170.893 155.77 170.893H161.74C166.932 170.893 171.045 170.893 174.264 171.326C174.911 171.413 175.534 171.519 176.134 171.649L170.763 168.068L164.794 164.033C161.605 161.878 157.285 161.878 154.097 164.033Z" fill="#171717"/>
<defs>
<linearGradient id="paint0_linear_375_8253" x1="139.014" y1="117.391" x2="174.904" y2="117.062" gradientUnits="userSpaceOnUse">
<stop stop-color="#599DB0"/>
<stop offset="1" stop-color="#47F8C3"/>
</linearGradient>
<linearGradient id="paint1_linear_375_8253" x1="139.014" y1="28.1932" x2="174.676" y2="27.9203" gradientUnits="userSpaceOnUse">
<stop stop-color="#C44FE2"/>
<stop offset="1" stop-color="#73B0D0"/>
</linearGradient>
<linearGradient id="paint2_linear_375_8253" x1="141.027" y1="33.7068" x2="172.656" y2="33.7068" gradientUnits="userSpaceOnUse">
<stop stop-color="#778CBF"/>
<stop offset="1" stop-color="#5DCDC9"/>
</linearGradient>
</defs>
</svg>
