<svg width="324" height="226" viewBox="0 0 324 226" fill="none" xmlns="http://www.w3.org/2000/svg">
<rect width="324" height="226" fill="white"/>
<path d="M4.99633 33.0796V31.9053H9.5793V33.0796H4.99633ZM6.6383 33.0796V28.0186H4.99633V26.9897H5.68222C5.98013 26.9897 6.21915 26.9516 6.39928 26.8754C6.57941 26.7992 6.70759 26.6676 6.78379 26.4805C6.86693 26.2865 6.9085 26.0267 6.9085 25.7011H7.98929V33.0796H6.6383ZM10.837 33.0796V31.6247H12.3543V33.0796H10.837ZM17.0613 33.0796V25.7011H18.4123V33.0796H17.0613ZM20.0527 33.0796V27.5301H21.2582L21.3102 29.089L21.1543 29.0266C21.2097 28.6386 21.3241 28.3269 21.4973 28.0913C21.6705 27.8558 21.8818 27.6826 22.1312 27.5717C22.3806 27.4609 22.6543 27.4054 22.9522 27.4054C23.3609 27.4054 23.7039 27.4955 23.981 27.6756C24.2651 27.8558 24.4798 28.1052 24.6253 28.4239C24.7708 28.7356 24.8436 29.0994 24.8436 29.5151V33.0796H23.5134V29.9411C23.5134 29.6294 23.4822 29.3661 23.4198 29.1513C23.3575 28.9366 23.2535 28.7737 23.1081 28.6629C22.9695 28.5451 22.7824 28.4862 22.5469 28.4862C22.1935 28.4862 21.9095 28.6109 21.6947 28.8603C21.4869 29.1098 21.3829 29.47 21.3829 29.9411V33.0796H20.0527ZM28.4173 33.2043C27.87 33.2043 27.4093 33.1246 27.0352 32.9653C26.668 32.8059 26.3839 32.5842 26.183 32.3002C25.9821 32.0161 25.8678 31.694 25.8401 31.3337L27.2015 31.2713C27.25 31.5623 27.3712 31.7875 27.5652 31.9468C27.7592 32.1062 28.0467 32.1859 28.4277 32.1859C28.7395 32.1859 28.982 32.1374 29.1552 32.0404C29.3353 31.9364 29.4254 31.7771 29.4254 31.5623C29.4254 31.4376 29.3942 31.3337 29.3319 31.2506C29.2695 31.1674 29.1517 31.0947 28.9785 31.0323C28.8053 30.97 28.549 30.9076 28.2095 30.8453C27.6414 30.7483 27.1945 30.6305 26.8689 30.4919C26.5433 30.3464 26.3112 30.1663 26.1726 29.9515C26.041 29.7368 25.9752 29.47 25.9752 29.1513C25.9752 28.6317 26.1726 28.2126 26.5675 27.8939C26.9694 27.5682 27.5548 27.4054 28.3238 27.4054C28.8226 27.4054 29.2418 27.4886 29.5813 27.6548C29.9208 27.8142 30.184 28.0359 30.3711 28.3199C30.5651 28.5971 30.6863 28.9158 30.7348 29.276L29.3942 29.3384C29.3596 29.1513 29.2972 28.9885 29.2072 28.85C29.1171 28.7114 28.9958 28.6075 28.8434 28.5382C28.691 28.462 28.5109 28.4239 28.303 28.4239C27.9913 28.4239 27.7557 28.4862 27.5964 28.6109C27.437 28.7356 27.3573 28.9019 27.3573 29.1098C27.3573 29.2552 27.392 29.3765 27.4613 29.4735C27.5375 29.5705 27.6587 29.6502 27.825 29.7125C27.9913 29.7679 28.213 29.8199 28.4901 29.8684C29.0721 29.9585 29.5293 30.0762 29.8619 30.2217C30.2013 30.3603 30.4404 30.5404 30.5789 30.7621C30.7244 30.9769 30.7972 31.2367 30.7972 31.5415C30.7972 31.8949 30.6967 32.1963 30.4958 32.4457C30.3018 32.6951 30.0247 32.8856 29.6644 33.0172C29.3111 33.1419 28.8954 33.2043 28.4173 33.2043ZM33.8664 33.0796C33.3122 33.0796 32.9034 32.9514 32.6402 32.6951C32.3838 32.4387 32.2557 32.0369 32.2557 31.4896V26.2311H33.5859V31.3649C33.5859 31.6212 33.6413 31.8013 33.7521 31.9053C33.863 32.0023 34.0362 32.0508 34.2717 32.0508H35.0512V33.0796H33.8664ZM31.3827 28.559V27.5301H35.0512V28.559H31.3827ZM37.6071 33.2043C37.0251 33.2043 36.5575 33.0727 36.2041 32.8094C35.8508 32.5392 35.6741 32.1651 35.6741 31.687C35.6741 31.209 35.8231 30.8349 36.121 30.5647C36.4189 30.2945 36.8727 30.1005 37.4824 29.9827L39.3218 29.619C39.3218 29.2241 39.2317 28.9296 39.0516 28.7356C38.8715 28.5347 38.6047 28.4343 38.2514 28.4343C37.9327 28.4343 37.6798 28.5105 37.4928 28.6629C37.3126 28.8084 37.1879 29.0197 37.1186 29.2968L35.7677 29.2345C35.8785 28.6456 36.1487 28.1952 36.5783 27.8835C37.0078 27.5648 37.5655 27.4054 38.2514 27.4054C39.0412 27.4054 39.637 27.6063 40.0389 28.0082C40.4476 28.4031 40.652 28.9712 40.652 29.7125V31.7286C40.652 31.8741 40.6763 31.9745 40.7247 32.03C40.7802 32.0854 40.8598 32.1131 40.9638 32.1131H41.1404V33.0796C41.0989 33.0934 41.0296 33.1038 40.9326 33.1108C40.8425 33.1177 40.749 33.1212 40.652 33.1212C40.4234 33.1212 40.219 33.0865 40.0389 33.0172C39.8587 32.941 39.7202 32.8129 39.6232 32.6327C39.5262 32.4457 39.4777 32.1928 39.4777 31.8741L39.592 31.9572C39.5366 32.1997 39.4153 32.418 39.2283 32.6119C39.0481 32.799 38.8195 32.9445 38.5424 33.0484C38.2653 33.1523 37.9535 33.2043 37.6071 33.2043ZM37.8773 32.2378C38.1752 32.2378 38.4315 32.1789 38.6463 32.0612C38.8611 31.9434 39.0274 31.7806 39.1451 31.5727C39.2629 31.3649 39.3218 31.1189 39.3218 30.8349V30.5231L37.8877 30.8141C37.5898 30.8764 37.375 30.97 37.2434 31.0947C37.1186 31.2125 37.0563 31.3683 37.0563 31.5623C37.0563 31.7771 37.1256 31.9434 37.2641 32.0612C37.4096 32.1789 37.614 32.2378 37.8773 32.2378ZM43.2533 33.0796C42.8515 33.0796 42.5293 32.9757 42.2868 32.7678C42.0443 32.56 41.9231 32.2274 41.9231 31.7702V25.7011H43.2533V31.6351C43.2533 31.7736 43.288 31.8776 43.3572 31.9468C43.4334 32.0161 43.5374 32.0508 43.669 32.0508H44.0743V33.0796H43.2533ZM46.237 33.0796C45.8352 33.0796 45.513 32.9757 45.2705 32.7678C45.0281 32.56 44.9068 32.2274 44.9068 31.7702V25.7011H46.237V31.6351C46.237 31.7736 46.2717 31.8776 46.3409 31.9468C46.4171 32.0161 46.5211 32.0508 46.6527 32.0508H47.058V33.0796H46.237ZM52.6719 33.0796C52.1177 33.0796 51.7089 32.9514 51.4456 32.6951C51.1893 32.4387 51.0611 32.0369 51.0611 31.4896V26.2311H52.3913V31.3649C52.3913 31.6212 52.4468 31.8013 52.5576 31.9053C52.6685 32.0023 52.8417 32.0508 53.0772 32.0508H53.8566V33.0796H52.6719ZM50.1882 28.559V27.5301H53.8566V28.559H50.1882ZM54.8322 33.0796V25.7011H56.1624V28.798H55.9961C56.0516 28.4793 56.1624 28.2195 56.3287 28.0186C56.495 27.8107 56.6993 27.6583 56.9418 27.5613C57.1843 27.4574 57.451 27.4054 57.742 27.4054C58.1508 27.4054 58.4937 27.4955 58.7709 27.6756C59.0549 27.8488 59.2662 28.0948 59.4048 28.4135C59.5503 28.7322 59.623 29.0994 59.623 29.5151V33.0796H58.2928V29.8372C58.2928 29.3869 58.2166 29.0509 58.0642 28.8292C57.9118 28.6005 57.6727 28.4862 57.3471 28.4862C56.9869 28.4862 56.6993 28.604 56.4846 28.8396C56.2698 29.0751 56.1624 29.4181 56.1624 29.8684V33.0796H54.8322ZM63.3423 33.2043C62.788 33.2043 62.3065 33.0865 61.8978 32.851C61.489 32.6085 61.1738 32.269 60.9521 31.8325C60.7304 31.396 60.6195 30.8868 60.6195 30.3049C60.6195 29.7229 60.7304 29.2171 60.9521 28.7876C61.1738 28.3511 61.4856 28.0116 61.8874 27.7692C62.2961 27.5267 62.7707 27.4054 63.3111 27.4054C63.8377 27.4054 64.2984 27.5232 64.6933 27.7588C65.0951 27.9943 65.4034 28.3338 65.6182 28.7772C65.833 29.2206 65.9404 29.7541 65.9404 30.3776V30.679H62.0017C62.0294 31.164 62.161 31.5311 62.3966 31.7806C62.6391 32.023 62.9578 32.1443 63.3527 32.1443C63.6506 32.1443 63.8966 32.0785 64.0905 31.9468C64.2915 31.8083 64.43 31.6177 64.5062 31.3753L65.8676 31.4584C65.7152 31.9988 65.4138 32.4249 64.9635 32.7366C64.5201 33.0484 63.9797 33.2043 63.3423 33.2043ZM62.0017 29.7853H64.5686C64.5409 29.3349 64.4127 29.0024 64.1841 28.7876C63.9554 28.5659 63.6645 28.455 63.3111 28.455C62.9578 28.455 62.6633 28.5694 62.4278 28.798C62.1992 29.0266 62.0571 29.3557 62.0017 29.7853ZM69.5376 34.6384V27.5301H70.8159L70.847 28.7149L70.7119 28.6525C70.8505 28.2437 71.0757 27.9354 71.3874 27.7276C71.7061 27.5128 72.0768 27.4054 72.4994 27.4054C73.0259 27.4054 73.4624 27.5371 73.8088 27.8003C74.1621 28.0636 74.4254 28.4135 74.5986 28.85C74.7718 29.2864 74.8584 29.7714 74.8584 30.3049C74.8584 30.8383 74.7684 31.3233 74.5882 31.7598C74.415 32.1963 74.1518 32.5461 73.7984 32.8094C73.452 33.0727 73.0155 33.2043 72.489 33.2043C72.2119 33.2043 71.9521 33.1558 71.7096 33.0588C71.474 32.9618 71.2696 32.8232 71.0964 32.6431C70.9302 32.463 70.8124 32.2517 70.7431 32.0092L70.8678 31.9053V34.6384H69.5376ZM72.1772 32.1235C72.5791 32.1235 72.8943 31.9642 73.1229 31.6455C73.3585 31.3198 73.4763 30.873 73.4763 30.3049C73.4763 29.7368 73.3585 29.2934 73.1229 28.9747C72.8943 28.649 72.5791 28.4862 72.1772 28.4862C71.907 28.4862 71.6749 28.5555 71.481 28.6941C71.287 28.8257 71.1345 29.0266 71.0237 29.2968C70.9198 29.567 70.8678 29.903 70.8678 30.3049C70.8678 30.7067 70.9198 31.0427 71.0237 31.3129C71.1276 31.5831 71.2766 31.7875 71.4706 31.9261C71.6715 32.0577 71.907 32.1235 72.1772 32.1235ZM77.5827 33.2043C77.0007 33.2043 76.533 33.0727 76.1797 32.8094C75.8264 32.5392 75.6497 32.1651 75.6497 31.687C75.6497 31.209 75.7987 30.8349 76.0966 30.5647C76.3945 30.2945 76.8483 30.1005 77.4579 29.9827L79.2974 29.619C79.2974 29.2241 79.2073 28.9296 79.0272 28.7356C78.847 28.5347 78.5803 28.4343 78.227 28.4343C77.9083 28.4343 77.6554 28.5105 77.4683 28.6629C77.2882 28.8084 77.1635 29.0197 77.0942 29.2968L75.7432 29.2345C75.8541 28.6456 76.1243 28.1952 76.5538 27.8835C76.9834 27.5648 77.5411 27.4054 78.227 27.4054C79.0168 27.4054 79.6126 27.6063 80.0144 28.0082C80.4232 28.4031 80.6276 28.9712 80.6276 29.7125V31.7286C80.6276 31.8741 80.6518 31.9745 80.7003 32.03C80.7557 32.0854 80.8354 32.1131 80.9393 32.1131H81.116V33.0796C81.0744 33.0934 81.0052 33.1038 80.9082 33.1108C80.8181 33.1177 80.7246 33.1212 80.6276 33.1212C80.3989 33.1212 80.1946 33.0865 80.0144 33.0172C79.8343 32.941 79.6957 32.8129 79.5987 32.6327C79.5017 32.4457 79.4533 32.1928 79.4533 31.8741L79.5676 31.9572C79.5121 32.1997 79.3909 32.418 79.2038 32.6119C79.0237 32.799 78.7951 32.9445 78.518 33.0484C78.2408 33.1523 77.9291 33.2043 77.5827 33.2043ZM77.8528 32.2378C78.1508 32.2378 78.4071 32.1789 78.6219 32.0612C78.8366 31.9434 79.0029 31.7806 79.1207 31.5727C79.2385 31.3649 79.2974 31.1189 79.2974 30.8349V30.5231L77.8632 30.8141C77.5653 30.8764 77.3506 30.97 77.2189 31.0947C77.0942 31.2125 77.0319 31.3683 77.0319 31.5623C77.0319 31.7771 77.1011 31.9434 77.2397 32.0612C77.3852 32.1789 77.5896 32.2378 77.8528 32.2378ZM84.33 33.2043C83.7757 33.2043 83.2942 33.0865 82.8855 32.851C82.4767 32.6085 82.158 32.269 81.9294 31.8325C81.7077 31.396 81.5968 30.8868 81.5968 30.3049C81.5968 29.7229 81.7077 29.2171 81.9294 28.7876C82.158 28.3511 82.4767 28.0116 82.8855 27.7692C83.2942 27.5267 83.7757 27.4054 84.33 27.4054C84.8011 27.4054 85.2202 27.4886 85.5874 27.6548C85.9546 27.8211 86.2525 28.0601 86.4812 28.3719C86.7167 28.6767 86.8622 29.0509 86.9176 29.4943L85.5459 29.567C85.4904 29.2137 85.3519 28.9469 85.1302 28.7668C84.9154 28.5798 84.6487 28.4862 84.33 28.4862C83.9004 28.4862 83.5679 28.649 83.3323 28.9747C83.0968 29.2934 82.979 29.7368 82.979 30.3049C82.979 30.8799 83.0968 31.3268 83.3323 31.6455C83.5679 31.9642 83.9004 32.1235 84.33 32.1235C84.6556 32.1235 84.9258 32.03 85.1406 31.8429C85.3623 31.6559 85.4974 31.3649 85.5459 30.97L86.9176 31.0323C86.8622 31.4757 86.7202 31.8602 86.4916 32.1859C86.2629 32.5115 85.965 32.7644 85.5978 32.9445C85.2306 33.1177 84.808 33.2043 84.33 33.2043ZM87.8458 33.0796V25.7011H89.176V30.0347L91.4519 27.5301H93.0939L90.9219 29.8372L93.1666 33.0796H91.6701L90.0489 30.627L89.176 31.5519V33.0796H87.8458ZM95.4443 33.2043C94.8623 33.2043 94.3947 33.0727 94.0413 32.8094C93.688 32.5392 93.5113 32.1651 93.5113 31.687C93.5113 31.209 93.6603 30.8349 93.9582 30.5647C94.2561 30.2945 94.7099 30.1005 95.3196 29.9827L97.159 29.619C97.159 29.2241 97.0689 28.9296 96.8888 28.7356C96.7087 28.5347 96.4419 28.4343 96.0886 28.4343C95.7699 28.4343 95.517 28.5105 95.33 28.6629C95.1498 28.8084 95.0251 29.0197 94.9559 29.2968L93.6049 29.2345C93.7157 28.6456 93.9859 28.1952 94.4155 27.8835C94.845 27.5648 95.4027 27.4054 96.0886 27.4054C96.8784 27.4054 97.4742 27.6063 97.8761 28.0082C98.2848 28.4031 98.4892 28.9712 98.4892 29.7125V31.7286C98.4892 31.8741 98.5135 31.9745 98.562 32.03C98.6174 32.0854 98.6971 32.1131 98.801 32.1131H98.9776V33.0796C98.9361 33.0934 98.8668 33.1038 98.7698 33.1108C98.6797 33.1177 98.5862 33.1212 98.4892 33.1212C98.2606 33.1212 98.0562 33.0865 97.8761 33.0172C97.6959 32.941 97.5574 32.8129 97.4604 32.6327C97.3634 32.4457 97.3149 32.1928 97.3149 31.8741L97.4292 31.9572C97.3738 32.1997 97.2525 32.418 97.0655 32.6119C96.8853 32.799 96.6567 32.9445 96.3796 33.0484C96.1025 33.1523 95.7907 33.2043 95.4443 33.2043ZM95.7145 32.2378C96.0124 32.2378 96.2687 32.1789 96.4835 32.0612C96.6983 31.9434 96.8646 31.7806 96.9823 31.5727C97.1001 31.3649 97.159 31.1189 97.159 30.8349V30.5231L95.7249 30.8141C95.427 30.8764 95.2122 30.97 95.0806 31.0947C94.9559 31.2125 94.8935 31.3683 94.8935 31.5623C94.8935 31.7771 94.9628 31.9434 95.1013 32.0612C95.2468 32.1789 95.4512 32.2378 95.7145 32.2378ZM102.15 34.7631C101.665 34.7631 101.249 34.6973 100.903 34.5657C100.557 34.434 100.276 34.247 100.061 34.0045C99.8534 33.7689 99.7079 33.4953 99.6247 33.1835L100.997 33.09C101.066 33.2978 101.184 33.4606 101.35 33.5784C101.523 33.6962 101.79 33.7551 102.15 33.7551C102.559 33.7551 102.874 33.6616 103.096 33.4745C103.317 33.2944 103.428 33.0103 103.428 32.6223V31.9157C103.297 32.1859 103.085 32.4041 102.794 32.5704C102.503 32.7297 102.178 32.8094 101.817 32.8094C101.36 32.8094 100.951 32.6985 100.591 32.4768C100.238 32.2482 99.9607 31.933 99.7598 31.5311C99.5589 31.1224 99.4585 30.6513 99.4585 30.1178C99.4585 29.5843 99.5555 29.1167 99.7494 28.7149C99.9504 28.3061 100.227 27.9874 100.581 27.7588C100.934 27.5232 101.339 27.4054 101.797 27.4054C102.199 27.4054 102.545 27.4955 102.836 27.6756C103.127 27.8558 103.338 28.0948 103.47 28.3927V27.5301H104.769V32.5912C104.769 33.0623 104.658 33.4606 104.436 33.7863C104.222 34.1119 103.917 34.3544 103.522 34.5137C103.134 34.68 102.677 34.7631 102.15 34.7631ZM102.129 31.7702C102.524 31.7702 102.839 31.6247 103.075 31.3337C103.311 31.0358 103.432 30.627 103.439 30.1074C103.446 29.761 103.394 29.4666 103.283 29.2241C103.179 28.9747 103.026 28.7841 102.826 28.6525C102.632 28.5139 102.399 28.4447 102.129 28.4447C101.721 28.4447 101.402 28.5971 101.173 28.9019C100.951 29.1998 100.841 29.6017 100.841 30.1074C100.841 30.6132 100.955 31.0185 101.184 31.3233C101.419 31.6212 101.734 31.7702 102.129 31.7702ZM108.524 33.2043C107.97 33.2043 107.488 33.0865 107.08 32.851C106.671 32.6085 106.356 32.269 106.134 31.8325C105.912 31.396 105.801 30.8868 105.801 30.3049C105.801 29.7229 105.912 29.2171 106.134 28.7876C106.356 28.3511 106.667 28.0116 107.069 27.7692C107.478 27.5267 107.953 27.4054 108.493 27.4054C109.019 27.4054 109.48 27.5232 109.875 27.7588C110.277 27.9943 110.585 28.3338 110.8 28.7772C111.015 29.2206 111.122 29.7541 111.122 30.3776V30.679H107.184C107.211 31.164 107.343 31.5311 107.578 31.7806C107.821 32.023 108.14 32.1443 108.535 32.1443C108.832 32.1443 109.078 32.0785 109.272 31.9468C109.473 31.8083 109.612 31.6177 109.688 31.3753L111.049 31.4584C110.897 31.9988 110.596 32.4249 110.145 32.7366C109.702 33.0484 109.162 33.2043 108.524 33.2043ZM107.184 29.7853H109.75C109.723 29.3349 109.595 29.0024 109.366 28.7876C109.137 28.5659 108.846 28.455 108.493 28.455C108.14 28.455 107.845 28.5694 107.61 28.798C107.381 29.0266 107.239 29.3557 107.184 29.7853Z" fill="#262626"/>
<path d="M8.43555 45.8999H314.438C318.563 45.8999 321.907 49.2435 321.907 53.3687V69.3687C321.907 73.4939 318.563 76.8384 314.438 76.8384H8.43555C4.3104 76.8383 0.966797 73.4938 0.966797 69.3687V53.3687C0.966922 49.2436 4.31048 45.9 8.43555 45.8999Z" fill="white"/>
<path d="M8.43555 45.8999H314.438C318.563 45.8999 321.907 49.2435 321.907 53.3687V69.3687C321.907 73.4939 318.563 76.8384 314.438 76.8384H8.43555C4.3104 76.8383 0.966797 73.4938 0.966797 69.3687V53.3687C0.966922 49.2436 4.31048 45.9 8.43555 45.8999Z" stroke="#E5E5E5" stroke-width="0.649514"/>
<path d="M16.4112 61.4627V64.3689H15.2422V59.409H16.3595V60.2518H16.4176C16.5317 59.9741 16.7136 59.7534 16.9633 59.5898C17.2152 59.4262 17.5263 59.3444 17.8966 59.3444C18.2388 59.3444 18.537 59.4176 18.791 59.564C19.0472 59.7104 19.2452 59.9224 19.3852 60.2001C19.5273 60.4778 19.5972 60.8147 19.5951 61.2108V64.3689H18.4261V61.3916C18.4261 61.0601 18.34 60.8007 18.1678 60.6134C17.9977 60.4261 17.762 60.3325 17.4606 60.3325C17.2561 60.3325 17.0742 60.3777 16.9149 60.4681C16.7578 60.5564 16.634 60.6845 16.5436 60.8524C16.4553 61.0203 16.4112 61.2237 16.4112 61.4627ZM20.7288 66.2289V59.409H21.8784V60.2292H21.9462C22.0065 60.1086 22.0915 59.9805 22.2013 59.8449C22.3111 59.7071 22.4596 59.5898 22.6469 59.4929C22.8342 59.3939 23.0732 59.3444 23.3638 59.3444C23.747 59.3444 24.0925 59.4423 24.4003 59.6382C24.7103 59.832 24.9557 60.1194 25.1366 60.5004C25.3196 60.8793 25.411 61.3443 25.411 61.8954C25.411 62.44 25.3217 62.9029 25.143 63.2839C24.9644 63.6649 24.7211 63.9556 24.4133 64.1558C24.1054 64.356 23.7567 64.4561 23.367 64.4561C23.0829 64.4561 22.8471 64.4087 22.6598 64.314C22.4726 64.2193 22.3219 64.1052 22.2078 63.9717C22.0958 63.8361 22.0086 63.708 21.9462 63.5874H21.8978V66.2289H20.7288ZM21.8752 61.8889C21.8752 62.2097 21.9204 62.4906 22.0108 62.7317C22.1034 62.9728 22.2357 63.1612 22.408 63.2968C22.5823 63.4303 22.7933 63.497 23.0409 63.497C23.2992 63.497 23.5156 63.4281 23.6899 63.2904C23.8643 63.1504 23.9956 62.9599 24.0839 62.7188C24.1743 62.4756 24.2195 62.1989 24.2195 61.8889C24.2195 61.5811 24.1754 61.3077 24.0871 61.0687C23.9988 60.8298 23.8675 60.6425 23.6932 60.5069C23.5188 60.3712 23.3014 60.3034 23.0409 60.3034C22.7912 60.3034 22.5791 60.3691 22.4047 60.5004C22.2304 60.6317 22.098 60.8158 22.0076 61.0526C21.9193 61.2894 21.8752 61.5682 21.8752 61.8889ZM26.3575 64.3689V59.409H27.4748V60.2518H27.5329C27.6362 59.9676 27.8074 59.7459 28.0463 59.5866C28.2853 59.4251 28.5705 59.3444 28.9021 59.3444C29.2379 59.3444 29.521 59.4262 29.7513 59.5898C29.9838 59.7513 30.1474 59.9719 30.2421 60.2518H30.2938C30.4036 59.9762 30.5887 59.7566 30.8492 59.593C31.1119 59.4273 31.4229 59.3444 31.7824 59.3444C32.2388 59.3444 32.6112 59.4886 32.8997 59.7771C33.1882 60.0656 33.3324 60.4864 33.3324 61.0397V64.3689H32.1602V61.2205C32.1602 60.9127 32.0784 60.6877 31.9148 60.5456C31.7512 60.4014 31.551 60.3293 31.3142 60.3293C31.0322 60.3293 30.8115 60.4175 30.6522 60.5941C30.4951 60.7684 30.4165 60.9955 30.4165 61.2754V64.3689H29.2702V61.1721C29.2702 60.9159 29.1927 60.7114 29.0377 60.5585C28.8848 60.4057 28.6846 60.3293 28.4371 60.3293C28.2692 60.3293 28.1163 60.3723 27.9785 60.4584C27.8408 60.5424 27.731 60.6619 27.6492 60.8169C27.5674 60.9697 27.5265 61.1484 27.5265 61.3529V64.3689H26.3575ZM36.6647 64.3689V59.409H37.8337V64.3689H36.6647ZM37.2524 58.705C37.0673 58.705 36.908 58.6437 36.7745 58.521C36.641 58.3961 36.5743 58.2465 36.5743 58.0721C36.5743 57.8956 36.641 57.746 36.7745 57.6233C36.908 57.4984 37.0673 57.436 37.2524 57.436C37.4397 57.436 37.599 57.4984 37.7303 57.6233C37.8638 57.746 37.9305 57.8956 37.9305 58.0721C37.9305 58.2465 37.8638 58.3961 37.7303 58.521C37.599 58.6437 37.4397 58.705 37.2524 58.705ZM40.1501 61.4627V64.3689H38.9811V59.409H40.0984V60.2518H40.1565C40.2706 59.9741 40.4526 59.7534 40.7023 59.5898C40.9541 59.4262 41.2652 59.3444 41.6355 59.3444C41.9778 59.3444 42.2759 59.4176 42.53 59.564C42.7861 59.7104 42.9842 59.9224 43.1241 60.2001C43.2662 60.4778 43.3362 60.8147 43.334 61.2108V64.3689H42.1651V61.3916C42.1651 61.0601 42.079 60.8007 41.9067 60.6134C41.7367 60.4261 41.5009 60.3325 41.1996 60.3325C40.995 60.3325 40.8131 60.3777 40.6538 60.4681C40.4967 60.5564 40.3729 60.6845 40.2825 60.8524C40.1942 61.0203 40.1501 61.2237 40.1501 61.4627ZM48.3879 60.72L47.3223 60.8362C47.2922 60.7286 47.2394 60.6274 47.1641 60.5327C47.0909 60.438 46.9919 60.3616 46.867 60.3034C46.7421 60.2453 46.5893 60.2162 46.4085 60.2162C46.1652 60.2162 45.9607 60.269 45.7949 60.3745C45.6313 60.48 45.5506 60.6167 45.5527 60.7846C45.5506 60.9288 45.6033 61.0461 45.711 61.1365C45.8208 61.227 46.0016 61.3012 46.2535 61.3594L47.0995 61.5402C47.5688 61.6414 47.9175 61.8017 48.1457 62.0213C48.3761 62.2409 48.4923 62.5283 48.4945 62.8835C48.4923 63.1956 48.4008 63.4712 48.22 63.7102C48.0413 63.947 47.7927 64.1321 47.4741 64.2656C47.1555 64.399 46.7895 64.4658 46.3762 64.4658C45.7691 64.4658 45.2804 64.3388 44.9101 64.0847C44.5399 63.8286 44.3192 63.4723 44.2482 63.0159L45.3881 62.9061C45.4397 63.13 45.5495 63.299 45.7174 63.4131C45.8853 63.5272 46.1038 63.5842 46.3729 63.5842C46.6506 63.5842 46.8735 63.5272 47.0414 63.4131C47.2114 63.299 47.2965 63.158 47.2965 62.9901C47.2965 62.848 47.2416 62.7307 47.1318 62.6381C47.0241 62.5455 46.8562 62.4745 46.628 62.425L45.782 62.2474C45.3063 62.1483 44.9543 61.9815 44.7261 61.7469C44.4979 61.51 44.3849 61.2108 44.387 60.8492C44.3849 60.5435 44.4678 60.2787 44.6357 60.0548C44.8057 59.8288 45.0415 59.6544 45.3429 59.5317C45.6464 59.4068 45.9962 59.3444 46.3923 59.3444C46.9736 59.3444 47.431 59.4682 47.7647 59.7157C48.1005 59.9633 48.3083 60.2981 48.3879 60.72ZM51.8805 59.409V60.3131H49.0292V59.409H51.8805ZM49.7332 58.2207H50.9021V62.877C50.9021 63.0342 50.9258 63.1547 50.9732 63.2387C51.0227 63.3205 51.0873 63.3765 51.1669 63.4066C51.2466 63.4368 51.3348 63.4518 51.4317 63.4518C51.5049 63.4518 51.5716 63.4464 51.6319 63.4357C51.6943 63.4249 51.7417 63.4152 51.774 63.4066L51.971 64.3205C51.9085 64.342 51.8192 64.3657 51.7029 64.3915C51.5888 64.4173 51.4489 64.4324 51.2832 64.4367C50.9904 64.4453 50.7267 64.4012 50.492 64.3043C50.2574 64.2053 50.0712 64.0524 49.9334 63.8458C49.7978 63.6391 49.731 63.3808 49.7332 63.0708V58.2207ZM54.2309 64.469C53.9166 64.469 53.6335 64.413 53.3816 64.3011C53.1319 64.187 52.9338 64.0191 52.7874 63.7973C52.6432 63.5756 52.5711 63.3022 52.5711 62.9771C52.5711 62.6973 52.6228 62.4659 52.7261 62.2829C52.8294 62.0999 52.9704 61.9535 53.1491 61.8437C53.3278 61.7339 53.5291 61.6511 53.753 61.5951C53.979 61.537 54.2126 61.495 54.4537 61.4691C54.7443 61.439 54.98 61.4121 55.1608 61.3884C55.3417 61.3626 55.473 61.3238 55.5548 61.2722C55.6388 61.2184 55.6807 61.1355 55.6807 61.0235V61.0042C55.6807 60.7609 55.6086 60.5725 55.4644 60.4391C55.3202 60.3056 55.1124 60.2389 54.8412 60.2389C54.5549 60.2389 54.3277 60.3013 54.1598 60.4261C53.9941 60.551 53.8821 60.6985 53.824 60.8685L52.7326 60.7135C52.8187 60.4121 52.9607 60.1603 53.1588 59.9579C53.3568 59.7534 53.599 59.6006 53.8853 59.4994C54.1717 59.3961 54.4881 59.3444 54.8347 59.3444C55.0737 59.3444 55.3115 59.3724 55.5483 59.4283C55.7851 59.4843 56.0015 59.5769 56.1974 59.706C56.3933 59.8331 56.5504 60.0064 56.6688 60.2259C56.7894 60.4455 56.8497 60.72 56.8497 61.0494V64.3689H55.7259V63.6876H55.6872C55.6162 63.8253 55.5161 63.9545 55.3869 64.075C55.2599 64.1934 55.0995 64.2892 54.9057 64.3624C54.7142 64.4335 54.4892 64.469 54.2309 64.469ZM54.5344 63.6101C54.769 63.6101 54.9725 63.5638 55.1447 63.4712C55.3169 63.3765 55.4493 63.2516 55.5419 63.0966C55.6366 62.9416 55.684 62.7726 55.684 62.5897V62.0052C55.6474 62.0353 55.5849 62.0633 55.4967 62.0891C55.4106 62.115 55.3137 62.1376 55.2061 62.157C55.0984 62.1763 54.9919 62.1935 54.8864 62.2086C54.7809 62.2237 54.6894 62.2366 54.6119 62.2474C54.4375 62.271 54.2815 62.3098 54.1437 62.3636C54.0059 62.4174 53.8972 62.4928 53.8175 62.5897C53.7379 62.6844 53.6981 62.8071 53.6981 62.9578C53.6981 63.173 53.7766 63.3356 53.9338 63.4454C54.0909 63.5552 54.2911 63.6101 54.5344 63.6101ZM59.1395 57.7557V64.3689H57.9705V57.7557H59.1395ZM61.4559 57.7557V64.3689H60.2869V57.7557H61.4559ZM68.9602 66.2224C68.2821 66.2224 67.6793 66.1298 67.1519 65.9447C66.6266 65.7617 66.1832 65.4916 65.8215 65.1342C65.4599 64.779 65.1854 64.3452 64.9981 63.8329C64.8108 63.3205 64.7161 62.735 64.7139 62.0762C64.7161 61.4326 64.8119 60.8524 65.0013 60.3357C65.1908 59.8169 65.4674 59.3734 65.8312 59.0053C66.195 58.6351 66.6396 58.3509 67.1648 58.1528C67.6901 57.9548 68.2875 57.8558 68.957 57.8558C69.5877 57.8558 70.1464 57.9516 70.6329 58.1432C71.1216 58.3347 71.5338 58.6017 71.8697 58.944C72.2076 59.2841 72.4627 59.6824 72.635 60.1388C72.8093 60.593 72.8965 61.086 72.8965 61.6177C72.8965 61.9858 72.8685 62.3346 72.8126 62.6639C72.7566 62.9911 72.6608 63.2818 72.5252 63.5358C72.3917 63.7898 72.2098 63.9922 71.9794 64.1429C71.7491 64.2914 71.4606 64.3721 71.114 64.385C70.8966 64.3958 70.7061 64.3754 70.5425 64.3237C70.3789 64.272 70.2465 64.1913 70.1453 64.0815C70.0463 63.9696 69.9839 63.8329 69.958 63.6714H69.9193C69.8698 63.8006 69.7761 63.919 69.6383 64.0266C69.5027 64.1321 69.3348 64.215 69.1346 64.2753C68.9344 64.3334 68.7116 64.3571 68.4662 64.3463C68.2035 64.3334 67.9603 64.2731 67.7364 64.1655C67.5147 64.0557 67.3209 63.9028 67.1551 63.7069C66.9915 63.5089 66.8645 63.2699 66.7741 62.9901C66.6837 62.7102 66.6385 62.3927 66.6385 62.0375C66.6385 61.6909 66.688 61.3852 66.787 61.1204C66.886 60.8556 67.0184 60.6296 67.1842 60.4423C67.3521 60.255 67.5416 60.1086 67.7525 60.0031C67.9635 59.8955 68.1809 59.8266 68.4048 59.7965C68.6373 59.7642 68.8558 59.7674 69.0603 59.8062C69.2648 59.8449 69.4349 59.9041 69.5705 59.9838C69.7083 60.0634 69.7944 60.1506 69.8289 60.2453H69.8741V59.8837H70.775V62.9578C70.7771 63.1192 70.8159 63.2495 70.8912 63.3485C70.9687 63.4475 71.0764 63.497 71.2141 63.497C71.3864 63.497 71.5252 63.4292 71.6307 63.2936C71.7383 63.1558 71.8158 62.9449 71.8632 62.6607C71.9127 62.3744 71.9364 62.0084 71.9342 61.5628C71.9364 61.1968 71.888 60.8653 71.7889 60.5682C71.6921 60.269 71.5543 60.0064 71.3756 59.7803C71.1969 59.5543 70.9827 59.3659 70.733 59.2152C70.4854 59.0624 70.2099 58.9472 69.9064 58.8697C69.6028 58.7922 69.2788 58.7535 68.9344 58.7535C68.407 58.7535 67.943 58.8342 67.5426 58.9956C67.1422 59.1549 66.8064 59.3821 66.5352 59.677C66.2661 59.9719 66.0626 60.3217 65.9248 60.7265C65.7892 61.129 65.7214 61.5746 65.7214 62.0633C65.7214 62.5864 65.7925 63.0503 65.9345 63.4551C66.0788 63.8576 66.2897 64.1967 66.5674 64.4722C66.8451 64.7478 67.1885 64.9566 67.5975 65.0987C68.0087 65.2408 68.4812 65.3118 69.0151 65.3118C69.2605 65.3118 69.5006 65.2924 69.7352 65.2537C69.9699 65.2149 70.1808 65.1697 70.3681 65.1181C70.5554 65.0664 70.6996 65.0212 70.8008 64.9824L71.0753 65.8026C70.9418 65.8715 70.761 65.9382 70.5328 66.0028C70.3068 66.0674 70.057 66.1202 69.7836 66.1611C69.5124 66.202 69.2379 66.2224 68.9602 66.2224ZM68.7342 63.4195C69.0076 63.4195 69.2261 63.3668 69.3897 63.2613C69.5533 63.1537 69.6706 62.9944 69.7417 62.7834C69.8127 62.5724 69.8472 62.3098 69.845 61.9955C69.845 61.7027 69.8084 61.4627 69.7352 61.2754C69.662 61.0881 69.5447 60.9493 69.3832 60.8588C69.2218 60.7684 69.0076 60.7232 68.7406 60.7232C68.4995 60.7232 68.2939 60.7781 68.1239 60.8879C67.956 60.9977 67.8268 61.1495 67.7364 61.3432C67.6481 61.5348 67.604 61.7533 67.604 61.9987C67.604 62.2441 67.6395 62.4756 67.7106 62.693C67.7837 62.9083 67.9021 63.0837 68.0658 63.2193C68.2315 63.3528 68.4543 63.4195 68.7342 63.4195ZM73.8341 66.2289V59.409H74.9837V60.2292H75.0515C75.1118 60.1086 75.1968 59.9805 75.3066 59.8449C75.4164 59.7071 75.5649 59.5898 75.7522 59.4929C75.9395 59.3939 76.1784 59.3444 76.4691 59.3444C76.8523 59.3444 77.1978 59.4423 77.5056 59.6382C77.8156 59.832 78.061 60.1194 78.2418 60.5004C78.4248 60.8793 78.5163 61.3443 78.5163 61.8954C78.5163 62.44 78.427 62.9029 78.2483 63.2839C78.0696 63.6649 77.8264 63.9556 77.5185 64.1558C77.2107 64.356 76.8619 64.4561 76.4723 64.4561C76.1881 64.4561 75.9524 64.4087 75.7651 64.314C75.5778 64.2193 75.4271 64.1052 75.313 63.9717C75.2011 63.8361 75.1139 63.708 75.0515 63.5874H75.003V66.2289H73.8341ZM74.9804 61.8889C74.9804 62.2097 75.0256 62.4906 75.1161 62.7317C75.2086 62.9728 75.341 63.1612 75.5132 63.2968C75.6876 63.4303 75.8986 63.497 76.1462 63.497C76.4045 63.497 76.6208 63.4281 76.7952 63.2904C76.9696 63.1504 77.1009 62.9599 77.1892 62.7188C77.2796 62.4756 77.3248 62.1989 77.3248 61.8889C77.3248 61.5811 77.2806 61.3077 77.1924 61.0687C77.1041 60.8298 76.9728 60.6425 76.7984 60.5069C76.6241 60.3712 76.4066 60.3034 76.1462 60.3034C75.8964 60.3034 75.6844 60.3691 75.51 60.5004C75.3356 60.6317 75.2032 60.8158 75.1128 61.0526C75.0246 61.2894 74.9804 61.5682 74.9804 61.8889ZM81.6263 64.4658C81.1419 64.4658 80.7221 64.3592 80.3669 64.1461C80.0117 63.933 79.7362 63.6348 79.5403 63.2516C79.3465 62.8684 79.2497 62.4207 79.2497 61.9083C79.2497 61.396 79.3465 60.9471 79.5403 60.5618C79.7362 60.1764 80.0117 59.8772 80.3669 59.6641C80.7221 59.4509 81.1419 59.3444 81.6263 59.3444C82.1107 59.3444 82.5305 59.4509 82.8857 59.6641C83.2409 59.8772 83.5153 60.1764 83.7091 60.5618C83.905 60.9471 84.0029 61.396 84.0029 61.9083C84.0029 62.4207 83.905 62.8684 83.7091 63.2516C83.5153 63.6348 83.2409 63.933 82.8857 64.1461C82.5305 64.3592 82.1107 64.4658 81.6263 64.4658ZM81.6328 63.5293C81.8954 63.5293 82.115 63.4572 82.2915 63.313C82.468 63.1666 82.5993 62.9707 82.6855 62.7253C82.7737 62.4799 82.8178 62.2065 82.8178 61.9051C82.8178 61.6015 82.7737 61.3271 82.6855 61.0817C82.5993 60.8341 82.468 60.6371 82.2915 60.4907C82.115 60.3443 81.8954 60.2711 81.6328 60.2711C81.3637 60.2711 81.1398 60.3443 80.9611 60.4907C80.7846 60.6371 80.6522 60.8341 80.5639 61.0817C80.4778 61.3271 80.4348 61.6015 80.4348 61.9051C80.4348 62.2065 80.4778 62.4799 80.5639 62.7253C80.6522 62.9707 80.7846 63.1666 80.9611 63.313C81.1398 63.4572 81.3637 63.5293 81.6328 63.5293ZM87.4173 59.409V60.3131H84.5659V59.409H87.4173ZM85.2699 58.2207H86.4388V62.877C86.4388 63.0342 86.4625 63.1547 86.5099 63.2387C86.5594 63.3205 86.624 63.3765 86.7036 63.4066C86.7833 63.4368 86.8715 63.4518 86.9684 63.4518C87.0416 63.4518 87.1083 63.4464 87.1686 63.4357C87.231 63.4249 87.2784 63.4152 87.3107 63.4066L87.5077 64.3205C87.4452 64.342 87.3559 64.3657 87.2397 64.3915C87.1256 64.4173 86.9856 64.4324 86.8199 64.4367C86.5271 64.4453 86.2634 64.4012 86.0287 64.3043C85.7941 64.2053 85.6079 64.0524 85.4701 63.8458C85.3345 63.6391 85.2677 63.3808 85.2699 63.0708V58.2207ZM89.6158 57.7557V64.3689H88.4469V57.7557H89.6158ZM92.9268 64.4658C92.4424 64.4658 92.0227 64.3592 91.6675 64.1461C91.3122 63.933 91.0367 63.6348 90.8408 63.2516C90.647 62.8684 90.5502 62.4207 90.5502 61.9083C90.5502 61.396 90.647 60.9471 90.8408 60.5618C91.0367 60.1764 91.3122 59.8772 91.6675 59.6641C92.0227 59.4509 92.4424 59.3444 92.9268 59.3444C93.4112 59.3444 93.831 59.4509 94.1862 59.6641C94.5414 59.8772 94.8158 60.1764 95.0096 60.5618C95.2055 60.9471 95.3034 61.396 95.3034 61.9083C95.3034 62.4207 95.2055 62.8684 95.0096 63.2516C94.8158 63.6348 94.5414 63.933 94.1862 64.1461C93.831 64.3592 93.4112 64.4658 92.9268 64.4658ZM92.9333 63.5293C93.1959 63.5293 93.4155 63.4572 93.592 63.313C93.7685 63.1666 93.8998 62.9707 93.986 62.7253C94.0742 62.4799 94.1184 62.2065 94.1184 61.9051C94.1184 61.6015 94.0742 61.3271 93.986 61.0817C93.8998 60.8341 93.7685 60.6371 93.592 60.4907C93.4155 60.3443 93.1959 60.2711 92.9333 60.2711C92.6642 60.2711 92.4403 60.3443 92.2616 60.4907C92.0851 60.6371 91.9527 60.8341 91.8644 61.0817C91.7783 61.3271 91.7353 61.6015 91.7353 61.9051C91.7353 62.2065 91.7783 62.4799 91.8644 62.7253C91.9527 62.9707 92.0851 63.1666 92.2616 63.313C92.4403 63.4572 92.6642 63.5293 92.9333 63.5293ZM98.4045 64.4658C97.9094 64.4658 97.4842 64.3571 97.129 64.1396C96.776 63.9222 96.5037 63.6219 96.3121 63.2387C96.1226 62.8534 96.0279 62.4099 96.0279 61.9083C96.0279 61.4046 96.1248 60.96 96.3185 60.5747C96.5123 60.1872 96.7857 59.8858 97.1387 59.6705C97.4939 59.4531 97.9137 59.3444 98.3981 59.3444C98.8006 59.3444 99.1569 59.4187 99.4669 59.5672C99.7791 59.7136 100.028 59.9213 100.213 60.1904C100.398 60.4574 100.503 60.7695 100.529 61.1269H99.412C99.3668 60.8879 99.2592 60.6888 99.0891 60.5295C98.9212 60.368 98.6962 60.2873 98.4142 60.2873C98.1753 60.2873 97.9654 60.3519 97.7845 60.481C97.6037 60.608 97.4627 60.791 97.3615 61.03C97.2625 61.2689 97.213 61.5553 97.213 61.8889C97.213 62.2269 97.2625 62.5175 97.3615 62.7608C97.4606 63.0019 97.5994 63.1881 97.7781 63.3194C97.9589 63.4486 98.171 63.5132 98.4142 63.5132C98.5864 63.5132 98.7404 63.4809 98.876 63.4163C99.0138 63.3496 99.1289 63.2538 99.2215 63.1289C99.3141 63.0041 99.3776 62.8523 99.412 62.6736H100.529C100.501 63.0245 100.398 63.3356 100.219 63.6068C100.041 63.8759 99.7974 64.0869 99.4895 64.2397C99.1817 64.3904 98.82 64.4658 98.4045 64.4658ZM102.5 62.8125L102.497 61.4013H102.684L104.467 59.409H105.833L103.64 61.8502H103.398L102.5 62.8125ZM101.435 64.3689V57.7557H102.604V64.3689H101.435ZM104.547 64.3689L102.933 62.1117L103.721 61.2883L105.946 64.3689H104.547ZM109.257 57.4457L107.125 65.3635H106.102L108.233 57.4457H109.257ZM111.789 64.4561C111.399 64.4561 111.05 64.356 110.742 64.1558C110.435 63.9556 110.191 63.6649 110.013 63.2839C109.834 62.9029 109.745 62.44 109.745 61.8954C109.745 61.3443 109.835 60.8793 110.016 60.5004C110.199 60.1194 110.445 59.832 110.755 59.6382C111.065 59.4423 111.411 59.3444 111.792 59.3444C112.082 59.3444 112.321 59.3939 112.509 59.4929C112.696 59.5898 112.845 59.7071 112.954 59.8449C113.064 59.9805 113.149 60.1086 113.209 60.2292H113.258V57.7557H114.43V64.3689H113.28V63.5874H113.209C113.149 63.708 113.062 63.8361 112.948 63.9717C112.834 64.1052 112.683 64.2193 112.496 64.314C112.309 64.4087 112.073 64.4561 111.789 64.4561ZM112.115 63.497C112.362 63.497 112.573 63.4303 112.748 63.2968C112.922 63.1612 113.054 62.9728 113.145 62.7317C113.235 62.4906 113.28 62.2097 113.28 61.8889C113.28 61.5682 113.235 61.2894 113.145 61.0526C113.057 60.8158 112.925 60.6317 112.751 60.5004C112.579 60.3691 112.367 60.3034 112.115 60.3034C111.854 60.3034 111.637 60.3712 111.462 60.5069C111.288 60.6425 111.157 60.8298 111.069 61.0687C110.98 61.3077 110.936 61.5811 110.936 61.8889C110.936 62.1989 110.98 62.4756 111.069 62.7188C111.159 62.9599 111.291 63.1504 111.466 63.2904C111.642 63.4281 111.859 63.497 112.115 63.497ZM117.785 64.4658C117.3 64.4658 116.88 64.3592 116.525 64.1461C116.17 63.933 115.895 63.6348 115.699 63.2516C115.505 62.8684 115.408 62.4207 115.408 61.9083C115.408 61.396 115.505 60.9471 115.699 60.5618C115.895 60.1764 116.17 59.8772 116.525 59.6641C116.88 59.4509 117.3 59.3444 117.785 59.3444C118.269 59.3444 118.689 59.4509 119.044 59.6641C119.399 59.8772 119.674 60.1764 119.867 60.5618C120.063 60.9471 120.161 61.396 120.161 61.9083C120.161 62.4207 120.063 62.8684 119.867 63.2516C119.674 63.6348 119.399 63.933 119.044 64.1461C118.689 64.3592 118.269 64.4658 117.785 64.4658ZM117.791 63.5293C118.054 63.5293 118.273 63.4572 118.45 63.313C118.626 63.1666 118.758 62.9707 118.844 62.7253C118.932 62.4799 118.976 62.2065 118.976 61.9051C118.976 61.6015 118.932 61.3271 118.844 61.0817C118.758 60.8341 118.626 60.6371 118.45 60.4907C118.273 60.3443 118.054 60.2711 117.791 60.2711C117.522 60.2711 117.298 60.3443 117.119 60.4907C116.943 60.6371 116.811 60.8341 116.722 61.0817C116.636 61.3271 116.593 61.6015 116.593 61.9051C116.593 62.2065 116.636 62.4799 116.722 62.7253C116.811 62.9707 116.943 63.1666 117.119 63.313C117.298 63.4572 117.522 63.5293 117.791 63.5293ZM122.268 61.4627V64.3689H121.099V59.409H122.216V60.2518H122.274C122.388 59.9741 122.57 59.7534 122.82 59.5898C123.072 59.4262 123.383 59.3444 123.753 59.3444C124.095 59.3444 124.394 59.4176 124.648 59.564C124.904 59.7104 125.102 59.9224 125.242 60.2001C125.384 60.4778 125.454 60.8147 125.452 61.2108V64.3689H124.283V61.3916C124.283 61.0601 124.197 60.8007 124.024 60.6134C123.854 60.4261 123.619 60.3325 123.317 60.3325C123.113 60.3325 122.931 60.3777 122.772 60.4681C122.614 60.5564 122.491 60.6845 122.4 60.8524C122.312 61.0203 122.268 61.2237 122.268 61.4627ZM128.013 64.469C127.698 64.469 127.415 64.413 127.163 64.3011C126.914 64.187 126.716 64.0191 126.569 63.7973C126.425 63.5756 126.353 63.3022 126.353 62.9771C126.353 62.6973 126.405 62.4659 126.508 62.2829C126.611 62.0999 126.752 61.9535 126.931 61.8437C127.11 61.7339 127.311 61.6511 127.535 61.5951C127.761 61.537 127.994 61.495 128.236 61.4691C128.526 61.439 128.762 61.4121 128.943 61.3884C129.124 61.3626 129.255 61.3238 129.337 61.2722C129.421 61.2184 129.463 61.1355 129.463 61.0235V61.0042C129.463 60.7609 129.39 60.5725 129.246 60.4391C129.102 60.3056 128.894 60.2389 128.623 60.2389C128.337 60.2389 128.11 60.3013 127.942 60.4261C127.776 60.551 127.664 60.6985 127.606 60.8685L126.514 60.7135C126.601 60.4121 126.743 60.1603 126.941 59.9579C127.139 59.7534 127.381 59.6006 127.667 59.4994C127.954 59.3961 128.27 59.3444 128.617 59.3444C128.856 59.3444 129.093 59.3724 129.33 59.4283C129.567 59.4843 129.783 59.5769 129.979 59.706C130.175 59.8331 130.332 60.0064 130.451 60.2259C130.571 60.4455 130.632 60.72 130.632 61.0494V64.3689H129.508V63.6876H129.469C129.398 63.8253 129.298 63.9545 129.169 64.075C129.042 64.1934 128.881 64.2892 128.688 64.3624C128.496 64.4335 128.271 64.469 128.013 64.469ZM128.316 63.6101C128.551 63.6101 128.754 63.5638 128.927 63.4712C129.099 63.3765 129.231 63.2516 129.324 63.0966C129.418 62.9416 129.466 62.7726 129.466 62.5897V62.0052C129.429 62.0353 129.367 62.0633 129.279 62.0891C129.192 62.115 129.096 62.1376 128.988 62.157C128.88 62.1763 128.774 62.1935 128.668 62.2086C128.563 62.2237 128.471 62.2366 128.394 62.2474C128.219 62.271 128.063 62.3098 127.926 62.3636C127.788 62.4174 127.679 62.4928 127.599 62.5897C127.52 62.6844 127.48 62.8071 127.48 62.9578C127.48 63.173 127.558 63.3356 127.716 63.4454C127.873 63.5552 128.073 63.6101 128.316 63.6101ZM134.229 59.409V60.3131H131.378V59.409H134.229ZM132.082 58.2207H133.251V62.877C133.251 63.0342 133.274 63.1547 133.322 63.2387C133.371 63.3205 133.436 63.3765 133.515 63.4066C133.595 63.4368 133.683 63.4518 133.78 63.4518C133.853 63.4518 133.92 63.4464 133.98 63.4357C134.043 63.4249 134.09 63.4152 134.123 63.4066L134.32 64.3205C134.257 64.342 134.168 64.3657 134.052 64.3915C133.937 64.4173 133.797 64.4324 133.632 64.4367C133.339 64.4453 133.075 64.4012 132.841 64.3043C132.606 64.2053 132.42 64.0524 132.282 63.8458C132.146 63.6391 132.08 63.3808 132.082 63.0708V58.2207ZM135.152 64.3689V59.409H136.321V64.3689H135.152ZM135.74 58.705C135.555 58.705 135.395 58.6437 135.262 58.521C135.128 58.3961 135.062 58.2465 135.062 58.0721C135.062 57.8956 135.128 57.746 135.262 57.6233C135.395 57.4984 135.555 57.436 135.74 57.436C135.927 57.436 136.086 57.4984 136.218 57.6233C136.351 57.746 136.418 57.8956 136.418 58.0721C136.418 58.2465 136.351 58.3961 136.218 58.521C136.086 58.6437 135.927 58.705 135.74 58.705ZM139.632 64.4658C139.148 64.4658 138.728 64.3592 138.373 64.1461C138.018 63.933 137.742 63.6348 137.546 63.2516C137.352 62.8684 137.255 62.4207 137.255 61.9083C137.255 61.396 137.352 60.9471 137.546 60.5618C137.742 60.1764 138.018 59.8772 138.373 59.6641C138.728 59.4509 139.148 59.3444 139.632 59.3444C140.116 59.3444 140.536 59.4509 140.891 59.6641C141.247 59.8772 141.521 60.1764 141.715 60.5618C141.911 60.9471 142.009 61.396 142.009 61.9083C142.009 62.4207 141.911 62.8684 141.715 63.2516C141.521 63.6348 141.247 63.933 140.891 64.1461C140.536 64.3592 140.116 64.4658 139.632 64.4658ZM139.639 63.5293C139.901 63.5293 140.121 63.4572 140.297 63.313C140.474 63.1666 140.605 62.9707 140.691 62.7253C140.78 62.4799 140.824 62.2065 140.824 61.9051C140.824 61.6015 140.78 61.3271 140.691 61.0817C140.605 60.8341 140.474 60.6371 140.297 60.4907C140.121 60.3443 139.901 60.2711 139.639 60.2711C139.369 60.2711 139.146 60.3443 138.967 60.4907C138.79 60.6371 138.658 60.8341 138.57 61.0817C138.484 61.3271 138.441 61.6015 138.441 61.9051C138.441 62.2065 138.484 62.4799 138.57 62.7253C138.658 62.9707 138.79 63.1666 138.967 63.313C139.146 63.4572 139.369 63.5293 139.639 63.5293ZM144.115 61.4627V64.3689H142.946V59.409H144.064V60.2518H144.122C144.236 59.9741 144.418 59.7534 144.667 59.5898C144.919 59.4262 145.23 59.3444 145.601 59.3444C145.943 59.3444 146.241 59.4176 146.495 59.564C146.751 59.7104 146.949 59.9224 147.089 60.2001C147.231 60.4778 147.301 60.8147 147.299 61.2108V64.3689H146.13V61.3916C146.13 61.0601 146.044 60.8007 145.872 60.6134C145.702 60.4261 145.466 60.3325 145.165 60.3325C144.96 60.3325 144.778 60.3777 144.619 60.4681C144.462 60.5564 144.338 60.6845 144.248 60.8524C144.159 61.0203 144.115 61.2237 144.115 61.4627ZM151.439 61.1333V62.0956H148.462V61.1333H151.439ZM153.638 64.3689L152.236 59.409H153.428L154.3 62.8964H154.345L155.236 59.409H156.415L157.306 62.877H157.355L158.213 59.409H159.408L158.004 64.3689H156.786L155.856 61.0171H155.788L154.858 64.3689H153.638ZM160.17 64.3689V59.409H161.339V64.3689H160.17ZM160.758 58.705C160.572 58.705 160.413 58.6437 160.28 58.521C160.146 58.3961 160.079 58.2465 160.079 58.0721C160.079 57.8956 160.146 57.746 160.28 57.6233C160.413 57.4984 160.572 57.436 160.758 57.436C160.945 57.436 161.104 57.4984 161.235 57.6233C161.369 57.746 161.436 57.8956 161.436 58.0721C161.436 58.2465 161.369 58.3961 161.235 58.521C161.104 58.6437 160.945 58.705 160.758 58.705ZM164.327 64.4561C163.937 64.4561 163.588 64.356 163.281 64.1558C162.973 63.9556 162.73 63.6649 162.551 63.2839C162.372 62.9029 162.283 62.44 162.283 61.8954C162.283 61.3443 162.373 60.8793 162.554 60.5004C162.737 60.1194 162.984 59.832 163.294 59.6382C163.604 59.4423 163.949 59.3444 164.33 59.3444C164.621 59.3444 164.86 59.3939 165.047 59.4929C165.234 59.5898 165.383 59.7071 165.493 59.8449C165.602 59.9805 165.687 60.1086 165.748 60.2292H165.796V57.7557H166.968V64.3689H165.819V63.5874H165.748C165.687 63.708 165.6 63.8361 165.486 63.9717C165.372 64.1052 165.221 64.2193 165.034 64.314C164.847 64.4087 164.611 64.4561 164.327 64.4561ZM164.653 63.497C164.901 63.497 165.112 63.4303 165.286 63.2968C165.46 63.1612 165.593 62.9728 165.683 62.7317C165.773 62.4906 165.819 62.2097 165.819 61.8889C165.819 61.5682 165.773 61.2894 165.683 61.0526C165.595 60.8158 165.463 60.6317 165.289 60.5004C165.117 60.3691 164.905 60.3034 164.653 60.3034C164.393 60.3034 164.175 60.3712 164.001 60.5069C163.826 60.6425 163.695 60.8298 163.607 61.0687C163.518 61.3077 163.474 61.5811 163.474 61.8889C163.474 62.1989 163.518 62.4756 163.607 62.7188C163.697 62.9599 163.83 63.1504 164.004 63.2904C164.18 63.4281 164.397 63.497 164.653 63.497ZM170.316 66.3322C169.897 66.3322 169.536 66.2752 169.235 66.1611C168.933 66.0491 168.691 65.8984 168.508 65.709C168.325 65.5195 168.198 65.3096 168.127 65.0793L169.18 64.8242C169.227 64.9211 169.296 65.0169 169.386 65.1116C169.477 65.2085 169.598 65.2881 169.751 65.3505C169.906 65.4151 170.101 65.4474 170.336 65.4474C170.667 65.4474 170.942 65.3667 171.159 65.2052C171.377 65.0459 171.485 64.7833 171.485 64.4173V63.4777H171.427C171.367 63.5982 171.279 63.722 171.162 63.849C171.048 63.976 170.897 64.0826 170.707 64.1687C170.52 64.2548 170.284 64.2979 170 64.2979C169.619 64.2979 169.273 64.2085 168.963 64.0298C168.656 63.849 168.41 63.5799 168.227 63.2226C168.046 62.8631 167.956 62.4131 167.956 61.8728C167.956 61.3281 168.046 60.8685 168.227 60.494C168.41 60.1172 168.657 59.832 168.967 59.6382C169.277 59.4423 169.622 59.3444 170.003 59.3444C170.294 59.3444 170.533 59.3939 170.72 59.4929C170.909 59.5898 171.06 59.7071 171.172 59.8449C171.284 59.9805 171.369 60.1086 171.427 60.2292H171.492V59.409H172.645V64.4496C172.645 64.8737 172.543 65.2246 172.341 65.5023C172.139 65.78 171.862 65.9878 171.511 66.1255C171.16 66.2633 170.762 66.3322 170.316 66.3322ZM170.326 63.3808C170.574 63.3808 170.785 63.3205 170.959 63.2C171.133 63.0794 171.266 62.9061 171.356 62.6801C171.447 62.454 171.492 62.1828 171.492 61.8663C171.492 61.5542 171.447 61.2808 171.356 61.0461C171.268 60.8115 171.137 60.6296 170.962 60.5004C170.79 60.3691 170.578 60.3034 170.326 60.3034C170.066 60.3034 169.848 60.3712 169.674 60.5069C169.499 60.6425 169.368 60.8287 169.28 61.0655C169.192 61.3002 169.147 61.5671 169.147 61.8663C169.147 62.1699 169.192 62.4357 169.28 62.6639C169.37 62.89 169.503 63.0665 169.677 63.1935C169.854 63.3184 170.07 63.3808 170.326 63.3808ZM175.984 64.4658C175.487 64.4658 175.057 64.3624 174.695 64.1558C174.336 63.947 174.059 63.652 173.866 63.271C173.672 62.8878 173.575 62.4368 173.575 61.918C173.575 61.4078 173.672 60.96 173.866 60.5747C174.061 60.1872 174.335 59.8858 174.686 59.6705C175.037 59.4531 175.449 59.3444 175.922 59.3444C176.228 59.3444 176.517 59.3939 176.788 59.4929C177.061 59.5898 177.302 59.7405 177.511 59.945C177.722 60.1495 177.888 60.41 178.008 60.7265C178.129 61.0408 178.189 61.4153 178.189 61.8502V62.2086H174.124V61.4207H177.069C177.067 61.1968 177.018 60.9977 176.924 60.8233C176.829 60.6468 176.696 60.5079 176.526 60.4068C176.358 60.3056 176.163 60.255 175.939 60.255C175.7 60.255 175.49 60.3131 175.309 60.4294C175.128 60.5435 174.987 60.6942 174.886 60.8814C174.787 61.0666 174.736 61.27 174.734 61.4918V62.1796C174.734 62.468 174.787 62.7156 174.892 62.9223C174.998 63.1268 175.145 63.2839 175.335 63.3937C175.524 63.5013 175.746 63.5552 176 63.5552C176.17 63.5552 176.324 63.5315 176.462 63.4841C176.6 63.4346 176.719 63.3625 176.82 63.2678C176.921 63.173 176.998 63.0557 177.049 62.9158L178.141 63.0385C178.072 63.327 177.941 63.5788 177.747 63.7941C177.555 64.0072 177.31 64.173 177.011 64.2914C176.711 64.4076 176.369 64.4658 175.984 64.4658ZM181.6 59.409V60.3131H178.749V59.409H181.6ZM179.453 58.2207H180.622V62.877C180.622 63.0342 180.646 63.1547 180.693 63.2387C180.743 63.3205 180.807 63.3765 180.887 63.4066C180.966 63.4368 181.055 63.4518 181.152 63.4518C181.225 63.4518 181.292 63.4464 181.352 63.4357C181.414 63.4249 181.462 63.4152 181.494 63.4066L181.691 64.3205C181.628 64.342 181.539 64.3657 181.423 64.3915C181.309 64.4173 181.169 64.4324 181.003 64.4367C180.71 64.4453 180.447 64.4012 180.212 64.3043C179.977 64.2053 179.791 64.0524 179.653 63.8458C179.518 63.6391 179.451 63.3808 179.453 63.0708V58.2207Z" fill="#404040"/>
<g clip-path="url(#clip0_375_8233)">
<path d="M298.482 60.8273C298.482 59.2952 298.482 58.5292 298.958 58.0532C299.434 57.5773 300.2 57.5773 301.732 57.5773H303.357C304.889 57.5773 305.655 57.5773 306.131 58.0532C306.607 58.5292 306.607 59.2952 306.607 60.8273V63.5356C306.607 65.0677 306.607 65.8337 306.131 66.3097C305.655 66.7856 304.889 66.7856 303.357 66.7856H301.732C300.2 66.7856 299.434 66.7856 298.958 66.3097C298.482 65.8337 298.482 65.0677 298.482 63.5356V60.8273Z" stroke="#1C274C" stroke-width="0.5"/>
<path d="M298.482 65.1606C297.584 65.1606 296.857 64.4331 296.857 63.5356V60.2856C296.857 58.2429 296.857 57.2215 297.491 56.5869C298.126 55.9523 299.147 55.9523 301.19 55.9523H303.357C304.254 55.9523 304.982 56.6798 304.982 57.5773" stroke="#1C274C" stroke-width="0.5"/>
</g>
<rect x="0.641602" y="87.1631" width="245.29" height="7.641" rx="3.8205" fill="#F5F5F5"/>
<rect x="0.641602" y="103.304" width="139.675" height="7.641" rx="3.8205" fill="#F5F5F5"/>
<rect x="0.641602" y="123.088" width="287.791" height="7.641" rx="3.8205" fill="#F5F5F5"/>
<rect x="0.641602" y="139.229" width="287.791" height="7.641" rx="3.8205" fill="#F5F5F5"/>
<rect x="0.641602" y="159.014" width="239.217" height="7.641" rx="3.8205" fill="#F5F5F5"/>
<rect x="0.641602" y="175.155" width="321.59" height="7.641" rx="3.8205" fill="#F5F5F5"/>
<path d="M315.324 78.9855L311.386 75.0472L310.183 76.2499C308.952 77.4811 308.337 78.0967 307.675 77.9514C307.013 77.8061 306.712 76.9892 306.11 75.3553L304.103 69.9061C302.902 66.6467 302.301 65.017 303.141 64.1771C303.981 63.3371 305.611 63.9375 308.87 65.1384L314.32 67.1459C315.954 67.7479 316.77 68.0489 316.916 68.7105C317.061 69.3722 316.445 69.9878 315.214 71.2191L314.012 72.4217L317.95 76.36C318.358 76.7678 318.562 76.9717 318.656 77.1991C318.781 77.5024 318.781 77.8432 318.656 78.1464C318.562 78.3739 318.358 78.5778 317.95 78.9855C317.542 79.3933 317.338 79.5972 317.111 79.6914C316.808 79.817 316.467 79.817 316.163 79.6914C315.936 79.5972 315.732 79.3933 315.324 78.9855Z" fill="#262626"/>
<defs>
<clipPath id="clip0_375_8233">
<rect width="13" height="13" fill="white" transform="translate(295.232 54.8689)"/>
</clipPath>
</defs>
</svg>
