<svg width="25" height="24" viewBox="0 0 25 24" fill="none" xmlns="http://www.w3.org/2000/svg">
<path d="M12.5806 6V18" stroke="black" stroke-width="1.5" stroke-linecap="round"/>
<path d="M15.5806 9.5C15.5806 8.11929 14.2374 7 12.5806 7C10.9237 7 9.58057 8.11929 9.58057 9.5C9.58057 10.8807 10.9237 12 12.5806 12C14.2374 12 15.5806 13.1193 15.5806 14.5C15.5806 15.8807 14.2374 17 12.5806 17C10.9237 17 9.58057 15.8807 9.58057 14.5" stroke="black" stroke-width="1.5" stroke-linecap="round"/>
<path d="M7.58057 3.33782C9.05143 2.48697 10.7591 2 12.5806 2C18.1034 2 22.5806 6.47715 22.5806 12C22.5806 17.5228 18.1034 22 12.5806 22C7.05772 22 2.58057 17.5228 2.58057 12C2.58057 10.1786 3.06754 8.47087 3.91839 7" stroke="#1C274C" stroke-width="1.5" stroke-linecap="round"/>
</svg>
