<svg width="362" height="98" viewBox="0 0 362 98" fill="none" xmlns="http://www.w3.org/2000/svg">
<path d="M12 0.548096H331C337.32 0.548096 342.442 5.67093 342.442 11.9905V62.5247C342.442 68.844 337.319 73.967 331 73.967H12C5.68062 73.967 0.557881 68.844 0.557617 62.5247V11.9905C0.557618 5.67093 5.68045 0.548096 12 0.548096Z" fill="white"/>
<path d="M12 0.548096H331C337.32 0.548096 342.442 5.67093 342.442 11.9905V62.5247C342.442 68.844 337.319 73.967 331 73.967H12C5.68062 73.967 0.557881 68.844 0.557617 62.5247V11.9905C0.557618 5.67093 5.68045 0.548096 12 0.548096Z" stroke="#E2E8F0" stroke-width="1.11489"/>
<path d="M18 31.9905C18 20.9448 26.9543 11.9905 38 11.9905C49.0457 11.9905 58 20.9448 58 31.9905C58 43.0362 49.0457 51.9905 38 51.9905C26.9543 51.9905 18 43.0362 18 31.9905Z" fill="#292929"/>
<path d="M26 42.1768H50V18.1768H26V42.1768Z" fill="#292929"/>
<path d="M67.1372 28.9905V17.4228H71.9451C73.1828 17.4228 74.1719 17.7507 74.9124 18.4066C75.6635 19.0519 76.0391 19.9669 76.0391 21.1517C76.0391 21.9028 75.8751 22.564 75.5472 23.1352C75.2192 23.6959 74.7485 24.1349 74.1349 24.4523C73.5319 24.7696 72.802 24.9283 71.9451 24.9283L69.2317 24.9124V28.9905H67.1372ZM71.5961 19.2158H69.2317V23.2622L71.5961 23.278C72.2519 23.278 72.7967 23.1193 73.2304 22.802C73.6748 22.4846 73.8969 21.961 73.8969 21.2311C73.8969 20.5011 73.6748 19.9828 73.2304 19.676C72.7861 19.3692 72.2413 19.2158 71.5961 19.2158ZM82.9212 29.1333C81.7681 29.1333 80.7578 28.9006 79.8904 28.4351C79.0335 27.9591 78.3618 27.2767 77.8752 26.3881C77.3991 25.4995 77.1611 24.4364 77.1611 23.1987C77.1611 21.961 77.3991 20.9031 77.8752 20.0251C78.3618 19.1365 79.0335 18.4595 79.8904 17.994C80.7578 17.518 81.7681 17.2799 82.9212 17.2799C84.0742 17.2799 85.0845 17.518 85.9519 17.994C86.8194 18.4595 87.4911 19.1365 87.9672 20.0251C88.4432 20.9137 88.6812 21.9716 88.6812 23.1987C88.6812 24.447 88.4379 25.5154 87.9513 26.404C87.4753 27.282 86.8035 27.9591 85.9361 28.4351C85.0792 28.9006 84.0742 29.1333 82.9212 29.1333ZM82.9212 27.3243C84.0213 27.3243 84.8941 26.97 85.5394 26.2612C86.1952 25.5524 86.5232 24.5316 86.5232 23.1987C86.5232 21.8658 86.1952 20.8502 85.5394 20.152C84.8941 19.4433 84.0213 19.0889 82.9212 19.0889C81.821 19.0889 80.9483 19.4433 80.303 20.152C79.6577 20.8502 79.335 21.8658 79.335 23.1987C79.335 24.5422 79.6577 25.5683 80.303 26.2771C80.9588 26.9753 81.8316 27.3243 82.9212 27.3243ZM92.4813 28.9905V19.2476H88.9587V17.4228H98.1621V19.2476H94.5759V28.9905H92.4813ZM99.6168 28.9905V17.4228H101.711V27.1181H107.043V28.9905H99.6168ZM113.061 29.1333C111.908 29.1333 110.898 28.9006 110.03 28.4351C109.173 27.9591 108.502 27.2767 108.015 26.3881C107.539 25.4995 107.301 24.4364 107.301 23.1987C107.301 21.961 107.539 20.9031 108.015 20.0251C108.502 19.1365 109.173 18.4595 110.03 17.994C110.898 17.518 111.908 17.2799 113.061 17.2799C114.214 17.2799 115.224 17.518 116.092 17.994C116.959 18.4595 117.631 19.1365 118.107 20.0251C118.583 20.9137 118.821 21.9716 118.821 23.1987C118.821 24.447 118.578 25.5154 118.091 26.404C117.615 27.282 116.943 27.9591 116.076 28.4351C115.219 28.9006 114.214 29.1333 113.061 29.1333ZM113.061 27.3243C114.161 27.3243 115.034 26.97 115.679 26.2612C116.335 25.5524 116.663 24.5316 116.663 23.1987C116.663 21.8658 116.335 20.8502 115.679 20.152C115.034 19.4433 114.161 19.0889 113.061 19.0889C111.961 19.0889 111.088 19.4433 110.443 20.152C109.797 20.8502 109.475 21.8658 109.475 23.1987C109.475 24.5422 109.797 25.5683 110.443 26.2771C111.099 26.9753 111.971 27.3243 113.061 27.3243ZM125.969 29.1333C124.816 29.1333 123.811 28.9006 122.954 28.4351C122.097 27.9591 121.425 27.2767 120.939 26.3881C120.463 25.4995 120.225 24.4364 120.225 23.1987C120.225 21.9716 120.463 20.919 120.939 20.041C121.425 19.1524 122.097 18.47 122.954 17.994C123.821 17.518 124.826 17.2799 125.969 17.2799C126.942 17.2799 127.804 17.4492 128.555 17.7877C129.317 18.1262 129.936 18.6023 130.412 19.2158C130.888 19.8188 131.184 20.5329 131.3 21.358H129.158C129.01 20.6916 128.65 20.1468 128.079 19.7236C127.519 19.3005 126.815 19.0889 125.969 19.0889C124.869 19.0889 123.996 19.4433 123.351 20.152C122.716 20.8502 122.398 21.8658 122.398 23.1987C122.398 24.5527 122.716 25.5789 123.351 26.2771C123.996 26.9753 124.869 27.3243 125.969 27.3243C126.804 27.3243 127.513 27.1181 128.095 26.7055C128.677 26.2824 129.031 25.727 129.158 25.0394H131.3C131.195 25.8645 130.904 26.5838 130.428 27.1974C129.952 27.811 129.327 28.287 128.555 28.6255C127.794 28.964 126.931 29.1333 125.969 29.1333ZM133.212 28.9905V17.4228H135.307V23.1987L140.353 17.4228H142.876L138.528 22.2307L142.955 28.9905H140.464L137.084 23.7382L135.307 25.6741V28.9905H133.212ZM147.995 28.9905V17.4228H152.803C154.041 17.4228 155.03 17.7507 155.771 18.4066C156.522 19.0519 156.897 19.9669 156.897 21.1517C156.897 21.9028 156.733 22.564 156.405 23.1352C156.077 23.6959 155.607 24.1349 154.993 24.4523C154.39 24.7696 153.66 24.9283 152.803 24.9283L150.09 24.9124V28.9905H147.995ZM152.454 19.2158H150.09V23.2622L152.454 23.278C153.11 23.278 153.655 23.1193 154.089 22.802C154.533 22.4846 154.755 21.961 154.755 21.2311C154.755 20.5011 154.533 19.9828 154.089 19.676C153.644 19.3692 153.1 19.2158 152.454 19.2158ZM161.292 29.1333C160.319 29.1333 159.568 28.853 159.039 28.2923C158.52 27.721 158.261 26.8853 158.261 25.7852V20.5487H160.245V25.2615C160.245 25.9809 160.382 26.5362 160.657 26.9276C160.943 27.3191 161.408 27.5148 162.054 27.5148C162.688 27.5148 163.191 27.2873 163.561 26.8324C163.942 26.3776 164.132 25.8169 164.132 25.1504V20.5487H166.116V28.9905H164.212L164.132 27.3561H164.037C163.825 27.9273 163.471 28.3663 162.974 28.6731C162.477 28.9799 161.916 29.1333 161.292 29.1333ZM173.036 29.1492C172.359 29.1492 171.777 28.9905 171.291 28.6731C170.804 28.3558 170.46 27.9432 170.259 27.4354H170.148L170.069 28.9905H168.165V17.4228H170.148V22.1038H170.259C170.46 21.596 170.804 21.1835 171.291 20.8661C171.777 20.5487 172.359 20.3901 173.036 20.3901C174.062 20.3901 174.888 20.7603 175.512 21.5008C176.136 22.2413 176.448 23.3309 176.448 24.7696C176.448 26.1977 176.136 27.2873 175.512 28.0384C174.888 28.7789 174.062 29.1492 173.036 29.1492ZM172.306 27.5306C172.941 27.5306 173.454 27.3032 173.846 26.8483C174.237 26.3828 174.433 25.69 174.433 24.7696C174.433 23.8387 174.237 23.1458 173.846 22.6909C173.454 22.236 172.941 22.0086 172.306 22.0086C171.83 22.0086 171.434 22.1197 171.116 22.3418C170.799 22.564 170.561 22.8496 170.402 23.1987C170.244 23.5478 170.164 23.9233 170.164 24.3253V25.2139C170.164 25.6053 170.244 25.9809 170.402 26.3405C170.561 26.6896 170.799 26.9753 171.116 27.1974C171.434 27.4196 171.83 27.5306 172.306 27.5306ZM178.051 28.9905V17.4228H180.035V28.9905H178.051ZM182.173 19.3586V17.4228H184.157V19.3586H182.173ZM182.173 28.9905V20.5487H184.157V28.9905H182.173ZM189.913 29.1333C189.077 29.1333 188.347 28.9535 187.723 28.5938C187.099 28.2341 186.618 27.7263 186.279 27.0705C185.941 26.4146 185.772 25.6476 185.772 24.7696C185.772 23.8916 185.941 23.1246 186.279 22.4688C186.628 21.8129 187.115 21.3051 187.739 20.9454C188.374 20.5752 189.12 20.3901 189.977 20.3901C190.685 20.3901 191.315 20.5223 191.865 20.7868C192.415 21.0512 192.854 21.4215 193.182 21.8975C193.52 22.3736 193.706 22.9184 193.737 23.5319H191.801C191.717 23.0347 191.5 22.6592 191.151 22.4053C190.812 22.1514 190.405 22.0245 189.929 22.0245C189.231 22.0245 188.697 22.2783 188.326 22.7861C187.956 23.2833 187.771 23.9445 187.771 24.7696C187.771 25.6688 187.967 26.3511 188.358 26.8166C188.749 27.2715 189.268 27.4989 189.913 27.4989C190.463 27.4989 190.908 27.3561 191.246 27.0705C191.585 26.7743 191.78 26.3934 191.833 25.928H193.769C193.727 26.5733 193.536 27.1392 193.198 27.6258C192.859 28.1019 192.404 28.4721 191.833 28.7366C191.272 29.0011 190.632 29.1333 189.913 29.1333ZM203.99 29.1333C202.805 29.1333 201.79 28.8847 200.943 28.3875C200.097 27.8903 199.441 27.1974 198.976 26.3088C198.521 25.4202 198.294 24.3835 198.294 23.1987C198.294 21.9716 198.537 20.9137 199.023 20.0251C199.51 19.1365 200.187 18.4595 201.055 17.994C201.922 17.518 202.932 17.2799 204.085 17.2799C205.08 17.2799 205.958 17.4492 206.719 17.7877C207.481 18.1157 208.095 18.5811 208.56 19.1841C209.026 19.7871 209.306 20.4853 209.401 21.2787H207.243C207.095 20.5911 206.735 20.0568 206.164 19.676C205.593 19.2846 204.9 19.0889 204.085 19.0889C202.985 19.0889 202.102 19.438 201.435 20.1362C200.779 20.8344 200.452 21.8552 200.452 23.1987C200.452 24.5422 200.774 25.5736 201.419 26.2929C202.065 27.0123 202.932 27.372 204.022 27.372C205.027 27.372 205.836 27.1128 206.45 26.5944C207.074 26.0655 207.418 25.3409 207.481 24.4205H204.054V22.8972H209.623V23.8651C209.623 24.9336 209.39 25.8645 208.925 26.6579C208.46 27.4407 207.804 28.049 206.957 28.4827C206.111 28.9164 205.122 29.1333 203.99 29.1333ZM215.033 29.1333C214.198 29.1333 213.462 28.9587 212.828 28.6096C212.204 28.2606 211.717 27.7581 211.368 27.1022C211.019 26.4463 210.844 25.6688 210.844 24.7696C210.844 23.9022 211.008 23.1405 211.336 22.4846C211.675 21.8288 212.156 21.3157 212.78 20.9454C213.404 20.5752 214.155 20.3901 215.033 20.3901C215.858 20.3901 216.583 20.5699 217.207 20.9296C217.831 21.2787 218.318 21.7812 218.667 22.437C219.016 23.0823 219.191 23.8598 219.191 24.7696C219.191 25.6371 219.021 26.3987 218.683 27.0546C218.355 27.7105 217.879 28.2235 217.255 28.5938C216.641 28.9535 215.901 29.1333 215.033 29.1333ZM215.017 27.4989C215.673 27.4989 216.197 27.2715 216.588 26.8166C216.99 26.3511 217.191 25.6688 217.191 24.7696C217.191 23.8704 216.996 23.1881 216.604 22.7226C216.213 22.2572 215.689 22.0245 215.033 22.0245C214.377 22.0245 213.848 22.2572 213.447 22.7226C213.045 23.1881 212.844 23.8704 212.844 24.7696C212.844 25.6582 213.039 26.3352 213.431 26.8007C213.822 27.2662 214.351 27.4989 215.017 27.4989ZM224.61 29.1333C223.774 29.1333 223.039 28.9587 222.404 28.6096C221.78 28.2606 221.293 27.7581 220.944 27.1022C220.595 26.4463 220.421 25.6688 220.421 24.7696C220.421 23.9022 220.585 23.1405 220.913 22.4846C221.251 21.8288 221.732 21.3157 222.357 20.9454C222.981 20.5752 223.732 20.3901 224.61 20.3901C225.435 20.3901 226.16 20.5699 226.784 20.9296C227.408 21.2787 227.894 21.7812 228.244 22.437C228.593 23.0823 228.767 23.8598 228.767 24.7696C228.767 25.6371 228.598 26.3987 228.259 27.0546C227.932 27.7105 227.455 28.2235 226.831 28.5938C226.218 28.9535 225.477 29.1333 224.61 29.1333ZM224.594 27.4989C225.25 27.4989 225.773 27.2715 226.165 26.8166C226.567 26.3511 226.768 25.6688 226.768 24.7696C226.768 23.8704 226.572 23.1881 226.181 22.7226C225.789 22.2572 225.266 22.0245 224.61 22.0245C223.954 22.0245 223.425 22.2572 223.023 22.7226C222.621 23.1881 222.42 23.8704 222.42 24.7696C222.42 25.6582 222.616 26.3352 223.007 26.8007C223.399 27.2662 223.928 27.4989 224.594 27.4989ZM233.393 29.1333C232.377 29.1333 231.558 28.763 230.933 28.0225C230.309 27.282 229.997 26.1977 229.997 24.7696C229.997 23.3309 230.309 22.2413 230.933 21.5008C231.558 20.7603 232.377 20.3901 233.393 20.3901C234.081 20.3901 234.668 20.5487 235.154 20.8661C235.641 21.1729 235.985 21.5854 236.186 22.1038H236.297V17.4228H238.28L238.264 28.9905H236.36L236.297 27.4196H236.186C235.985 27.9273 235.641 28.3399 235.154 28.6573C234.668 28.9746 234.081 29.1333 233.393 29.1333ZM234.139 27.5148C234.604 27.5148 234.996 27.4037 235.313 27.1815C235.63 26.9594 235.868 26.6738 236.027 26.3247C236.186 25.9756 236.265 25.6 236.265 25.198V24.3253C236.265 23.9233 236.186 23.5478 236.027 23.1987C235.868 22.839 235.63 22.5534 235.313 22.3418C234.996 22.1197 234.604 22.0086 234.139 22.0086C233.504 22.0086 232.991 22.236 232.6 22.6909C232.208 23.1458 232.012 23.8387 232.012 24.7696C232.012 25.69 232.208 26.3776 232.6 26.8324C232.991 27.2873 233.504 27.5148 234.139 27.5148ZM243.486 29.1492C242.364 29.1492 241.476 28.89 240.82 28.3716C240.175 27.8533 239.857 27.171 239.868 26.3247H241.82C241.83 26.8113 241.989 27.1657 242.296 27.3878C242.613 27.61 243.031 27.721 243.549 27.721C244.046 27.721 244.422 27.6311 244.676 27.4513C244.94 27.2609 245.073 27.0017 245.073 26.6738C245.073 26.2824 244.935 26.0179 244.66 25.8804C244.395 25.7323 243.935 25.6106 243.279 25.5154C242.2 25.3567 241.396 25.1028 240.868 24.7537C240.349 24.3941 240.09 23.8122 240.09 23.0083C240.09 22.4793 240.233 22.0192 240.518 21.6278C240.804 21.2364 241.206 20.9349 241.724 20.7233C242.243 20.5011 242.851 20.3901 243.549 20.3901C244.565 20.3901 245.374 20.6334 245.977 21.12C246.591 21.596 246.908 22.2413 246.929 23.0559H244.977C244.977 22.6116 244.84 22.2942 244.565 22.1038C244.3 21.9028 243.946 21.8023 243.502 21.8023C243.047 21.8023 242.692 21.8922 242.438 22.0721C242.195 22.2519 242.073 22.5058 242.073 22.8337C242.073 23.1934 242.227 23.4473 242.534 23.5954C242.84 23.7435 243.348 23.8651 244.057 23.9603C245.062 24.0979 245.818 24.3465 246.326 24.7061C246.844 25.0658 247.104 25.6635 247.104 26.4992C247.104 27.3455 246.77 28.0014 246.104 28.4668C245.448 28.9217 244.575 29.1492 243.486 29.1492Z" fill="black"/>
<path d="M67.28 56.5242V44.9565H71.8341C72.9237 44.9565 73.8546 45.1998 74.6268 45.6864C75.3991 46.1624 75.9915 46.8342 76.404 47.7016C76.8166 48.569 77.0229 49.5846 77.0229 50.7482C77.0229 51.9119 76.8166 52.9274 76.404 53.7949C75.9915 54.6518 75.3991 55.3235 74.6268 55.8101C73.8546 56.2862 72.9237 56.5242 71.8341 56.5242H67.28ZM68.6288 55.3341H71.6595C72.8761 55.3341 73.8387 54.9427 74.5475 54.1598C75.2668 53.3665 75.6265 52.2187 75.6265 50.7165C75.6265 49.1932 75.2615 48.0507 74.5316 47.289C73.8123 46.5274 72.8549 46.1465 71.6595 46.1465H68.6288V55.3341ZM82.463 56.667C81.659 56.667 80.9555 56.4924 80.3525 56.1433C79.7496 55.7837 79.2788 55.2865 78.9403 54.6518C78.6018 54.0065 78.4325 53.2501 78.4325 52.3826C78.4325 51.5258 78.5965 50.7747 78.9244 50.1294C79.2629 49.4841 79.7337 48.9816 80.3367 48.6219C80.9397 48.2517 81.6484 48.0666 82.463 48.0666C83.267 48.0666 83.9651 48.2464 84.5575 48.6061C85.1605 48.9552 85.626 49.4524 85.9539 50.0977C86.2924 50.7324 86.4617 51.4887 86.4617 52.3668C86.4617 53.2131 86.2977 53.9589 85.9698 54.6042C85.6419 55.2494 85.1764 55.7572 84.5734 56.1275C83.981 56.4871 83.2775 56.667 82.463 56.667ZM82.463 55.5562C83.267 55.5562 83.9175 55.2759 84.4147 54.7152C84.9119 54.1546 85.1605 53.3717 85.1605 52.3668C85.1605 51.3724 84.9172 50.5896 84.4306 50.0183C83.9546 49.4365 83.2987 49.1456 82.463 49.1456C81.6484 49.1456 80.9926 49.4312 80.4954 50.0025C79.9982 50.5631 79.7496 51.3565 79.7496 52.3826C79.7496 53.3665 79.9929 54.144 80.4795 54.7152C80.9661 55.2759 81.6273 55.5562 82.463 55.5562ZM88.2863 56.5242V48.1935H89.5081L89.5557 49.9231H89.6509C89.9048 49.3096 90.2962 48.8494 90.8251 48.5426C91.3541 48.2252 91.9306 48.0666 92.5547 48.0666C93.1366 48.0666 93.6496 48.1829 94.0939 48.4157C94.5488 48.6484 94.9032 49.0292 95.1571 49.5582C95.4215 50.0765 95.5538 50.7641 95.5538 51.621V56.5242H94.2685V51.8749C94.2685 50.9439 94.0939 50.2563 93.7448 49.812C93.3957 49.3677 92.8615 49.1456 92.1422 49.1456C91.6132 49.1456 91.1531 49.2725 90.7617 49.5264C90.3808 49.7803 90.0846 50.1241 89.8731 50.5578C89.6615 50.9916 89.5557 51.4782 89.5557 52.0177V56.5242H88.2863ZM100.734 56.667C99.7186 56.667 98.8935 56.2914 98.2588 55.5404C97.624 54.7893 97.3067 53.7261 97.3067 52.3509C97.3067 50.9757 97.624 49.9178 98.2588 49.1773C98.8935 48.4262 99.7186 48.0507 100.734 48.0507C101.464 48.0507 102.083 48.2252 102.591 48.5743C103.109 48.9129 103.474 49.3624 103.686 49.9231H103.765L103.813 48.1935H105.05V56.5242H103.765V54.7787H103.686C103.474 55.3394 103.109 55.7942 102.591 56.1433C102.083 56.4924 101.464 56.667 100.734 56.667ZM101.163 55.588C101.723 55.588 102.194 55.4557 102.575 55.1913C102.956 54.9268 103.247 54.5883 103.448 54.1757C103.649 53.7632 103.749 53.3241 103.749 52.8587V51.8431C103.749 51.3777 103.649 50.9387 103.448 50.5261C103.247 50.1029 102.956 49.7644 102.575 49.5105C102.194 49.2461 101.723 49.1138 101.163 49.1138C100.401 49.1138 99.7874 49.3942 99.3219 49.9548C98.8564 50.5049 98.6237 51.3036 98.6237 52.3509C98.6237 53.3982 98.8564 54.2022 99.3219 54.7628C99.7874 55.3129 100.401 55.588 101.163 55.588ZM109.66 56.5242C109.047 56.5242 108.618 56.3919 108.375 56.1275C108.142 55.863 108.026 55.4663 108.026 54.9374V49.2567H106.408V48.1935H108.026V45.7022L109.311 45.5277V48.1935H111.247V49.2567H109.311V54.7152C109.311 55.0114 109.364 55.2071 109.47 55.3023C109.576 55.3975 109.772 55.4452 110.057 55.4452H111.247V56.5242H109.66ZM115.882 56.667C114.687 56.667 113.756 56.2809 113.089 55.5086C112.433 54.7258 112.105 53.6891 112.105 52.3985C112.105 51.5205 112.248 50.7588 112.534 50.1135C112.83 49.4577 113.253 48.9552 113.803 48.6061C114.364 48.2464 115.041 48.0666 115.834 48.0666C116.681 48.0666 117.379 48.257 117.929 48.6378C118.479 49.0186 118.876 49.5529 119.119 50.2405C119.373 50.9175 119.468 51.695 119.405 52.5731H113.359C113.38 53.6098 113.613 54.3873 114.057 54.9056C114.512 55.4134 115.12 55.6673 115.882 55.6673C116.496 55.6673 116.998 55.5139 117.389 55.2071C117.781 54.9004 118.029 54.4984 118.135 54.0012H119.373C119.257 54.8475 118.87 55.5033 118.215 55.9688C117.569 56.4343 116.792 56.667 115.882 56.667ZM115.834 49.0662C115.136 49.0662 114.57 49.2884 114.136 49.7327C113.703 50.1664 113.454 50.8064 113.391 51.6527H118.151C118.13 50.7535 117.902 50.0977 117.469 49.6851C117.046 49.2725 116.501 49.0662 115.834 49.0662ZM124.226 56.667C123.211 56.667 122.385 56.2914 121.751 55.5404C121.116 54.7893 120.799 53.7261 120.799 52.3509C120.799 50.9757 121.116 49.9178 121.751 49.1773C122.385 48.4262 123.211 48.0507 124.226 48.0507C124.956 48.0507 125.575 48.2252 126.083 48.5743C126.601 48.9129 126.966 49.3624 127.178 49.9231H127.257V44.9565H128.542L128.526 56.5242H127.304L127.257 54.7787H127.178C126.966 55.3394 126.601 55.7942 126.083 56.1433C125.575 56.4924 124.956 56.667 124.226 56.667ZM124.655 55.588C125.215 55.588 125.686 55.4557 126.067 55.1913C126.448 54.9268 126.739 54.5883 126.94 54.1757C127.141 53.7632 127.241 53.3241 127.241 52.8587V51.8431C127.241 51.3777 127.141 50.9387 126.94 50.5261C126.739 50.1029 126.448 49.7644 126.067 49.5105C125.686 49.2461 125.215 49.1138 124.655 49.1138C123.893 49.1138 123.279 49.3942 122.814 49.9548C122.348 50.5049 122.116 51.3036 122.116 52.3509C122.116 53.3982 122.348 54.2022 122.814 54.7628C123.279 55.3129 123.893 55.588 124.655 55.588ZM136.779 56.5242C136.165 56.5242 135.737 56.3919 135.493 56.1275C135.26 55.863 135.144 55.4663 135.144 54.9374V49.2567H133.526V48.1935H135.144V45.7022L136.429 45.5277V48.1935H138.365V49.2567H136.429V54.7152C136.429 55.0114 136.482 55.2071 136.588 55.3023C136.694 55.3975 136.89 55.4452 137.175 55.4452H138.365V56.5242H136.779ZM143.254 56.667C142.45 56.667 141.746 56.4924 141.143 56.1433C140.54 55.7837 140.07 55.2865 139.731 54.6518C139.393 54.0065 139.223 53.2501 139.223 52.3826C139.223 51.5258 139.387 50.7747 139.715 50.1294C140.054 49.4841 140.525 48.9816 141.128 48.6219C141.731 48.2517 142.439 48.0666 143.254 48.0666C144.058 48.0666 144.756 48.2464 145.348 48.6061C145.951 48.9552 146.417 49.4524 146.745 50.0977C147.083 50.7324 147.253 51.4887 147.253 52.3668C147.253 53.2131 147.089 53.9589 146.761 54.6042C146.433 55.2494 145.967 55.7572 145.364 56.1275C144.772 56.4871 144.068 56.667 143.254 56.667ZM143.254 55.5562C144.058 55.5562 144.708 55.2759 145.206 54.7152C145.703 54.1546 145.951 53.3717 145.951 52.3668C145.951 51.3724 145.708 50.5896 145.221 50.0183C144.745 49.4365 144.09 49.1456 143.254 49.1456C142.439 49.1456 141.783 49.4312 141.286 50.0025C140.789 50.5631 140.54 51.3565 140.54 52.3826C140.54 53.3665 140.784 54.144 141.27 54.7152C141.757 55.2759 142.418 55.5562 143.254 55.5562ZM152.005 59.1741V58.111H152.862C153.243 58.111 153.544 58.0263 153.766 57.8571C153.989 57.6984 154.168 57.4445 154.306 57.0954L154.75 55.9529L151.434 48.1935H152.846L154.941 53.5727L155.337 54.62H155.401L155.766 53.5727L157.749 48.1935H159.098L155.512 57.4128C155.269 58.0581 154.951 58.5129 154.56 58.7774C154.179 59.0419 153.676 59.1741 153.052 59.1741H152.005ZM163.6 56.667C162.796 56.667 162.093 56.4924 161.49 56.1433C160.887 55.7837 160.416 55.2865 160.077 54.6518C159.739 54.0065 159.57 53.2501 159.57 52.3826C159.57 51.5258 159.734 50.7747 160.062 50.1294C160.4 49.4841 160.871 48.9816 161.474 48.6219C162.077 48.2517 162.786 48.0666 163.6 48.0666C164.404 48.0666 165.102 48.2464 165.695 48.6061C166.298 48.9552 166.763 49.4524 167.091 50.0977C167.43 50.7324 167.599 51.4887 167.599 52.3668C167.599 53.2131 167.435 53.9589 167.107 54.6042C166.779 55.2494 166.314 55.7572 165.711 56.1275C165.118 56.4871 164.415 56.667 163.6 56.667ZM163.6 55.5562C164.404 55.5562 165.055 55.2759 165.552 54.7152C166.049 54.1546 166.298 53.3717 166.298 52.3668C166.298 51.3724 166.054 50.5896 165.568 50.0183C165.092 49.4365 164.436 49.1456 163.6 49.1456C162.786 49.1456 162.13 49.4312 161.633 50.0025C161.135 50.5631 160.887 51.3565 160.887 52.3826C160.887 53.3665 161.13 54.144 161.617 54.7152C162.103 55.2759 162.764 55.5562 163.6 55.5562ZM172.359 56.667C171.428 56.667 170.693 56.3866 170.153 55.826C169.614 55.2547 169.344 54.4137 169.344 53.303V48.1935H170.629V52.9856C170.629 53.8108 170.799 54.4508 171.137 54.9056C171.476 55.3499 172.031 55.5721 172.803 55.5721C173.554 55.5721 174.163 55.3023 174.628 54.7628C175.094 54.2233 175.326 53.5146 175.326 52.6365V48.1935H176.612V56.5242H175.39L175.326 54.747H175.247C175.035 55.3499 174.665 55.8207 174.136 56.1592C173.618 56.4977 173.025 56.667 172.359 56.667ZM178.938 56.5242V48.1935H180.08L180.16 49.7327H180.223C180.403 49.1932 180.72 48.7859 181.175 48.5109C181.63 48.2252 182.138 48.0824 182.699 48.0824C182.794 48.0824 182.884 48.0877 182.968 48.0983C183.053 48.0983 183.132 48.1036 183.206 48.1142V49.336C183.143 49.3254 183.064 49.3201 182.968 49.3201C182.884 49.3096 182.794 49.3043 182.699 49.3043C181.969 49.3043 181.382 49.5 180.937 49.8914C180.504 50.2828 180.26 50.8382 180.207 51.5575V56.5242H178.938ZM188.344 59.1741L188.36 48.1935H189.582L189.629 49.9231H189.725C189.926 49.3624 190.28 48.9129 190.788 48.5743C191.306 48.2252 191.93 48.0507 192.66 48.0507C193.676 48.0507 194.501 48.4262 195.136 49.1773C195.77 49.9284 196.088 50.9916 196.088 52.3668C196.088 53.742 195.77 54.8051 195.136 55.5562C194.501 56.2967 193.676 56.667 192.66 56.667C191.93 56.667 191.306 56.4977 190.788 56.1592C190.28 55.8101 189.926 55.3552 189.725 54.7946H189.629V59.1741H188.344ZM192.232 55.588C192.993 55.588 193.607 55.3129 194.072 54.7628C194.548 54.2127 194.786 53.4141 194.786 52.3668C194.786 51.3089 194.548 50.5049 194.072 49.9548C193.607 49.4048 192.993 49.1297 192.232 49.1297C191.682 49.1297 191.211 49.2619 190.819 49.5264C190.439 49.7803 190.148 50.1188 189.947 50.542C189.746 50.9545 189.645 51.3935 189.645 51.859V52.8587C189.645 53.3347 189.746 53.779 189.947 54.1916C190.148 54.6042 190.439 54.9427 190.819 55.2071C191.211 55.461 191.682 55.588 192.232 55.588ZM197.921 56.5242V48.1935H199.063L199.142 49.7327H199.206C199.386 49.1932 199.703 48.7859 200.158 48.5109C200.613 48.2252 201.121 48.0824 201.681 48.0824C201.776 48.0824 201.866 48.0877 201.951 48.0983C202.036 48.0983 202.115 48.1036 202.189 48.1142V49.336C202.126 49.3254 202.046 49.3201 201.951 49.3201C201.866 49.3096 201.776 49.3043 201.681 49.3043C200.951 49.3043 200.364 49.5 199.92 49.8914C199.486 50.2828 199.243 50.8382 199.19 51.5575V56.5242H197.921ZM206.85 56.667C206.046 56.667 205.342 56.4924 204.739 56.1433C204.136 55.7837 203.665 55.2865 203.327 54.6518C202.988 54.0065 202.819 53.2501 202.819 52.3826C202.819 51.5258 202.983 50.7747 203.311 50.1294C203.649 49.4841 204.12 48.9816 204.723 48.6219C205.326 48.2517 206.035 48.0666 206.85 48.0666C207.654 48.0666 208.352 48.2464 208.944 48.6061C209.547 48.9552 210.013 49.4524 210.34 50.0977C210.679 50.7324 210.848 51.4887 210.848 52.3668C210.848 53.2131 210.684 53.9589 210.356 54.6042C210.028 55.2494 209.563 55.7572 208.96 56.1275C208.368 56.4871 207.664 56.667 206.85 56.667ZM206.85 55.5562C207.654 55.5562 208.304 55.2759 208.801 54.7152C209.298 54.1546 209.547 53.3717 209.547 52.3668C209.547 51.3724 209.304 50.5896 208.817 50.0183C208.341 49.4365 207.685 49.1456 206.85 49.1456C206.035 49.1456 205.379 49.4312 204.882 50.0025C204.385 50.5631 204.136 51.3565 204.136 52.3826C204.136 53.3665 204.379 54.144 204.866 54.7152C205.353 55.2759 206.014 55.5562 206.85 55.5562ZM212.53 46.813V44.9565H213.815V46.813H212.53ZM210.88 59.2852V58.2538H211.578C211.938 58.2538 212.186 58.1691 212.324 57.9999C212.461 57.8306 212.53 57.5767 212.53 57.2382V48.1935H213.815V57.3652C213.815 57.9682 213.662 58.4389 213.355 58.7774C213.059 59.1159 212.572 59.2852 211.895 59.2852H210.88ZM219.411 56.667C218.215 56.667 217.285 56.2809 216.618 55.5086C215.962 54.7258 215.634 53.6891 215.634 52.3985C215.634 51.5205 215.777 50.7588 216.063 50.1135C216.359 49.4577 216.782 48.9552 217.332 48.6061C217.893 48.2464 218.57 48.0666 219.363 48.0666C220.21 48.0666 220.908 48.257 221.458 48.6378C222.008 49.0186 222.405 49.5529 222.648 50.2405C222.902 50.9175 222.997 51.695 222.934 52.5731H216.888C216.909 53.6098 217.142 54.3873 217.586 54.9056C218.041 55.4134 218.649 55.6673 219.411 55.6673C220.024 55.6673 220.527 55.5139 220.918 55.2071C221.31 54.9004 221.558 54.4984 221.664 54.0012H222.902C222.785 54.8475 222.399 55.5033 221.743 55.9688C221.098 56.4343 220.321 56.667 219.411 56.667ZM219.363 49.0662C218.665 49.0662 218.099 49.2884 217.665 49.7327C217.232 50.1664 216.983 50.8064 216.92 51.6527H221.68C221.659 50.7535 221.431 50.0977 220.998 49.6851C220.575 49.2725 220.03 49.0662 219.363 49.0662ZM228.326 56.667C227.522 56.667 226.819 56.4871 226.216 56.1275C225.623 55.7678 225.158 55.2706 224.819 54.6359C224.492 53.9906 224.328 53.2342 224.328 52.3668C224.328 51.5099 224.492 50.7588 224.819 50.1135C225.158 49.4682 225.629 48.9657 226.232 48.6061C226.845 48.2464 227.559 48.0666 228.374 48.0666C229.03 48.0666 229.617 48.1882 230.135 48.4315C230.654 48.6748 231.071 49.0186 231.389 49.4629C231.706 49.8967 231.886 50.4044 231.928 50.9863H230.691C230.585 50.3939 230.315 49.9443 229.881 49.6375C229.448 49.3201 228.935 49.1615 228.342 49.1615C227.485 49.1615 226.819 49.4577 226.343 50.0501C225.867 50.6425 225.629 51.42 225.629 52.3826C225.629 53.3876 225.872 54.1704 226.359 54.7311C226.856 55.2918 227.512 55.5721 228.326 55.5721C228.993 55.5721 229.538 55.3923 229.961 55.0326C230.394 54.6729 230.648 54.1969 230.722 53.6045H231.976C231.923 54.2286 231.733 54.7681 231.405 55.223C231.087 55.6779 230.659 56.0323 230.119 56.2862C229.59 56.54 228.993 56.667 228.326 56.667ZM235.953 56.5242C235.339 56.5242 234.911 56.3919 234.668 56.1275C234.435 55.863 234.319 55.4663 234.319 54.9374V49.2567H232.7V48.1935H234.319V45.7022L235.604 45.5277V48.1935H237.54V49.2567H235.604V54.7152C235.604 55.0114 235.657 55.2071 235.763 55.3023C235.868 55.3975 236.064 55.4452 236.35 55.4452H237.54V56.5242H235.953Z" fill="black"/>
<path d="M20 11.5481H339C345.32 11.5481 350.442 16.6709 350.442 22.9905V73.5247C350.442 79.844 345.319 84.967 339 84.967H20C13.6806 84.967 8.55788 79.844 8.55762 73.5247V22.9905C8.55762 16.6709 13.6805 11.5481 20 11.5481Z" fill="white"/>
<path d="M20 11.5481H339C345.32 11.5481 350.442 16.6709 350.442 22.9905V73.5247C350.442 79.844 345.319 84.967 339 84.967H20C13.6806 84.967 8.55788 79.844 8.55762 73.5247V22.9905C8.55762 16.6709 13.6805 11.5481 20 11.5481Z" stroke="#E2E8F0" stroke-width="1.11489"/>
<path d="M26 42.9905C26 31.9448 34.9543 22.9905 46 22.9905C57.0457 22.9905 66 31.9448 66 42.9905C66 54.0362 57.0457 62.9905 46 62.9905C34.9543 62.9905 26 54.0362 26 42.9905Z" fill="#292929"/>
<path d="M34 53.1768H58V29.1768H34V53.1768Z" fill="#292929"/>
<path d="M75.1372 39.9905V28.4228H79.9451C81.1828 28.4228 82.1719 28.7507 82.9124 29.4066C83.6635 30.0519 84.0391 30.9669 84.0391 32.1517C84.0391 32.9028 83.8751 33.564 83.5472 34.1352C83.2192 34.6959 82.7485 35.1349 82.1349 35.4523C81.5319 35.7696 80.802 35.9283 79.9451 35.9283L77.2317 35.9124V39.9905H75.1372ZM79.5961 30.2158H77.2317V34.2622L79.5961 34.278C80.2519 34.278 80.7967 34.1193 81.2304 33.802C81.6748 33.4846 81.8969 32.961 81.8969 32.2311C81.8969 31.5011 81.6748 30.9828 81.2304 30.676C80.7861 30.3692 80.2413 30.2158 79.5961 30.2158ZM90.9212 40.1333C89.7681 40.1333 88.7578 39.9006 87.8904 39.4351C87.0335 38.9591 86.3618 38.2767 85.8752 37.3881C85.3991 36.4995 85.1611 35.4364 85.1611 34.1987C85.1611 32.961 85.3991 31.9031 85.8752 31.0251C86.3618 30.1365 87.0335 29.4595 87.8904 28.994C88.7578 28.518 89.7681 28.2799 90.9212 28.2799C92.0742 28.2799 93.0845 28.518 93.9519 28.994C94.8194 29.4595 95.4911 30.1365 95.9672 31.0251C96.4432 31.9137 96.6812 32.9716 96.6812 34.1987C96.6812 35.447 96.4379 36.5154 95.9513 37.404C95.4753 38.282 94.8035 38.9591 93.9361 39.4351C93.0792 39.9006 92.0742 40.1333 90.9212 40.1333ZM90.9212 38.3243C92.0213 38.3243 92.8941 37.97 93.5394 37.2612C94.1952 36.5524 94.5232 35.5316 94.5232 34.1987C94.5232 32.8658 94.1952 31.8502 93.5394 31.152C92.8941 30.4433 92.0213 30.0889 90.9212 30.0889C89.821 30.0889 88.9483 30.4433 88.303 31.152C87.6577 31.8502 87.335 32.8658 87.335 34.1987C87.335 35.5422 87.6577 36.5683 88.303 37.2771C88.9588 37.9753 89.8316 38.3243 90.9212 38.3243ZM100.481 39.9905V30.2476H96.9587V28.4228H106.162V30.2476H102.576V39.9905H100.481ZM107.617 39.9905V28.4228H109.711V38.1181H115.043V39.9905H107.617ZM121.061 40.1333C119.908 40.1333 118.898 39.9006 118.03 39.4351C117.173 38.9591 116.502 38.2767 116.015 37.3881C115.539 36.4995 115.301 35.4364 115.301 34.1987C115.301 32.961 115.539 31.9031 116.015 31.0251C116.502 30.1365 117.173 29.4595 118.03 28.994C118.898 28.518 119.908 28.2799 121.061 28.2799C122.214 28.2799 123.224 28.518 124.092 28.994C124.959 29.4595 125.631 30.1365 126.107 31.0251C126.583 31.9137 126.821 32.9716 126.821 34.1987C126.821 35.447 126.578 36.5154 126.091 37.404C125.615 38.282 124.943 38.9591 124.076 39.4351C123.219 39.9006 122.214 40.1333 121.061 40.1333ZM121.061 38.3243C122.161 38.3243 123.034 37.97 123.679 37.2612C124.335 36.5524 124.663 35.5316 124.663 34.1987C124.663 32.8658 124.335 31.8502 123.679 31.152C123.034 30.4433 122.161 30.0889 121.061 30.0889C119.961 30.0889 119.088 30.4433 118.443 31.152C117.797 31.8502 117.475 32.8658 117.475 34.1987C117.475 35.5422 117.797 36.5683 118.443 37.2771C119.099 37.9753 119.971 38.3243 121.061 38.3243ZM133.969 40.1333C132.816 40.1333 131.811 39.9006 130.954 39.4351C130.097 38.9591 129.425 38.2767 128.939 37.3881C128.463 36.4995 128.225 35.4364 128.225 34.1987C128.225 32.9716 128.463 31.919 128.939 31.041C129.425 30.1524 130.097 29.47 130.954 28.994C131.821 28.518 132.826 28.2799 133.969 28.2799C134.942 28.2799 135.804 28.4492 136.555 28.7877C137.317 29.1262 137.936 29.6023 138.412 30.2158C138.888 30.8188 139.184 31.5329 139.3 32.358H137.158C137.01 31.6916 136.65 31.1468 136.079 30.7236C135.519 30.3005 134.815 30.0889 133.969 30.0889C132.869 30.0889 131.996 30.4433 131.351 31.152C130.716 31.8502 130.398 32.8658 130.398 34.1987C130.398 35.5527 130.716 36.5789 131.351 37.2771C131.996 37.9753 132.869 38.3243 133.969 38.3243C134.804 38.3243 135.513 38.1181 136.095 37.7055C136.677 37.2824 137.031 36.727 137.158 36.0394H139.3C139.195 36.8645 138.904 37.5838 138.428 38.1974C137.952 38.811 137.327 39.287 136.555 39.6255C135.794 39.964 134.931 40.1333 133.969 40.1333ZM141.212 39.9905V28.4228H143.307V34.1987L148.353 28.4228H150.876L146.528 33.2307L150.955 39.9905H148.464L145.084 34.7382L143.307 36.6741V39.9905H141.212ZM155.995 39.9905V28.4228H160.803C162.041 28.4228 163.03 28.7507 163.771 29.4066C164.522 30.0519 164.897 30.9669 164.897 32.1517C164.897 32.9028 164.733 33.564 164.405 34.1352C164.077 34.6959 163.607 35.1349 162.993 35.4523C162.39 35.7696 161.66 35.9283 160.803 35.9283L158.09 35.9124V39.9905H155.995ZM160.454 30.2158H158.09V34.2622L160.454 34.278C161.11 34.278 161.655 34.1193 162.089 33.802C162.533 33.4846 162.755 32.961 162.755 32.2311C162.755 31.5011 162.533 30.9828 162.089 30.676C161.644 30.3692 161.1 30.2158 160.454 30.2158ZM169.292 40.1333C168.319 40.1333 167.568 39.853 167.039 39.2923C166.52 38.721 166.261 37.8853 166.261 36.7852V31.5487H168.245V36.2615C168.245 36.9809 168.382 37.5362 168.657 37.9276C168.943 38.3191 169.408 38.5148 170.054 38.5148C170.688 38.5148 171.191 38.2873 171.561 37.8324C171.942 37.3776 172.132 36.8169 172.132 36.1504V31.5487H174.116V39.9905H172.212L172.132 38.3561H172.037C171.825 38.9273 171.471 39.3663 170.974 39.6731C170.477 39.9799 169.916 40.1333 169.292 40.1333ZM181.036 40.1492C180.359 40.1492 179.777 39.9905 179.291 39.6731C178.804 39.3558 178.46 38.9432 178.259 38.4354H178.148L178.069 39.9905H176.165V28.4228H178.148V33.1038H178.259C178.46 32.596 178.804 32.1835 179.291 31.8661C179.777 31.5487 180.359 31.3901 181.036 31.3901C182.062 31.3901 182.888 31.7603 183.512 32.5008C184.136 33.2413 184.448 34.3309 184.448 35.7696C184.448 37.1977 184.136 38.2873 183.512 39.0384C182.888 39.7789 182.062 40.1492 181.036 40.1492ZM180.306 38.5306C180.941 38.5306 181.454 38.3032 181.846 37.8483C182.237 37.3828 182.433 36.69 182.433 35.7696C182.433 34.8387 182.237 34.1458 181.846 33.6909C181.454 33.236 180.941 33.0086 180.306 33.0086C179.83 33.0086 179.434 33.1197 179.116 33.3418C178.799 33.564 178.561 33.8496 178.402 34.1987C178.244 34.5478 178.164 34.9233 178.164 35.3253V36.2139C178.164 36.6053 178.244 36.9809 178.402 37.3405C178.561 37.6896 178.799 37.9753 179.116 38.1974C179.434 38.4196 179.83 38.5306 180.306 38.5306ZM186.051 39.9905V28.4228H188.035V39.9905H186.051ZM190.173 30.3586V28.4228H192.157V30.3586H190.173ZM190.173 39.9905V31.5487H192.157V39.9905H190.173ZM197.913 40.1333C197.077 40.1333 196.347 39.9535 195.723 39.5938C195.099 39.2341 194.618 38.7263 194.279 38.0705C193.941 37.4146 193.772 36.6476 193.772 35.7696C193.772 34.8916 193.941 34.1246 194.279 33.4688C194.628 32.8129 195.115 32.3051 195.739 31.9454C196.374 31.5752 197.12 31.3901 197.977 31.3901C198.685 31.3901 199.315 31.5223 199.865 31.7868C200.415 32.0512 200.854 32.4215 201.182 32.8975C201.52 33.3736 201.706 33.9184 201.737 34.5319H199.801C199.717 34.0347 199.5 33.6592 199.151 33.4053C198.812 33.1514 198.405 33.0245 197.929 33.0245C197.231 33.0245 196.697 33.2783 196.326 33.7861C195.956 34.2833 195.771 34.9445 195.771 35.7696C195.771 36.6688 195.967 37.3511 196.358 37.8166C196.749 38.2715 197.268 38.4989 197.913 38.4989C198.463 38.4989 198.908 38.3561 199.246 38.0705C199.585 37.7743 199.78 37.3934 199.833 36.928H201.769C201.727 37.5733 201.536 38.1392 201.198 38.6258C200.859 39.1019 200.404 39.4721 199.833 39.7366C199.272 40.0011 198.632 40.1333 197.913 40.1333ZM211.99 40.1333C210.805 40.1333 209.79 39.8847 208.943 39.3875C208.097 38.8903 207.441 38.1974 206.976 37.3088C206.521 36.4202 206.294 35.3835 206.294 34.1987C206.294 32.9716 206.537 31.9137 207.023 31.0251C207.51 30.1365 208.187 29.4595 209.055 28.994C209.922 28.518 210.932 28.2799 212.085 28.2799C213.08 28.2799 213.958 28.4492 214.719 28.7877C215.481 29.1157 216.095 29.5811 216.56 30.1841C217.026 30.7871 217.306 31.4853 217.401 32.2787H215.243C215.095 31.5911 214.735 31.0568 214.164 30.676C213.593 30.2846 212.9 30.0889 212.085 30.0889C210.985 30.0889 210.102 30.438 209.435 31.1362C208.779 31.8344 208.452 32.8552 208.452 34.1987C208.452 35.5422 208.774 36.5736 209.419 37.2929C210.065 38.0123 210.932 38.372 212.022 38.372C213.027 38.372 213.836 38.1128 214.45 37.5944C215.074 37.0655 215.418 36.3409 215.481 35.4205H212.054V33.8972H217.623V34.8651C217.623 35.9336 217.39 36.8645 216.925 37.6579C216.46 38.4407 215.804 39.049 214.957 39.4827C214.111 39.9164 213.122 40.1333 211.99 40.1333ZM223.033 40.1333C222.198 40.1333 221.462 39.9587 220.828 39.6096C220.204 39.2606 219.717 38.7581 219.368 38.1022C219.019 37.4463 218.844 36.6688 218.844 35.7696C218.844 34.9022 219.008 34.1405 219.336 33.4846C219.675 32.8288 220.156 32.3157 220.78 31.9454C221.404 31.5752 222.155 31.3901 223.033 31.3901C223.858 31.3901 224.583 31.5699 225.207 31.9296C225.831 32.2787 226.318 32.7812 226.667 33.437C227.016 34.0823 227.191 34.8598 227.191 35.7696C227.191 36.6371 227.021 37.3987 226.683 38.0546C226.355 38.7105 225.879 39.2235 225.255 39.5938C224.641 39.9535 223.901 40.1333 223.033 40.1333ZM223.017 38.4989C223.673 38.4989 224.197 38.2715 224.588 37.8166C224.99 37.3511 225.191 36.6688 225.191 35.7696C225.191 34.8704 224.996 34.1881 224.604 33.7226C224.213 33.2572 223.689 33.0245 223.033 33.0245C222.377 33.0245 221.848 33.2572 221.447 33.7226C221.045 34.1881 220.844 34.8704 220.844 35.7696C220.844 36.6582 221.039 37.3352 221.431 37.8007C221.822 38.2662 222.351 38.4989 223.017 38.4989ZM232.61 40.1333C231.774 40.1333 231.039 39.9587 230.404 39.6096C229.78 39.2606 229.293 38.7581 228.944 38.1022C228.595 37.4463 228.421 36.6688 228.421 35.7696C228.421 34.9022 228.585 34.1405 228.913 33.4846C229.251 32.8288 229.732 32.3157 230.357 31.9454C230.981 31.5752 231.732 31.3901 232.61 31.3901C233.435 31.3901 234.16 31.5699 234.784 31.9296C235.408 32.2787 235.894 32.7812 236.244 33.437C236.593 34.0823 236.767 34.8598 236.767 35.7696C236.767 36.6371 236.598 37.3987 236.259 38.0546C235.932 38.7105 235.455 39.2235 234.831 39.5938C234.218 39.9535 233.477 40.1333 232.61 40.1333ZM232.594 38.4989C233.25 38.4989 233.773 38.2715 234.165 37.8166C234.567 37.3511 234.768 36.6688 234.768 35.7696C234.768 34.8704 234.572 34.1881 234.181 33.7226C233.789 33.2572 233.266 33.0245 232.61 33.0245C231.954 33.0245 231.425 33.2572 231.023 33.7226C230.621 34.1881 230.42 34.8704 230.42 35.7696C230.42 36.6582 230.616 37.3352 231.007 37.8007C231.399 38.2662 231.928 38.4989 232.594 38.4989ZM241.393 40.1333C240.377 40.1333 239.558 39.763 238.933 39.0225C238.309 38.282 237.997 37.1977 237.997 35.7696C237.997 34.3309 238.309 33.2413 238.933 32.5008C239.558 31.7603 240.377 31.3901 241.393 31.3901C242.081 31.3901 242.668 31.5487 243.154 31.8661C243.641 32.1729 243.985 32.5854 244.186 33.1038H244.297V28.4228H246.28L246.264 39.9905H244.36L244.297 38.4196H244.186C243.985 38.9273 243.641 39.3399 243.154 39.6573C242.668 39.9746 242.081 40.1333 241.393 40.1333ZM242.139 38.5148C242.604 38.5148 242.996 38.4037 243.313 38.1815C243.63 37.9594 243.868 37.6738 244.027 37.3247C244.186 36.9756 244.265 36.6 244.265 36.198V35.3253C244.265 34.9233 244.186 34.5478 244.027 34.1987C243.868 33.839 243.63 33.5534 243.313 33.3418C242.996 33.1197 242.604 33.0086 242.139 33.0086C241.504 33.0086 240.991 33.236 240.6 33.6909C240.208 34.1458 240.012 34.8387 240.012 35.7696C240.012 36.69 240.208 37.3776 240.6 37.8324C240.991 38.2873 241.504 38.5148 242.139 38.5148ZM251.486 40.1492C250.364 40.1492 249.476 39.89 248.82 39.3716C248.175 38.8533 247.857 38.171 247.868 37.3247H249.82C249.83 37.8113 249.989 38.1657 250.296 38.3878C250.613 38.61 251.031 38.721 251.549 38.721C252.046 38.721 252.422 38.6311 252.676 38.4513C252.94 38.2609 253.073 38.0017 253.073 37.6738C253.073 37.2824 252.935 37.0179 252.66 36.8804C252.395 36.7323 251.935 36.6106 251.279 36.5154C250.2 36.3567 249.396 36.1028 248.868 35.7537C248.349 35.3941 248.09 34.8122 248.09 34.0083C248.09 33.4793 248.233 33.0192 248.518 32.6278C248.804 32.2364 249.206 31.9349 249.724 31.7233C250.243 31.5011 250.851 31.3901 251.549 31.3901C252.565 31.3901 253.374 31.6334 253.977 32.12C254.591 32.596 254.908 33.2413 254.929 34.0559H252.977C252.977 33.6116 252.84 33.2942 252.565 33.1038C252.3 32.9028 251.946 32.8023 251.502 32.8023C251.047 32.8023 250.692 32.8922 250.438 33.0721C250.195 33.2519 250.073 33.5058 250.073 33.8337C250.073 34.1934 250.227 34.4473 250.534 34.5954C250.84 34.7435 251.348 34.8651 252.057 34.9603C253.062 35.0979 253.818 35.3465 254.326 35.7061C254.844 36.0658 255.104 36.6635 255.104 37.4992C255.104 38.3455 254.77 39.0014 254.104 39.4668C253.448 39.9217 252.575 40.1492 251.486 40.1492Z" fill="black"/>
<path d="M75.28 67.5242V55.9565H79.8341C80.9237 55.9565 81.8546 56.1998 82.6268 56.6864C83.3991 57.1624 83.9915 57.8342 84.404 58.7016C84.8166 59.569 85.0229 60.5846 85.0229 61.7482C85.0229 62.9119 84.8166 63.9274 84.404 64.7949C83.9915 65.6518 83.3991 66.3235 82.6268 66.8101C81.8546 67.2862 80.9237 67.5242 79.8341 67.5242H75.28ZM76.6288 66.3341H79.6595C80.8761 66.3341 81.8387 65.9427 82.5475 65.1598C83.2668 64.3665 83.6265 63.2187 83.6265 61.7165C83.6265 60.1932 83.2615 59.0507 82.5316 58.289C81.8123 57.5274 80.8549 57.1465 79.6595 57.1465H76.6288V66.3341ZM90.463 67.667C89.659 67.667 88.9555 67.4924 88.3525 67.1433C87.7496 66.7837 87.2788 66.2865 86.9403 65.6518C86.6018 65.0065 86.4325 64.2501 86.4325 63.3826C86.4325 62.5258 86.5965 61.7747 86.9244 61.1294C87.2629 60.4841 87.7337 59.9816 88.3367 59.6219C88.9397 59.2517 89.6484 59.0666 90.463 59.0666C91.267 59.0666 91.9651 59.2464 92.5575 59.6061C93.1605 59.9552 93.626 60.4524 93.9539 61.0977C94.2924 61.7324 94.4617 62.4887 94.4617 63.3668C94.4617 64.2131 94.2977 64.9589 93.9698 65.6042C93.6419 66.2494 93.1764 66.7572 92.5734 67.1275C91.981 67.4871 91.2775 67.667 90.463 67.667ZM90.463 66.5562C91.267 66.5562 91.9175 66.2759 92.4147 65.7152C92.9119 65.1546 93.1605 64.3717 93.1605 63.3668C93.1605 62.3724 92.9172 61.5896 92.4306 61.0183C91.9546 60.4365 91.2987 60.1456 90.463 60.1456C89.6484 60.1456 88.9926 60.4312 88.4954 61.0025C87.9982 61.5631 87.7496 62.3565 87.7496 63.3826C87.7496 64.3665 87.9929 65.144 88.4795 65.7152C88.9661 66.2759 89.6273 66.5562 90.463 66.5562ZM96.2863 67.5242V59.1935H97.5081L97.5557 60.9231H97.6509C97.9048 60.3096 98.2962 59.8494 98.8251 59.5426C99.3541 59.2252 99.9306 59.0666 100.555 59.0666C101.137 59.0666 101.65 59.1829 102.094 59.4157C102.549 59.6484 102.903 60.0292 103.157 60.5582C103.422 61.0765 103.554 61.7641 103.554 62.621V67.5242H102.268V62.8749C102.268 61.9439 102.094 61.2563 101.745 60.812C101.396 60.3677 100.862 60.1456 100.142 60.1456C99.6132 60.1456 99.1531 60.2725 98.7617 60.5264C98.3808 60.7803 98.0846 61.1241 97.8731 61.5578C97.6615 61.9916 97.5557 62.4782 97.5557 63.0177V67.5242H96.2863ZM108.734 67.667C107.719 67.667 106.893 67.2914 106.259 66.5404C105.624 65.7893 105.307 64.7261 105.307 63.3509C105.307 61.9757 105.624 60.9178 106.259 60.1773C106.893 59.4262 107.719 59.0507 108.734 59.0507C109.464 59.0507 110.083 59.2252 110.591 59.5743C111.109 59.9129 111.474 60.3624 111.686 60.9231H111.765L111.813 59.1935H113.05V67.5242H111.765V65.7787H111.686C111.474 66.3394 111.109 66.7942 110.591 67.1433C110.083 67.4924 109.464 67.667 108.734 67.667ZM109.163 66.588C109.723 66.588 110.194 66.4557 110.575 66.1913C110.956 65.9268 111.247 65.5883 111.448 65.1757C111.649 64.7632 111.749 64.3241 111.749 63.8587V62.8431C111.749 62.3777 111.649 61.9387 111.448 61.5261C111.247 61.1029 110.956 60.7644 110.575 60.5105C110.194 60.2461 109.723 60.1138 109.163 60.1138C108.401 60.1138 107.787 60.3942 107.322 60.9548C106.856 61.5049 106.624 62.3036 106.624 63.3509C106.624 64.3982 106.856 65.2022 107.322 65.7628C107.787 66.3129 108.401 66.588 109.163 66.588ZM117.66 67.5242C117.047 67.5242 116.618 67.3919 116.375 67.1275C116.142 66.863 116.026 66.4663 116.026 65.9374V60.2567H114.408V59.1935H116.026V56.7022L117.311 56.5277V59.1935H119.247V60.2567H117.311V65.7152C117.311 66.0114 117.364 66.2071 117.47 66.3023C117.576 66.3975 117.772 66.4452 118.057 66.4452H119.247V67.5242H117.66ZM123.882 67.667C122.687 67.667 121.756 67.2809 121.089 66.5086C120.433 65.7258 120.105 64.6891 120.105 63.3985C120.105 62.5205 120.248 61.7588 120.534 61.1135C120.83 60.4577 121.253 59.9552 121.803 59.6061C122.364 59.2464 123.041 59.0666 123.834 59.0666C124.681 59.0666 125.379 59.257 125.929 59.6378C126.479 60.0186 126.876 60.5529 127.119 61.2405C127.373 61.9175 127.468 62.695 127.405 63.5731H121.359C121.38 64.6098 121.613 65.3873 122.057 65.9056C122.512 66.4134 123.12 66.6673 123.882 66.6673C124.496 66.6673 124.998 66.5139 125.389 66.2071C125.781 65.9004 126.029 65.4984 126.135 65.0012H127.373C127.257 65.8475 126.87 66.5033 126.215 66.9688C125.569 67.4343 124.792 67.667 123.882 67.667ZM123.834 60.0662C123.136 60.0662 122.57 60.2884 122.136 60.7327C121.703 61.1664 121.454 61.8064 121.391 62.6527H126.151C126.13 61.7535 125.902 61.0977 125.469 60.6851C125.046 60.2725 124.501 60.0662 123.834 60.0662ZM132.226 67.667C131.211 67.667 130.385 67.2914 129.751 66.5404C129.116 65.7893 128.799 64.7261 128.799 63.3509C128.799 61.9757 129.116 60.9178 129.751 60.1773C130.385 59.4262 131.211 59.0507 132.226 59.0507C132.956 59.0507 133.575 59.2252 134.083 59.5743C134.601 59.9129 134.966 60.3624 135.178 60.9231H135.257V55.9565H136.542L136.526 67.5242H135.304L135.257 65.7787H135.178C134.966 66.3394 134.601 66.7942 134.083 67.1433C133.575 67.4924 132.956 67.667 132.226 67.667ZM132.655 66.588C133.215 66.588 133.686 66.4557 134.067 66.1913C134.448 65.9268 134.739 65.5883 134.94 65.1757C135.141 64.7632 135.241 64.3241 135.241 63.8587V62.8431C135.241 62.3777 135.141 61.9387 134.94 61.5261C134.739 61.1029 134.448 60.7644 134.067 60.5105C133.686 60.2461 133.215 60.1138 132.655 60.1138C131.893 60.1138 131.279 60.3942 130.814 60.9548C130.348 61.5049 130.116 62.3036 130.116 63.3509C130.116 64.3982 130.348 65.2022 130.814 65.7628C131.279 66.3129 131.893 66.588 132.655 66.588ZM144.779 67.5242C144.165 67.5242 143.737 67.3919 143.493 67.1275C143.26 66.863 143.144 66.4663 143.144 65.9374V60.2567H141.526V59.1935H143.144V56.7022L144.429 56.5277V59.1935H146.365V60.2567H144.429V65.7152C144.429 66.0114 144.482 66.2071 144.588 66.3023C144.694 66.3975 144.89 66.4452 145.175 66.4452H146.365V67.5242H144.779ZM151.254 67.667C150.45 67.667 149.746 67.4924 149.143 67.1433C148.54 66.7837 148.07 66.2865 147.731 65.6518C147.393 65.0065 147.223 64.2501 147.223 63.3826C147.223 62.5258 147.387 61.7747 147.715 61.1294C148.054 60.4841 148.525 59.9816 149.128 59.6219C149.731 59.2517 150.439 59.0666 151.254 59.0666C152.058 59.0666 152.756 59.2464 153.348 59.6061C153.951 59.9552 154.417 60.4524 154.745 61.0977C155.083 61.7324 155.253 62.4887 155.253 63.3668C155.253 64.2131 155.089 64.9589 154.761 65.6042C154.433 66.2494 153.967 66.7572 153.364 67.1275C152.772 67.4871 152.068 67.667 151.254 67.667ZM151.254 66.5562C152.058 66.5562 152.708 66.2759 153.206 65.7152C153.703 65.1546 153.951 64.3717 153.951 63.3668C153.951 62.3724 153.708 61.5896 153.221 61.0183C152.745 60.4365 152.09 60.1456 151.254 60.1456C150.439 60.1456 149.783 60.4312 149.286 61.0025C148.789 61.5631 148.54 62.3565 148.54 63.3826C148.54 64.3665 148.784 65.144 149.27 65.7152C149.757 66.2759 150.418 66.5562 151.254 66.5562ZM160.005 70.1741V69.111H160.862C161.243 69.111 161.544 69.0263 161.766 68.8571C161.989 68.6984 162.168 68.4445 162.306 68.0954L162.75 66.9529L159.434 59.1935H160.846L162.941 64.5727L163.337 65.62H163.401L163.766 64.5727L165.749 59.1935H167.098L163.512 68.4128C163.269 69.0581 162.951 69.5129 162.56 69.7774C162.179 70.0419 161.676 70.1741 161.052 70.1741H160.005ZM171.6 67.667C170.796 67.667 170.093 67.4924 169.49 67.1433C168.887 66.7837 168.416 66.2865 168.077 65.6518C167.739 65.0065 167.57 64.2501 167.57 63.3826C167.57 62.5258 167.734 61.7747 168.062 61.1294C168.4 60.4841 168.871 59.9816 169.474 59.6219C170.077 59.2517 170.786 59.0666 171.6 59.0666C172.404 59.0666 173.102 59.2464 173.695 59.6061C174.298 59.9552 174.763 60.4524 175.091 61.0977C175.43 61.7324 175.599 62.4887 175.599 63.3668C175.599 64.2131 175.435 64.9589 175.107 65.6042C174.779 66.2494 174.314 66.7572 173.711 67.1275C173.118 67.4871 172.415 67.667 171.6 67.667ZM171.6 66.5562C172.404 66.5562 173.055 66.2759 173.552 65.7152C174.049 65.1546 174.298 64.3717 174.298 63.3668C174.298 62.3724 174.054 61.5896 173.568 61.0183C173.092 60.4365 172.436 60.1456 171.6 60.1456C170.786 60.1456 170.13 60.4312 169.633 61.0025C169.135 61.5631 168.887 62.3565 168.887 63.3826C168.887 64.3665 169.13 65.144 169.617 65.7152C170.103 66.2759 170.764 66.5562 171.6 66.5562ZM180.359 67.667C179.428 67.667 178.693 67.3866 178.153 66.826C177.614 66.2547 177.344 65.4137 177.344 64.303V59.1935H178.629V63.9856C178.629 64.8108 178.799 65.4508 179.137 65.9056C179.476 66.3499 180.031 66.5721 180.803 66.5721C181.554 66.5721 182.163 66.3023 182.628 65.7628C183.094 65.2233 183.326 64.5146 183.326 63.6365V59.1935H184.612V67.5242H183.39L183.326 65.747H183.247C183.035 66.3499 182.665 66.8207 182.136 67.1592C181.618 67.4977 181.025 67.667 180.359 67.667ZM186.938 67.5242V59.1935H188.08L188.16 60.7327H188.223C188.403 60.1932 188.72 59.7859 189.175 59.5109C189.63 59.2252 190.138 59.0824 190.699 59.0824C190.794 59.0824 190.884 59.0877 190.968 59.0983C191.053 59.0983 191.132 59.1036 191.206 59.1142V60.336C191.143 60.3254 191.064 60.3201 190.968 60.3201C190.884 60.3096 190.794 60.3043 190.699 60.3043C189.969 60.3043 189.382 60.5 188.937 60.8914C188.504 61.2828 188.26 61.8382 188.207 62.5575V67.5242H186.938ZM196.344 70.1741L196.36 59.1935H197.582L197.629 60.9231H197.725C197.926 60.3624 198.28 59.9129 198.788 59.5743C199.306 59.2252 199.93 59.0507 200.66 59.0507C201.676 59.0507 202.501 59.4262 203.136 60.1773C203.77 60.9284 204.088 61.9916 204.088 63.3668C204.088 64.742 203.77 65.8051 203.136 66.5562C202.501 67.2967 201.676 67.667 200.66 67.667C199.93 67.667 199.306 67.4977 198.788 67.1592C198.28 66.8101 197.926 66.3552 197.725 65.7946H197.629V70.1741H196.344ZM200.232 66.588C200.993 66.588 201.607 66.3129 202.072 65.7628C202.548 65.2127 202.786 64.4141 202.786 63.3668C202.786 62.3089 202.548 61.5049 202.072 60.9548C201.607 60.4048 200.993 60.1297 200.232 60.1297C199.682 60.1297 199.211 60.2619 198.819 60.5264C198.439 60.7803 198.148 61.1188 197.947 61.542C197.746 61.9545 197.645 62.3935 197.645 62.859V63.8587C197.645 64.3347 197.746 64.779 197.947 65.1916C198.148 65.6042 198.439 65.9427 198.819 66.2071C199.211 66.461 199.682 66.588 200.232 66.588ZM205.921 67.5242V59.1935H207.063L207.142 60.7327H207.206C207.386 60.1932 207.703 59.7859 208.158 59.5109C208.613 59.2252 209.121 59.0824 209.681 59.0824C209.776 59.0824 209.866 59.0877 209.951 59.0983C210.036 59.0983 210.115 59.1036 210.189 59.1142V60.336C210.126 60.3254 210.046 60.3201 209.951 60.3201C209.866 60.3096 209.776 60.3043 209.681 60.3043C208.951 60.3043 208.364 60.5 207.92 60.8914C207.486 61.2828 207.243 61.8382 207.19 62.5575V67.5242H205.921ZM214.85 67.667C214.046 67.667 213.342 67.4924 212.739 67.1433C212.136 66.7837 211.665 66.2865 211.327 65.6518C210.988 65.0065 210.819 64.2501 210.819 63.3826C210.819 62.5258 210.983 61.7747 211.311 61.1294C211.649 60.4841 212.12 59.9816 212.723 59.6219C213.326 59.2517 214.035 59.0666 214.85 59.0666C215.654 59.0666 216.352 59.2464 216.944 59.6061C217.547 59.9552 218.013 60.4524 218.34 61.0977C218.679 61.7324 218.848 62.4887 218.848 63.3668C218.848 64.2131 218.684 64.9589 218.356 65.6042C218.028 66.2494 217.563 66.7572 216.96 67.1275C216.368 67.4871 215.664 67.667 214.85 67.667ZM214.85 66.5562C215.654 66.5562 216.304 66.2759 216.801 65.7152C217.298 65.1546 217.547 64.3717 217.547 63.3668C217.547 62.3724 217.304 61.5896 216.817 61.0183C216.341 60.4365 215.685 60.1456 214.85 60.1456C214.035 60.1456 213.379 60.4312 212.882 61.0025C212.385 61.5631 212.136 62.3565 212.136 63.3826C212.136 64.3665 212.379 65.144 212.866 65.7152C213.353 66.2759 214.014 66.5562 214.85 66.5562ZM220.53 57.813V55.9565H221.815V57.813H220.53ZM218.88 70.2852V69.2538H219.578C219.938 69.2538 220.186 69.1691 220.324 68.9999C220.461 68.8306 220.53 68.5767 220.53 68.2382V59.1935H221.815V68.3652C221.815 68.9682 221.662 69.4389 221.355 69.7774C221.059 70.1159 220.572 70.2852 219.895 70.2852H218.88ZM227.411 67.667C226.215 67.667 225.285 67.2809 224.618 66.5086C223.962 65.7258 223.634 64.6891 223.634 63.3985C223.634 62.5205 223.777 61.7588 224.063 61.1135C224.359 60.4577 224.782 59.9552 225.332 59.6061C225.893 59.2464 226.57 59.0666 227.363 59.0666C228.21 59.0666 228.908 59.257 229.458 59.6378C230.008 60.0186 230.405 60.5529 230.648 61.2405C230.902 61.9175 230.997 62.695 230.934 63.5731H224.888C224.909 64.6098 225.142 65.3873 225.586 65.9056C226.041 66.4134 226.649 66.6673 227.411 66.6673C228.024 66.6673 228.527 66.5139 228.918 66.2071C229.31 65.9004 229.558 65.4984 229.664 65.0012H230.902C230.785 65.8475 230.399 66.5033 229.743 66.9688C229.098 67.4343 228.321 67.667 227.411 67.667ZM227.363 60.0662C226.665 60.0662 226.099 60.2884 225.665 60.7327C225.232 61.1664 224.983 61.8064 224.92 62.6527H229.68C229.659 61.7535 229.431 61.0977 228.998 60.6851C228.575 60.2725 228.03 60.0662 227.363 60.0662ZM236.326 67.667C235.522 67.667 234.819 67.4871 234.216 67.1275C233.623 66.7678 233.158 66.2706 232.819 65.6359C232.492 64.9906 232.328 64.2342 232.328 63.3668C232.328 62.5099 232.492 61.7588 232.819 61.1135C233.158 60.4682 233.629 59.9657 234.232 59.6061C234.845 59.2464 235.559 59.0666 236.374 59.0666C237.03 59.0666 237.617 59.1882 238.135 59.4315C238.654 59.6748 239.071 60.0186 239.389 60.4629C239.706 60.8967 239.886 61.4044 239.928 61.9863H238.691C238.585 61.3939 238.315 60.9443 237.881 60.6375C237.448 60.3201 236.935 60.1615 236.342 60.1615C235.485 60.1615 234.819 60.4577 234.343 61.0501C233.867 61.6425 233.629 62.42 233.629 63.3826C233.629 64.3876 233.872 65.1704 234.359 65.7311C234.856 66.2918 235.512 66.5721 236.326 66.5721C236.993 66.5721 237.538 66.3923 237.961 66.0326C238.394 65.6729 238.648 65.1969 238.722 64.6045H239.976C239.923 65.2286 239.733 65.7681 239.405 66.223C239.087 66.6779 238.659 67.0323 238.119 67.2862C237.59 67.54 236.993 67.667 236.326 67.667ZM243.953 67.5242C243.339 67.5242 242.911 67.3919 242.668 67.1275C242.435 66.863 242.319 66.4663 242.319 65.9374V60.2567H240.7V59.1935H242.319V56.7022L243.604 56.5277V59.1935H245.54V60.2567H243.604V65.7152C243.604 66.0114 243.657 66.2071 243.763 66.3023C243.868 66.3975 244.064 66.4452 244.35 66.4452H245.54V67.5242H243.953Z" fill="black"/>
<path d="M31 23.5481H350C356.32 23.5481 361.442 28.6709 361.442 34.9905V85.5247C361.442 91.844 356.319 96.967 350 96.967H31C24.6806 96.967 19.5579 91.844 19.5576 85.5247V34.9905C19.5576 28.6709 24.6805 23.5481 31 23.5481Z" fill="white"/>
<path d="M31 23.5481H350C356.32 23.5481 361.442 28.6709 361.442 34.9905V85.5247C361.442 91.844 356.319 96.967 350 96.967H31C24.6806 96.967 19.5579 91.844 19.5576 85.5247V34.9905C19.5576 28.6709 24.6805 23.5481 31 23.5481Z" stroke="#E2E8F0" stroke-width="1.11489"/>
<path d="M37 54.9905C37 43.9448 45.9543 34.9905 57 34.9905C68.0457 34.9905 77 43.9448 77 54.9905C77 66.0362 68.0457 74.9905 57 74.9905C45.9543 74.9905 37 66.0362 37 54.9905Z" fill="#292929"/>
<path d="M45 65.1768H69V41.1768H45V65.1768Z" fill="#292929"/>
<path d="M86.1372 51.9905V40.4228H90.9451C92.1828 40.4228 93.1719 40.7507 93.9124 41.4066C94.6635 42.0519 95.0391 42.9669 95.0391 44.1517C95.0391 44.9028 94.8751 45.564 94.5472 46.1352C94.2192 46.6959 93.7485 47.1349 93.1349 47.4523C92.5319 47.7696 91.802 47.9283 90.9451 47.9283L88.2317 47.9124V51.9905H86.1372ZM90.5961 42.2158H88.2317V46.2622L90.5961 46.278C91.2519 46.278 91.7967 46.1193 92.2304 45.802C92.6748 45.4846 92.8969 44.961 92.8969 44.2311C92.8969 43.5011 92.6748 42.9828 92.2304 42.676C91.7861 42.3692 91.2413 42.2158 90.5961 42.2158ZM101.921 52.1333C100.768 52.1333 99.7578 51.9006 98.8904 51.4351C98.0335 50.9591 97.3618 50.2767 96.8752 49.3881C96.3991 48.4995 96.1611 47.4364 96.1611 46.1987C96.1611 44.961 96.3991 43.9031 96.8752 43.0251C97.3618 42.1365 98.0335 41.4595 98.8904 40.994C99.7578 40.518 100.768 40.2799 101.921 40.2799C103.074 40.2799 104.084 40.518 104.952 40.994C105.819 41.4595 106.491 42.1365 106.967 43.0251C107.443 43.9137 107.681 44.9716 107.681 46.1987C107.681 47.447 107.438 48.5154 106.951 49.404C106.475 50.282 105.804 50.9591 104.936 51.4351C104.079 51.9006 103.074 52.1333 101.921 52.1333ZM101.921 50.3243C103.021 50.3243 103.894 49.97 104.539 49.2612C105.195 48.5524 105.523 47.5316 105.523 46.1987C105.523 44.8658 105.195 43.8502 104.539 43.152C103.894 42.4433 103.021 42.0889 101.921 42.0889C100.821 42.0889 99.9483 42.4433 99.303 43.152C98.6577 43.8502 98.335 44.8658 98.335 46.1987C98.335 47.5422 98.6577 48.5683 99.303 49.2771C99.9588 49.9753 100.832 50.3243 101.921 50.3243ZM111.481 51.9905V42.2476H107.959V40.4228H117.162V42.2476H113.576V51.9905H111.481ZM118.617 51.9905V40.4228H120.711V50.1181H126.043V51.9905H118.617ZM132.061 52.1333C130.908 52.1333 129.898 51.9006 129.03 51.4351C128.173 50.9591 127.502 50.2767 127.015 49.3881C126.539 48.4995 126.301 47.4364 126.301 46.1987C126.301 44.961 126.539 43.9031 127.015 43.0251C127.502 42.1365 128.173 41.4595 129.03 40.994C129.898 40.518 130.908 40.2799 132.061 40.2799C133.214 40.2799 134.224 40.518 135.092 40.994C135.959 41.4595 136.631 42.1365 137.107 43.0251C137.583 43.9137 137.821 44.9716 137.821 46.1987C137.821 47.447 137.578 48.5154 137.091 49.404C136.615 50.282 135.943 50.9591 135.076 51.4351C134.219 51.9006 133.214 52.1333 132.061 52.1333ZM132.061 50.3243C133.161 50.3243 134.034 49.97 134.679 49.2612C135.335 48.5524 135.663 47.5316 135.663 46.1987C135.663 44.8658 135.335 43.8502 134.679 43.152C134.034 42.4433 133.161 42.0889 132.061 42.0889C130.961 42.0889 130.088 42.4433 129.443 43.152C128.797 43.8502 128.475 44.8658 128.475 46.1987C128.475 47.5422 128.797 48.5683 129.443 49.2771C130.099 49.9753 130.971 50.3243 132.061 50.3243ZM144.969 52.1333C143.816 52.1333 142.811 51.9006 141.954 51.4351C141.097 50.9591 140.425 50.2767 139.939 49.3881C139.463 48.4995 139.225 47.4364 139.225 46.1987C139.225 44.9716 139.463 43.919 139.939 43.041C140.425 42.1524 141.097 41.47 141.954 40.994C142.821 40.518 143.826 40.2799 144.969 40.2799C145.942 40.2799 146.804 40.4492 147.555 40.7877C148.317 41.1262 148.936 41.6023 149.412 42.2158C149.888 42.8188 150.184 43.5329 150.3 44.358H148.158C148.01 43.6916 147.65 43.1468 147.079 42.7236C146.519 42.3005 145.815 42.0889 144.969 42.0889C143.869 42.0889 142.996 42.4433 142.351 43.152C141.716 43.8502 141.398 44.8658 141.398 46.1987C141.398 47.5527 141.716 48.5789 142.351 49.2771C142.996 49.9753 143.869 50.3243 144.969 50.3243C145.804 50.3243 146.513 50.1181 147.095 49.7055C147.677 49.2824 148.031 48.727 148.158 48.0394H150.3C150.195 48.8645 149.904 49.5838 149.428 50.1974C148.952 50.811 148.327 51.287 147.555 51.6255C146.794 51.964 145.931 52.1333 144.969 52.1333ZM152.212 51.9905V40.4228H154.307V46.1987L159.353 40.4228H161.876L157.528 45.2307L161.955 51.9905H159.464L156.084 46.7382L154.307 48.6741V51.9905H152.212ZM166.995 51.9905V40.4228H171.803C173.041 40.4228 174.03 40.7507 174.771 41.4066C175.522 42.0519 175.897 42.9669 175.897 44.1517C175.897 44.9028 175.733 45.564 175.405 46.1352C175.077 46.6959 174.607 47.1349 173.993 47.4523C173.39 47.7696 172.66 47.9283 171.803 47.9283L169.09 47.9124V51.9905H166.995ZM171.454 42.2158H169.09V46.2622L171.454 46.278C172.11 46.278 172.655 46.1193 173.089 45.802C173.533 45.4846 173.755 44.961 173.755 44.2311C173.755 43.5011 173.533 42.9828 173.089 42.676C172.644 42.3692 172.1 42.2158 171.454 42.2158ZM180.292 52.1333C179.319 52.1333 178.568 51.853 178.039 51.2923C177.52 50.721 177.261 49.8853 177.261 48.7852V43.5487H179.245V48.2615C179.245 48.9809 179.382 49.5362 179.657 49.9276C179.943 50.3191 180.408 50.5148 181.054 50.5148C181.688 50.5148 182.191 50.2873 182.561 49.8324C182.942 49.3776 183.132 48.8169 183.132 48.1504V43.5487H185.116V51.9905H183.212L183.132 50.3561H183.037C182.825 50.9273 182.471 51.3663 181.974 51.6731C181.477 51.9799 180.916 52.1333 180.292 52.1333ZM192.036 52.1492C191.359 52.1492 190.777 51.9905 190.291 51.6731C189.804 51.3558 189.46 50.9432 189.259 50.4354H189.148L189.069 51.9905H187.165V40.4228H189.148V45.1038H189.259C189.46 44.596 189.804 44.1835 190.291 43.8661C190.777 43.5487 191.359 43.3901 192.036 43.3901C193.062 43.3901 193.888 43.7603 194.512 44.5008C195.136 45.2413 195.448 46.3309 195.448 47.7696C195.448 49.1977 195.136 50.2873 194.512 51.0384C193.888 51.7789 193.062 52.1492 192.036 52.1492ZM191.306 50.5306C191.941 50.5306 192.454 50.3032 192.846 49.8483C193.237 49.3828 193.433 48.69 193.433 47.7696C193.433 46.8387 193.237 46.1458 192.846 45.6909C192.454 45.236 191.941 45.0086 191.306 45.0086C190.83 45.0086 190.434 45.1197 190.116 45.3418C189.799 45.564 189.561 45.8496 189.402 46.1987C189.244 46.5478 189.164 46.9233 189.164 47.3253V48.2139C189.164 48.6053 189.244 48.9809 189.402 49.3405C189.561 49.6896 189.799 49.9753 190.116 50.1974C190.434 50.4196 190.83 50.5306 191.306 50.5306ZM197.051 51.9905V40.4228H199.035V51.9905H197.051ZM201.173 42.3586V40.4228H203.157V42.3586H201.173ZM201.173 51.9905V43.5487H203.157V51.9905H201.173ZM208.913 52.1333C208.077 52.1333 207.347 51.9535 206.723 51.5938C206.099 51.2341 205.618 50.7263 205.279 50.0705C204.941 49.4146 204.772 48.6476 204.772 47.7696C204.772 46.8916 204.941 46.1246 205.279 45.4688C205.628 44.8129 206.115 44.3051 206.739 43.9454C207.374 43.5752 208.12 43.3901 208.977 43.3901C209.685 43.3901 210.315 43.5223 210.865 43.7868C211.415 44.0512 211.854 44.4215 212.182 44.8975C212.52 45.3736 212.706 45.9184 212.737 46.5319H210.801C210.717 46.0347 210.5 45.6592 210.151 45.4053C209.812 45.1514 209.405 45.0245 208.929 45.0245C208.231 45.0245 207.697 45.2783 207.326 45.7861C206.956 46.2833 206.771 46.9445 206.771 47.7696C206.771 48.6688 206.967 49.3511 207.358 49.8166C207.749 50.2715 208.268 50.4989 208.913 50.4989C209.463 50.4989 209.908 50.3561 210.246 50.0705C210.585 49.7743 210.78 49.3934 210.833 48.928H212.769C212.727 49.5733 212.536 50.1392 212.198 50.6258C211.859 51.1019 211.404 51.4721 210.833 51.7366C210.272 52.0011 209.632 52.1333 208.913 52.1333ZM222.99 52.1333C221.805 52.1333 220.79 51.8847 219.943 51.3875C219.097 50.8903 218.441 50.1974 217.976 49.3088C217.521 48.4202 217.294 47.3835 217.294 46.1987C217.294 44.9716 217.537 43.9137 218.023 43.0251C218.51 42.1365 219.187 41.4595 220.055 40.994C220.922 40.518 221.932 40.2799 223.085 40.2799C224.08 40.2799 224.958 40.4492 225.719 40.7877C226.481 41.1157 227.095 41.5811 227.56 42.1841C228.026 42.7871 228.306 43.4853 228.401 44.2787H226.243C226.095 43.5911 225.735 43.0568 225.164 42.676C224.593 42.2846 223.9 42.0889 223.085 42.0889C221.985 42.0889 221.102 42.438 220.435 43.1362C219.779 43.8344 219.452 44.8552 219.452 46.1987C219.452 47.5422 219.774 48.5736 220.419 49.2929C221.065 50.0123 221.932 50.372 223.022 50.372C224.027 50.372 224.836 50.1128 225.45 49.5944C226.074 49.0655 226.418 48.3409 226.481 47.4205H223.054V45.8972H228.623V46.8651C228.623 47.9336 228.39 48.8645 227.925 49.6579C227.46 50.4407 226.804 51.049 225.957 51.4827C225.111 51.9164 224.122 52.1333 222.99 52.1333ZM234.033 52.1333C233.198 52.1333 232.462 51.9587 231.828 51.6096C231.204 51.2606 230.717 50.7581 230.368 50.1022C230.019 49.4463 229.844 48.6688 229.844 47.7696C229.844 46.9022 230.008 46.1405 230.336 45.4846C230.675 44.8288 231.156 44.3157 231.78 43.9454C232.404 43.5752 233.155 43.3901 234.033 43.3901C234.858 43.3901 235.583 43.5699 236.207 43.9296C236.831 44.2787 237.318 44.7812 237.667 45.437C238.016 46.0823 238.191 46.8598 238.191 47.7696C238.191 48.6371 238.021 49.3987 237.683 50.0546C237.355 50.7105 236.879 51.2235 236.255 51.5938C235.641 51.9535 234.901 52.1333 234.033 52.1333ZM234.017 50.4989C234.673 50.4989 235.197 50.2715 235.588 49.8166C235.99 49.3511 236.191 48.6688 236.191 47.7696C236.191 46.8704 235.996 46.1881 235.604 45.7226C235.213 45.2572 234.689 45.0245 234.033 45.0245C233.377 45.0245 232.848 45.2572 232.447 45.7226C232.045 46.1881 231.844 46.8704 231.844 47.7696C231.844 48.6582 232.039 49.3352 232.431 49.8007C232.822 50.2662 233.351 50.4989 234.017 50.4989ZM243.61 52.1333C242.774 52.1333 242.039 51.9587 241.404 51.6096C240.78 51.2606 240.293 50.7581 239.944 50.1022C239.595 49.4463 239.421 48.6688 239.421 47.7696C239.421 46.9022 239.585 46.1405 239.913 45.4846C240.251 44.8288 240.732 44.3157 241.357 43.9454C241.981 43.5752 242.732 43.3901 243.61 43.3901C244.435 43.3901 245.16 43.5699 245.784 43.9296C246.408 44.2787 246.894 44.7812 247.244 45.437C247.593 46.0823 247.767 46.8598 247.767 47.7696C247.767 48.6371 247.598 49.3987 247.259 50.0546C246.932 50.7105 246.455 51.2235 245.831 51.5938C245.218 51.9535 244.477 52.1333 243.61 52.1333ZM243.594 50.4989C244.25 50.4989 244.773 50.2715 245.165 49.8166C245.567 49.3511 245.768 48.6688 245.768 47.7696C245.768 46.8704 245.572 46.1881 245.181 45.7226C244.789 45.2572 244.266 45.0245 243.61 45.0245C242.954 45.0245 242.425 45.2572 242.023 45.7226C241.621 46.1881 241.42 46.8704 241.42 47.7696C241.42 48.6582 241.616 49.3352 242.007 49.8007C242.399 50.2662 242.928 50.4989 243.594 50.4989ZM252.393 52.1333C251.377 52.1333 250.558 51.763 249.933 51.0225C249.309 50.282 248.997 49.1977 248.997 47.7696C248.997 46.3309 249.309 45.2413 249.933 44.5008C250.558 43.7603 251.377 43.3901 252.393 43.3901C253.081 43.3901 253.668 43.5487 254.154 43.8661C254.641 44.1729 254.985 44.5854 255.186 45.1038H255.297V40.4228H257.28L257.264 51.9905H255.36L255.297 50.4196H255.186C254.985 50.9273 254.641 51.3399 254.154 51.6573C253.668 51.9746 253.081 52.1333 252.393 52.1333ZM253.139 50.5148C253.604 50.5148 253.996 50.4037 254.313 50.1815C254.63 49.9594 254.868 49.6738 255.027 49.3247C255.186 48.9756 255.265 48.6 255.265 48.198V47.3253C255.265 46.9233 255.186 46.5478 255.027 46.1987C254.868 45.839 254.63 45.5534 254.313 45.3418C253.996 45.1197 253.604 45.0086 253.139 45.0086C252.504 45.0086 251.991 45.236 251.6 45.6909C251.208 46.1458 251.012 46.8387 251.012 47.7696C251.012 48.69 251.208 49.3776 251.6 49.8324C251.991 50.2873 252.504 50.5148 253.139 50.5148ZM262.486 52.1492C261.364 52.1492 260.476 51.89 259.82 51.3716C259.175 50.8533 258.857 50.171 258.868 49.3247H260.82C260.83 49.8113 260.989 50.1657 261.296 50.3878C261.613 50.61 262.031 50.721 262.549 50.721C263.046 50.721 263.422 50.6311 263.676 50.4513C263.94 50.2609 264.073 50.0017 264.073 49.6738C264.073 49.2824 263.935 49.0179 263.66 48.8804C263.395 48.7323 262.935 48.6106 262.279 48.5154C261.2 48.3567 260.396 48.1028 259.868 47.7537C259.349 47.3941 259.09 46.8122 259.09 46.0083C259.09 45.4793 259.233 45.0192 259.518 44.6278C259.804 44.2364 260.206 43.9349 260.724 43.7233C261.243 43.5011 261.851 43.3901 262.549 43.3901C263.565 43.3901 264.374 43.6334 264.977 44.12C265.591 44.596 265.908 45.2413 265.929 46.0559H263.977C263.977 45.6116 263.84 45.2942 263.565 45.1038C263.3 44.9028 262.946 44.8023 262.502 44.8023C262.047 44.8023 261.692 44.8922 261.438 45.0721C261.195 45.2519 261.073 45.5058 261.073 45.8337C261.073 46.1934 261.227 46.4473 261.534 46.5954C261.84 46.7435 262.348 46.8651 263.057 46.9603C264.062 47.0979 264.818 47.3465 265.326 47.7061C265.844 48.0658 266.104 48.6635 266.104 49.4992C266.104 50.3455 265.77 51.0014 265.104 51.4668C264.448 51.9217 263.575 52.1492 262.486 52.1492Z" fill="black"/>
<path d="M86.28 79.5242V67.9565H90.8341C91.9237 67.9565 92.8546 68.1998 93.6268 68.6864C94.3991 69.1624 94.9915 69.8342 95.404 70.7016C95.8166 71.569 96.0229 72.5846 96.0229 73.7482C96.0229 74.9119 95.8166 75.9274 95.404 76.7949C94.9915 77.6518 94.3991 78.3235 93.6268 78.8101C92.8546 79.2862 91.9237 79.5242 90.8341 79.5242H86.28ZM87.6288 78.3341H90.6595C91.8761 78.3341 92.8387 77.9427 93.5475 77.1598C94.2668 76.3665 94.6265 75.2187 94.6265 73.7165C94.6265 72.1932 94.2615 71.0507 93.5316 70.289C92.8123 69.5274 91.8549 69.1465 90.6595 69.1465H87.6288V78.3341ZM101.463 79.667C100.659 79.667 99.9555 79.4924 99.3525 79.1433C98.7496 78.7837 98.2788 78.2865 97.9403 77.6518C97.6018 77.0065 97.4325 76.2501 97.4325 75.3826C97.4325 74.5258 97.5965 73.7747 97.9244 73.1294C98.2629 72.4841 98.7337 71.9816 99.3367 71.6219C99.9397 71.2517 100.648 71.0666 101.463 71.0666C102.267 71.0666 102.965 71.2464 103.558 71.6061C104.161 71.9552 104.626 72.4524 104.954 73.0977C105.292 73.7324 105.462 74.4887 105.462 75.3668C105.462 76.2131 105.298 76.9589 104.97 77.6042C104.642 78.2494 104.176 78.7572 103.573 79.1275C102.981 79.4871 102.278 79.667 101.463 79.667ZM101.463 78.5562C102.267 78.5562 102.918 78.2759 103.415 77.7152C103.912 77.1546 104.161 76.3717 104.161 75.3668C104.161 74.3724 103.917 73.5896 103.431 73.0183C102.955 72.4365 102.299 72.1456 101.463 72.1456C100.648 72.1456 99.9926 72.4312 99.4954 73.0025C98.9982 73.5631 98.7496 74.3565 98.7496 75.3826C98.7496 76.3665 98.9929 77.144 99.4795 77.7152C99.9661 78.2759 100.627 78.5562 101.463 78.5562ZM107.286 79.5242V71.1935H108.508L108.556 72.9231H108.651C108.905 72.3096 109.296 71.8494 109.825 71.5426C110.354 71.2252 110.931 71.0666 111.555 71.0666C112.137 71.0666 112.65 71.1829 113.094 71.4157C113.549 71.6484 113.903 72.0292 114.157 72.5582C114.422 73.0765 114.554 73.7641 114.554 74.621V79.5242H113.268V74.8749C113.268 73.9439 113.094 73.2563 112.745 72.812C112.396 72.3677 111.862 72.1456 111.142 72.1456C110.613 72.1456 110.153 72.2725 109.762 72.5264C109.381 72.7803 109.085 73.1241 108.873 73.5578C108.661 73.9916 108.556 74.4782 108.556 75.0177V79.5242H107.286ZM119.734 79.667C118.719 79.667 117.893 79.2914 117.259 78.5404C116.624 77.7893 116.307 76.7261 116.307 75.3509C116.307 73.9757 116.624 72.9178 117.259 72.1773C117.893 71.4262 118.719 71.0507 119.734 71.0507C120.464 71.0507 121.083 71.2252 121.591 71.5743C122.109 71.9129 122.474 72.3624 122.686 72.9231H122.765L122.813 71.1935H124.05V79.5242H122.765V77.7787H122.686C122.474 78.3394 122.109 78.7942 121.591 79.1433C121.083 79.4924 120.464 79.667 119.734 79.667ZM120.163 78.588C120.723 78.588 121.194 78.4557 121.575 78.1913C121.956 77.9268 122.247 77.5883 122.448 77.1757C122.649 76.7632 122.749 76.3241 122.749 75.8587V74.8431C122.749 74.3777 122.649 73.9387 122.448 73.5261C122.247 73.1029 121.956 72.7644 121.575 72.5105C121.194 72.2461 120.723 72.1138 120.163 72.1138C119.401 72.1138 118.787 72.3942 118.322 72.9548C117.856 73.5049 117.624 74.3036 117.624 75.3509C117.624 76.3982 117.856 77.2022 118.322 77.7628C118.787 78.3129 119.401 78.588 120.163 78.588ZM128.66 79.5242C128.047 79.5242 127.618 79.3919 127.375 79.1275C127.142 78.863 127.026 78.4663 127.026 77.9374V72.2567H125.408V71.1935H127.026V68.7022L128.311 68.5277V71.1935H130.247V72.2567H128.311V77.7152C128.311 78.0114 128.364 78.2071 128.47 78.3023C128.576 78.3975 128.772 78.4452 129.057 78.4452H130.247V79.5242H128.66ZM134.882 79.667C133.687 79.667 132.756 79.2809 132.089 78.5086C131.433 77.7258 131.105 76.6891 131.105 75.3985C131.105 74.5205 131.248 73.7588 131.534 73.1135C131.83 72.4577 132.253 71.9552 132.803 71.6061C133.364 71.2464 134.041 71.0666 134.834 71.0666C135.681 71.0666 136.379 71.257 136.929 71.6378C137.479 72.0186 137.876 72.5529 138.119 73.2405C138.373 73.9175 138.468 74.695 138.405 75.5731H132.359C132.38 76.6098 132.613 77.3873 133.057 77.9056C133.512 78.4134 134.12 78.6673 134.882 78.6673C135.496 78.6673 135.998 78.5139 136.389 78.2071C136.781 77.9004 137.029 77.4984 137.135 77.0012H138.373C138.257 77.8475 137.87 78.5033 137.215 78.9688C136.569 79.4343 135.792 79.667 134.882 79.667ZM134.834 72.0662C134.136 72.0662 133.57 72.2884 133.136 72.7327C132.703 73.1664 132.454 73.8064 132.391 74.6527H137.151C137.13 73.7535 136.902 73.0977 136.469 72.6851C136.046 72.2725 135.501 72.0662 134.834 72.0662ZM143.226 79.667C142.211 79.667 141.385 79.2914 140.751 78.5404C140.116 77.7893 139.799 76.7261 139.799 75.3509C139.799 73.9757 140.116 72.9178 140.751 72.1773C141.385 71.4262 142.211 71.0507 143.226 71.0507C143.956 71.0507 144.575 71.2252 145.083 71.5743C145.601 71.9129 145.966 72.3624 146.178 72.9231H146.257V67.9565H147.542L147.526 79.5242H146.304L146.257 77.7787H146.178C145.966 78.3394 145.601 78.7942 145.083 79.1433C144.575 79.4924 143.956 79.667 143.226 79.667ZM143.655 78.588C144.215 78.588 144.686 78.4557 145.067 78.1913C145.448 77.9268 145.739 77.5883 145.94 77.1757C146.141 76.7632 146.241 76.3241 146.241 75.8587V74.8431C146.241 74.3777 146.141 73.9387 145.94 73.5261C145.739 73.1029 145.448 72.7644 145.067 72.5105C144.686 72.2461 144.215 72.1138 143.655 72.1138C142.893 72.1138 142.279 72.3942 141.814 72.9548C141.348 73.5049 141.116 74.3036 141.116 75.3509C141.116 76.3982 141.348 77.2022 141.814 77.7628C142.279 78.3129 142.893 78.588 143.655 78.588ZM155.779 79.5242C155.165 79.5242 154.737 79.3919 154.493 79.1275C154.26 78.863 154.144 78.4663 154.144 77.9374V72.2567H152.526V71.1935H154.144V68.7022L155.429 68.5277V71.1935H157.365V72.2567H155.429V77.7152C155.429 78.0114 155.482 78.2071 155.588 78.3023C155.694 78.3975 155.89 78.4452 156.175 78.4452H157.365V79.5242H155.779ZM162.254 79.667C161.45 79.667 160.746 79.4924 160.143 79.1433C159.54 78.7837 159.07 78.2865 158.731 77.6518C158.393 77.0065 158.223 76.2501 158.223 75.3826C158.223 74.5258 158.387 73.7747 158.715 73.1294C159.054 72.4841 159.525 71.9816 160.128 71.6219C160.731 71.2517 161.439 71.0666 162.254 71.0666C163.058 71.0666 163.756 71.2464 164.348 71.6061C164.951 71.9552 165.417 72.4524 165.745 73.0977C166.083 73.7324 166.253 74.4887 166.253 75.3668C166.253 76.2131 166.089 76.9589 165.761 77.6042C165.433 78.2494 164.967 78.7572 164.364 79.1275C163.772 79.4871 163.068 79.667 162.254 79.667ZM162.254 78.5562C163.058 78.5562 163.708 78.2759 164.206 77.7152C164.703 77.1546 164.951 76.3717 164.951 75.3668C164.951 74.3724 164.708 73.5896 164.221 73.0183C163.745 72.4365 163.09 72.1456 162.254 72.1456C161.439 72.1456 160.783 72.4312 160.286 73.0025C159.789 73.5631 159.54 74.3565 159.54 75.3826C159.54 76.3665 159.784 77.144 160.27 77.7152C160.757 78.2759 161.418 78.5562 162.254 78.5562ZM171.005 82.1741V81.111H171.862C172.243 81.111 172.544 81.0263 172.766 80.8571C172.989 80.6984 173.168 80.4445 173.306 80.0954L173.75 78.9529L170.434 71.1935H171.846L173.941 76.5727L174.337 77.62H174.401L174.766 76.5727L176.749 71.1935H178.098L174.512 80.4128C174.269 81.0581 173.951 81.5129 173.56 81.7774C173.179 82.0419 172.676 82.1741 172.052 82.1741H171.005ZM182.6 79.667C181.796 79.667 181.093 79.4924 180.49 79.1433C179.887 78.7837 179.416 78.2865 179.077 77.6518C178.739 77.0065 178.57 76.2501 178.57 75.3826C178.57 74.5258 178.734 73.7747 179.062 73.1294C179.4 72.4841 179.871 71.9816 180.474 71.6219C181.077 71.2517 181.786 71.0666 182.6 71.0666C183.404 71.0666 184.102 71.2464 184.695 71.6061C185.298 71.9552 185.763 72.4524 186.091 73.0977C186.43 73.7324 186.599 74.4887 186.599 75.3668C186.599 76.2131 186.435 76.9589 186.107 77.6042C185.779 78.2494 185.314 78.7572 184.711 79.1275C184.118 79.4871 183.415 79.667 182.6 79.667ZM182.6 78.5562C183.404 78.5562 184.055 78.2759 184.552 77.7152C185.049 77.1546 185.298 76.3717 185.298 75.3668C185.298 74.3724 185.054 73.5896 184.568 73.0183C184.092 72.4365 183.436 72.1456 182.6 72.1456C181.786 72.1456 181.13 72.4312 180.633 73.0025C180.135 73.5631 179.887 74.3565 179.887 75.3826C179.887 76.3665 180.13 77.144 180.617 77.7152C181.103 78.2759 181.764 78.5562 182.6 78.5562ZM191.359 79.667C190.428 79.667 189.693 79.3866 189.153 78.826C188.614 78.2547 188.344 77.4137 188.344 76.303V71.1935H189.629V75.9856C189.629 76.8108 189.799 77.4508 190.137 77.9056C190.476 78.3499 191.031 78.5721 191.803 78.5721C192.554 78.5721 193.163 78.3023 193.628 77.7628C194.094 77.2233 194.326 76.5146 194.326 75.6365V71.1935H195.612V79.5242H194.39L194.326 77.747H194.247C194.035 78.3499 193.665 78.8207 193.136 79.1592C192.618 79.4977 192.025 79.667 191.359 79.667ZM197.938 79.5242V71.1935H199.08L199.16 72.7327H199.223C199.403 72.1932 199.72 71.7859 200.175 71.5109C200.63 71.2252 201.138 71.0824 201.699 71.0824C201.794 71.0824 201.884 71.0877 201.968 71.0983C202.053 71.0983 202.132 71.1036 202.206 71.1142V72.336C202.143 72.3254 202.064 72.3201 201.968 72.3201C201.884 72.3096 201.794 72.3043 201.699 72.3043C200.969 72.3043 200.382 72.5 199.937 72.8914C199.504 73.2828 199.26 73.8382 199.207 74.5575V79.5242H197.938ZM207.344 82.1741L207.36 71.1935H208.582L208.629 72.9231H208.725C208.926 72.3624 209.28 71.9129 209.788 71.5743C210.306 71.2252 210.93 71.0507 211.66 71.0507C212.676 71.0507 213.501 71.4262 214.136 72.1773C214.77 72.9284 215.088 73.9916 215.088 75.3668C215.088 76.742 214.77 77.8051 214.136 78.5562C213.501 79.2967 212.676 79.667 211.66 79.667C210.93 79.667 210.306 79.4977 209.788 79.1592C209.28 78.8101 208.926 78.3552 208.725 77.7946H208.629V82.1741H207.344ZM211.232 78.588C211.993 78.588 212.607 78.3129 213.072 77.7628C213.548 77.2127 213.786 76.4141 213.786 75.3668C213.786 74.3089 213.548 73.5049 213.072 72.9548C212.607 72.4048 211.993 72.1297 211.232 72.1297C210.682 72.1297 210.211 72.2619 209.819 72.5264C209.439 72.7803 209.148 73.1188 208.947 73.542C208.746 73.9545 208.645 74.3935 208.645 74.859V75.8587C208.645 76.3347 208.746 76.779 208.947 77.1916C209.148 77.6042 209.439 77.9427 209.819 78.2071C210.211 78.461 210.682 78.588 211.232 78.588ZM216.921 79.5242V71.1935H218.063L218.142 72.7327H218.206C218.386 72.1932 218.703 71.7859 219.158 71.5109C219.613 71.2252 220.121 71.0824 220.681 71.0824C220.776 71.0824 220.866 71.0877 220.951 71.0983C221.036 71.0983 221.115 71.1036 221.189 71.1142V72.336C221.126 72.3254 221.046 72.3201 220.951 72.3201C220.866 72.3096 220.776 72.3043 220.681 72.3043C219.951 72.3043 219.364 72.5 218.92 72.8914C218.486 73.2828 218.243 73.8382 218.19 74.5575V79.5242H216.921ZM225.85 79.667C225.046 79.667 224.342 79.4924 223.739 79.1433C223.136 78.7837 222.665 78.2865 222.327 77.6518C221.988 77.0065 221.819 76.2501 221.819 75.3826C221.819 74.5258 221.983 73.7747 222.311 73.1294C222.649 72.4841 223.12 71.9816 223.723 71.6219C224.326 71.2517 225.035 71.0666 225.85 71.0666C226.654 71.0666 227.352 71.2464 227.944 71.6061C228.547 71.9552 229.013 72.4524 229.34 73.0977C229.679 73.7324 229.848 74.4887 229.848 75.3668C229.848 76.2131 229.684 76.9589 229.356 77.6042C229.028 78.2494 228.563 78.7572 227.96 79.1275C227.368 79.4871 226.664 79.667 225.85 79.667ZM225.85 78.5562C226.654 78.5562 227.304 78.2759 227.801 77.7152C228.298 77.1546 228.547 76.3717 228.547 75.3668C228.547 74.3724 228.304 73.5896 227.817 73.0183C227.341 72.4365 226.685 72.1456 225.85 72.1456C225.035 72.1456 224.379 72.4312 223.882 73.0025C223.385 73.5631 223.136 74.3565 223.136 75.3826C223.136 76.3665 223.379 77.144 223.866 77.7152C224.353 78.2759 225.014 78.5562 225.85 78.5562ZM231.53 69.813V67.9565H232.815V69.813H231.53ZM229.88 82.2852V81.2538H230.578C230.938 81.2538 231.186 81.1691 231.324 80.9999C231.461 80.8306 231.53 80.5767 231.53 80.2382V71.1935H232.815V80.3652C232.815 80.9682 232.662 81.4389 232.355 81.7774C232.059 82.1159 231.572 82.2852 230.895 82.2852H229.88ZM238.411 79.667C237.215 79.667 236.285 79.2809 235.618 78.5086C234.962 77.7258 234.634 76.6891 234.634 75.3985C234.634 74.5205 234.777 73.7588 235.063 73.1135C235.359 72.4577 235.782 71.9552 236.332 71.6061C236.893 71.2464 237.57 71.0666 238.363 71.0666C239.21 71.0666 239.908 71.257 240.458 71.6378C241.008 72.0186 241.405 72.5529 241.648 73.2405C241.902 73.9175 241.997 74.695 241.934 75.5731H235.888C235.909 76.6098 236.142 77.3873 236.586 77.9056C237.041 78.4134 237.649 78.6673 238.411 78.6673C239.024 78.6673 239.527 78.5139 239.918 78.2071C240.31 77.9004 240.558 77.4984 240.664 77.0012H241.902C241.785 77.8475 241.399 78.5033 240.743 78.9688C240.098 79.4343 239.321 79.667 238.411 79.667ZM238.363 72.0662C237.665 72.0662 237.099 72.2884 236.665 72.7327C236.232 73.1664 235.983 73.8064 235.92 74.6527H240.68C240.659 73.7535 240.431 73.0977 239.998 72.6851C239.575 72.2725 239.03 72.0662 238.363 72.0662ZM247.326 79.667C246.522 79.667 245.819 79.4871 245.216 79.1275C244.623 78.7678 244.158 78.2706 243.819 77.6359C243.492 76.9906 243.328 76.2342 243.328 75.3668C243.328 74.5099 243.492 73.7588 243.819 73.1135C244.158 72.4682 244.629 71.9657 245.232 71.6061C245.845 71.2464 246.559 71.0666 247.374 71.0666C248.03 71.0666 248.617 71.1882 249.135 71.4315C249.654 71.6748 250.071 72.0186 250.389 72.4629C250.706 72.8967 250.886 73.4044 250.928 73.9863H249.691C249.585 73.3939 249.315 72.9443 248.881 72.6375C248.448 72.3201 247.935 72.1615 247.342 72.1615C246.485 72.1615 245.819 72.4577 245.343 73.0501C244.867 73.6425 244.629 74.42 244.629 75.3826C244.629 76.3876 244.872 77.1704 245.359 77.7311C245.856 78.2918 246.512 78.5721 247.326 78.5721C247.993 78.5721 248.538 78.3923 248.961 78.0326C249.394 77.6729 249.648 77.1969 249.722 76.6045H250.976C250.923 77.2286 250.733 77.7681 250.405 78.223C250.087 78.6779 249.659 79.0323 249.119 79.2862C248.59 79.54 247.993 79.667 247.326 79.667ZM254.953 79.5242C254.339 79.5242 253.911 79.3919 253.668 79.1275C253.435 78.863 253.319 78.4663 253.319 77.9374V72.2567H251.7V71.1935H253.319V68.7022L254.604 68.5277V71.1935H256.54V72.2567H254.604V77.7152C254.604 78.0114 254.657 78.2071 254.763 78.3023C254.868 78.3975 255.064 78.4452 255.35 78.4452H256.54V79.5242H254.953Z" fill="black"/>
</svg>
