<svg width="467" height="231" viewBox="0 0 467 231" fill="none" xmlns="http://www.w3.org/2000/svg">
<g filter="url(#filter0_d_375_8703)">
<rect x="29.4375" y="11.1123" width="401.642" height="196.211" rx="5.72042" fill="white"/>
<rect x="29.7235" y="11.3983" width="401.07" height="195.638" rx="5.4344" stroke="#E4E4E7" stroke-width="0.572042"/>
</g>
<path d="M35.1582 11.3984H425.359C428.361 11.3986 430.794 13.8318 430.794 16.833V31.4199H29.7236V16.833C29.7236 13.8317 32.1569 11.3984 35.1582 11.3984Z" fill="#F5F5F5" stroke="#E4E4E7" stroke-width="0.572042"/>
<ellipse cx="45.2839" cy="21.409" rx="3.11592" ry="2.86021" fill="#E4E4E7"/>
<ellipse cx="56.5157" cy="21.409" rx="3.11592" ry="2.86021" fill="#E4E4E7"/>
<ellipse cx="67.7476" cy="21.409" rx="3.11592" ry="2.86021" fill="#E4E4E7"/>
<rect x="49.9385" y="42.5747" width="162.148" height="37.7548" rx="4.0043" fill="#F5F5F5"/>
<rect x="49.9385" y="128.953" width="162.148" height="6.29247" rx="3.14623" fill="#F5F5F5"/>
<rect x="49.9385" y="91.1982" width="137.919" height="6.29247" rx="3.14623" fill="#F5F5F5"/>
<rect x="49.9385" y="104.491" width="103.439" height="6.29247" rx="3.14623" fill="#F5F5F5"/>
<rect x="49.9385" y="142.11" width="162.148" height="6.29247" rx="3.14623" fill="#F5F5F5"/>
<rect x="229.793" y="42.5747" width="179.854" height="37.7548" rx="4.0043" fill="#F5F5F5"/>
<rect x="229.793" y="91.1982" width="152.979" height="6.29247" rx="3.14623" fill="#F5F5F5"/>
<rect x="229.793" y="104.355" width="114.734" height="6.29247" rx="3.14623" fill="#F5F5F5"/>
<defs>
<filter id="filter0_d_375_8703" x="-5.63339" y="0.321262" width="471.784" height="266.352" filterUnits="userSpaceOnUse" color-interpolation-filters="sRGB">
<feFlood flood-opacity="0" result="BackgroundImageFix"/>
<feColorMatrix in="SourceAlpha" type="matrix" values="0 0 0 0 0 0 0 0 0 0 0 0 0 0 0 0 0 0 127 0" result="hardAlpha"/>
<feOffset dy="24.2799"/>
<feGaussianBlur stdDeviation="17.5354"/>
<feComposite in2="hardAlpha" operator="out"/>
<feColorMatrix type="matrix" values="0 0 0 0 0 0 0 0 0 0 0 0 0 0 0 0 0 0 0.08 0"/>
<feBlend mode="normal" in2="BackgroundImageFix" result="effect1_dropShadow_375_8703"/>
<feBlend mode="normal" in="SourceGraphic" in2="effect1_dropShadow_375_8703" result="shape"/>
</filter>
</defs>
</svg>
