<svg width="25" height="24" viewBox="0 0 25 24" fill="none" xmlns="http://www.w3.org/2000/svg">
<path d="M10.4378 8.80219L9.99603 9.40825L10.4378 8.80219ZM12.2881 3.10615L11.7805 3.65833C12.0675 3.9221 12.5087 3.9221 12.7956 3.65833L12.2881 3.10615ZM14.1384 8.8022L14.5801 9.40826L14.1384 8.8022ZM12.2881 9.67598L12.2881 10.426H12.2881L12.2881 9.67598ZM10.4378 8.80219L10.8796 8.19612C10.1894 7.69298 9.4532 7.08112 8.89692 6.43627C8.3226 5.77053 8.03809 5.18233 8.03809 4.71476H7.28809H6.53809C6.53809 5.73229 7.11654 6.66885 7.76114 7.41607C8.42377 8.18419 9.26243 8.87349 9.99603 9.40825L10.4378 8.80219ZM7.28809 4.71476H8.03809C8.03809 3.65612 8.5581 3.05231 9.18358 2.84182C9.83563 2.62238 10.808 2.76435 11.7805 3.65833L12.2881 3.10615L12.7956 2.55398C11.5183 1.37988 9.99063 0.987559 8.70515 1.42016C7.39311 1.8617 6.53809 3.09623 6.53809 4.71476H7.28809ZM14.1384 8.8022L14.5801 9.40826C15.3137 8.8735 16.1524 8.18421 16.815 7.41608C17.4596 6.66886 18.0381 5.73229 18.0381 4.71475H17.2881H16.5381C16.5381 5.18234 16.2536 5.77055 15.6793 6.43629C15.123 7.08113 14.3868 7.69299 13.6966 8.19613L14.1384 8.8022ZM17.2881 4.71475H18.0381C18.0381 3.09622 17.1831 1.8617 15.871 1.42016C14.5855 0.987559 13.0579 1.37988 11.7805 2.55398L12.2881 3.10615L12.7956 3.65833C13.7682 2.76435 14.7405 2.62238 15.3926 2.84181C16.0181 3.0523 16.5381 3.65612 16.5381 4.71475H17.2881ZM10.4378 8.80219L9.99603 9.40825C10.7511 9.95869 11.3499 10.426 12.2881 10.426L12.2881 9.67598L12.2881 8.92598C11.9231 8.92598 11.7228 8.81074 10.8796 8.19612L10.4378 8.80219ZM14.1384 8.8022L13.6966 8.19613C12.8534 8.81074 12.6531 8.92598 12.2881 8.92598L12.2881 9.67598L12.2881 10.426C13.2263 10.426 13.825 9.9587 14.5801 9.40826L14.1384 8.8022Z" fill="black"/>
<path d="M5.28809 20.3884H7.54802C8.55888 20.3884 9.58062 20.4937 10.5644 20.6964C12.3047 21.0549 14.1369 21.0983 15.895 20.8138C16.7619 20.6734 17.6141 20.4589 18.3856 20.0865C19.082 19.7504 19.935 19.2766 20.508 18.7459C21.0802 18.216 21.6761 17.3487 22.099 16.6707C22.4617 16.0894 22.2863 15.3762 21.7126 14.943C21.0754 14.4619 20.1298 14.462 19.4927 14.9433L17.6855 16.3084C16.9851 16.8375 16.2201 17.3245 15.3087 17.4699C15.1991 17.4874 15.0843 17.5033 14.9644 17.5172M14.9644 17.5172C14.9284 17.5214 14.8919 17.5254 14.8549 17.5292M14.9644 17.5172C15.1102 17.486 15.255 17.396 15.3908 17.2775C16.034 16.7161 16.0747 15.77 15.5166 15.1431C15.3871 14.9977 15.2356 14.8764 15.0671 14.7759C12.2698 13.1074 7.9175 14.3782 5.28809 16.2429M14.9644 17.5172C14.928 17.525 14.8914 17.5292 14.8549 17.5292M14.8549 17.5292C14.3315 17.5829 13.7192 17.5968 13.0399 17.5326" stroke="black" stroke-width="1.5" stroke-linecap="round"/>
<rect x="2.28809" y="14" width="3" height="8" rx="1.5" stroke="#1C274C" stroke-width="1.5"/>
</svg>
