<svg width="25" height="24" viewBox="0 0 25 24" fill="none" xmlns="http://www.w3.org/2000/svg">
<path d="M9.36436 21.9999C7.67917 21.2478 6.28722 20.0758 5.37231 18.5068" stroke="black" stroke-width="1.5" stroke-linecap="round"/>
<path d="M15.4058 2.18595C17.0826 1.70882 18.8138 2.16305 20.0223 3.39724" stroke="black" stroke-width="1.5" stroke-linecap="round"/>
<path d="M4.59117 8.36655L4.21902 7.71539L4.59117 8.36655ZM7.08275 8.86743L7.73063 8.48962L7.08275 8.86743ZM3.78336 10.7531L3.13547 11.1309H3.13547L3.78336 10.7531ZM8.27742 3.37253L8.9253 2.99472V2.99472L8.27742 3.37253ZM9.1193 4.81624L8.47141 5.19405L9.1193 4.81624ZM10.9971 9.52517C11.2057 9.88299 11.6649 10.0039 12.0228 9.79524C12.3806 9.58659 12.5015 9.12736 12.2928 8.76955L10.9971 9.52517ZM8.11863 12.1327C8.32729 12.4905 8.78651 12.6114 9.14433 12.4027C9.50215 12.1941 9.62306 11.7349 9.4144 11.377L8.11863 12.1327ZM4.97803 5.25817L4.33014 5.63598L4.97803 5.25817ZM12.4187 2.9306L13.0666 2.55279V2.55279L12.4187 2.9306ZM14.9443 7.26172L15.5922 6.88391L14.9443 7.26172ZM16.6281 10.1491L17.0003 10.8003C17.1739 10.701 17.3008 10.5365 17.3525 10.3433C17.4043 10.15 17.3768 9.94413 17.276 9.77132L16.6281 10.1491ZM18.2437 5.37608L17.5958 5.75389L18.2437 5.37608ZM20.7694 9.7072L21.4173 9.32939V9.32939L20.7694 9.7072ZM7.57185 17.2497L8.21974 16.8719L7.57185 17.2497ZM17.5382 19.2533L17.166 18.6021L17.5382 19.2533ZM14.3646 15.3C14.5733 15.6578 15.0325 15.7787 15.3903 15.5701C15.7481 15.3614 15.869 14.9022 15.6604 14.5444L14.3646 15.3ZM4.59117 8.36655L4.96331 9.0177C5.59699 8.65555 6.2208 8.87817 6.43486 9.24524L7.08275 8.86743L7.73063 8.48962C7.01477 7.26202 5.40755 7.03613 4.21902 7.71539L4.59117 8.36655ZM4.59117 8.36655L4.21902 7.71539C3.02818 8.39597 2.41589 9.8969 3.13547 11.1309L3.78336 10.7531L4.43125 10.3753C4.22092 10.0146 4.33196 9.37853 4.96331 9.0177L4.59117 8.36655ZM8.27742 3.37253L7.62953 3.75034L8.47141 5.19405L9.1193 4.81624L9.76719 4.43843L8.9253 2.99472L8.27742 3.37253ZM9.1193 4.81624L8.47141 5.19405L10.9971 9.52517L11.645 9.14736L12.2928 8.76955L9.76719 4.43843L9.1193 4.81624ZM8.76652 11.7548L9.4144 11.377L7.73063 8.48962L7.08275 8.86743L6.43486 9.24524L8.11863 12.1327L8.76652 11.7548ZM7.08275 8.86743L7.73063 8.48962L5.62592 4.88036L4.97803 5.25817L4.33014 5.63598L6.43486 9.24524L7.08275 8.86743ZM5.78584 2.87164L6.15798 3.5228C6.79166 3.16065 7.41547 3.38327 7.62953 3.75034L8.27742 3.37253L8.9253 2.99472C8.20944 1.76712 6.60222 1.54123 5.41369 2.22048L5.78584 2.87164ZM5.78584 2.87164L5.41369 2.22048C4.22285 2.90107 3.61056 4.40199 4.33014 5.63598L4.97803 5.25817L5.62592 4.88036C5.41559 4.51967 5.52663 3.88363 6.15798 3.5228L5.78584 2.87164ZM12.4187 2.9306L11.7708 3.30841L14.2965 7.63953L14.9443 7.26172L15.5922 6.88391L13.0666 2.55279L12.4187 2.9306ZM14.9443 7.26172L14.2965 7.63953L15.9802 10.5269L16.6281 10.1491L17.276 9.77132L15.5922 6.88391L14.9443 7.26172ZM9.92711 2.42971L10.2993 3.08087C10.9329 2.71872 11.5567 2.94134 11.7708 3.30841L12.4187 2.9306L13.0666 2.55279C12.3507 1.32519 10.7435 1.0993 9.55496 1.77855L9.92711 2.42971ZM9.92711 2.42971L9.55496 1.77855C8.36412 2.45914 7.75182 3.96006 8.47141 5.19405L9.1193 4.81624L9.76719 4.43843C9.55686 4.07774 9.6679 3.4417 10.2993 3.08087L9.92711 2.42971ZM18.2437 5.37608L17.5958 5.75389L20.1215 10.085L20.7694 9.7072L21.4173 9.32939L18.8916 4.99827L18.2437 5.37608ZM15.7521 4.8752L16.1243 5.52635C16.758 5.1642 17.3818 5.38682 17.5958 5.75389L18.2437 5.37608L18.8916 4.99827C18.1757 3.77068 16.5685 3.54478 15.38 4.22404L15.7521 4.8752ZM15.7521 4.8752L15.38 4.22404C14.1892 4.90462 13.5769 6.40555 14.2965 7.63953L14.9443 7.26172L15.5922 6.88391C15.3819 6.52322 15.4929 5.88718 16.1243 5.52635L15.7521 4.8752ZM3.78336 10.7531L3.13547 11.1309L6.92396 17.6276L7.57185 17.2497L8.21974 16.8719L4.43125 10.3753L3.78336 10.7531ZM17.5382 19.2533L17.166 18.6021C13.799 20.5264 9.82867 19.631 8.21974 16.8719L7.57185 17.2497L6.92396 17.6276C9.0347 21.2472 13.9885 22.1458 17.9103 19.9045L17.5382 19.2533ZM20.7694 9.7072L20.1215 10.085C21.7267 12.8377 20.5307 16.6792 17.166 18.6021L17.5382 19.2533L17.9103 19.9045C21.8344 17.6618 23.5317 12.9554 21.4173 9.32939L20.7694 9.7072ZM15.0125 14.9222L15.6604 14.5444C14.9851 13.3863 15.4578 11.6818 17.0003 10.8003L16.6281 10.1491L16.256 9.49797C14.154 10.6993 13.1801 13.2687 14.3646 15.3L15.0125 14.9222Z" fill="black"/>
</svg>
